  0
SECTION
  2
HEADER
  9
$ACADVER
  1
AC1014
  9
$HANDSEED
  5
FFFF
  9
$INSUNITS
 70
     4
  9
$MEASUREMENT
 70
     1
  0
ENDSEC
  0
SECTION
  2
TABLES
  0
TABLE
  2
VPORT
  5
8
330
0
100
AcDbSymbolTable
 70
     4
  0
VPORT
  5
2E
330
8
100
AcDbSymbolTableRecord
100
AcDbViewportTableRecord
  2
*ACTIVE
 70
     0
 10
0.0
 20
0.0
 11
1.0
 21
1.0
 12
210.0
 22
148.5
 13
0.0
 23
0.0
 14
10.0
 24
10.0
 15
10.0
 25
10.0
 16
0.0
 26
0.0
 36
1.0
 17
0.0
 27
0.0
 37
0.0
 40
341.0
 41
1.24
 42
50.0
 43
0.0
 44
0.0
 50
0.0
 51
0.0
 71
     0
 72
   100
 73
     1
 74
     3
 75
     0
 76
     0
 77
     0
 78
     0
  0
ENDTAB
  0
TABLE
  2
LTYPE
  5
5
330
0
100
AcDbSymbolTable
 70
     1
  0
LTYPE
  5
14
330
5
100
AcDbSymbolTableRecord
100
AcDbLinetypeTableRecord
  2
BYBLOCK
 70
     0
  3

 72
    65
 73
     0
 40
0.0
  0
LTYPE
  5
15
330
5
100
AcDbSymbolTableRecord
100
AcDbLinetypeTableRecord
  2
BYLAYER
 70
     0
  3

 72
    65
 73
     0
 40
0.0
  0
LTYPE
  5
16
330
5
100
AcDbSymbolTableRecord
100
AcDbLinetypeTableRecord
  2
CONTINUOUS
 70
     0
  3
Solid line
 72
    65
 73
     0
 40
0.0
  0
ENDTAB
  0
TABLE
  2
LAYER
  5
2
100
AcDbSymbolTable
 70
2
  0
LAYER
  5
50
100
AcDbSymbolTableRecord
100
AcDbLayerTableRecord
  2
0
 70
0
  6
CONTINUOUS
  0
LAYER
  5
51
100
AcDbSymbolTableRecord
100
AcDbLayerTableRecord
  2
Livello_1
 70
0
  6
CONTINUOUS
  0
ENDTAB
  0
TABLE
  2
STYLE
  5
3
330
0
100
AcDbSymbolTable
 70
     1
  0
STYLE
  5
11
330
3
100
AcDbSymbolTableRecord
100
AcDbTextStyleTableRecord
  2
STANDARD
 70
     0
 40
0.0
 41
1.0
 50
0.0
 71
     0
 42
2.5
  3
txt
  4

  0
ENDTAB
  0
TABLE
  2
VIEW
  5
6
330
0
100
AcDbSymbolTable
 70
     0
  0
ENDTAB
  0
TABLE
  2
UCS
  5
7
330
0
100
AcDbSymbolTable
 70
     0
  0
ENDTAB
  0
TABLE
  2
APPID
  5
9
330
0
100
AcDbSymbolTable
 70
     2
  0
APPID
  5
12
330
9
100
AcDbSymbolTableRecord
100
AcDbRegAppTableRecord
  2
ACAD
 70
     0
  0
ENDTAB
  0
TABLE
  2
DIMSTYLE
  5
A
330
0
100
AcDbSymbolTable
 70
     1
  0
DIMSTYLE
105
27
330
A
100
AcDbSymbolTableRecord
100
AcDbDimStyleTableRecord
  2
ISO-25
 70
     0
  3

  4

  5

  6

  7

 40
1.0
 41
2.5
 42
0.625
 43
3.75
 44
1.25
 45
0.0
 46
0.0
 47
0.0
 48
0.0
140
2.5
141
2.5
142
0.0
143
0.03937007874016
144
1.0
145
0.0
146
1.0
147
0.625
 71
     0
 72
     0
 73
     0
 74
     0
 75
     0
 76
     0
 77
     1
 78
     8
170
     0
171
     3
172
     1
173
     0
174
     0
175
     0
176
     0
177
     0
178
     0
270
     2
271
     2
272
     2
273
     2
274
     3
340
11
275
     0
280
     0
281
     0
282
     0
283
     0
284
     8
285
     0
286
     0
287
     3
288
     0
  0
ENDTAB
  0
TABLE
  2
BLOCK_RECORD
  5
1
330
0
100
AcDbSymbolTable
 70
     1
  0
BLOCK_RECORD
  5
1F
330
1
100
AcDbSymbolTableRecord
100
AcDbBlockTableRecord
  2
*MODEL_SPACE
  0
BLOCK_RECORD
  5
1B
330
1
100
AcDbSymbolTableRecord
100
AcDbBlockTableRecord
  2
*PAPER_SPACE
  0
ENDTAB
  0
ENDSEC
  0
SECTION
  2
BLOCKS
  0
BLOCK
  5
20
330
1F
100
AcDbEntity
  8
0
100
AcDbBlockBegin
  2
*MODEL_SPACE
 70
     0
 10
0.0
 20
0.0
 30
0.0
  3
*MODEL_SPACE
  1

  0
ENDBLK
  5
21
330
1F
100
AcDbEntity
  8
0
100
AcDbBlockEnd
  0
BLOCK
  5
1C
330
1B
100
AcDbEntity
 67
     1
  8
0
100
AcDbBlockBegin
  2
*PAPER_SPACE
  1

  0
ENDBLK
  5
1D
330
1B
100
AcDbEntity
 67
     1
  8
0
100
AcDbBlockEnd
  0
ENDSEC
  0
SECTION
  2
ENTITIES
  0
LINE
  5
100
100
AcDbEntity
  8
Livello_1
 62
7
100
AcDbLine
 10
87.920480
 20
63.924790
 30
0.0
 11
132.920470
 21
63.924790
 31
0.0
  0
LINE
  5
101
100
AcDbEntity
  8
Livello_1
 62
7
100
AcDbLine
 10
147.920470
 20
148.924770
 30
0.0
 11
132.920470
 21
148.924770
 31
0.0
  0
LINE
  5
102
100
AcDbEntity
  8
Livello_1
 62
7
100
AcDbLine
 10
72.920460
 20
68.924770
 30
0.0
 11
87.920480
 21
68.924770
 31
0.0
  0
LINE
  5
103
100
AcDbEntity
  8
Livello_1
 62
7
100
AcDbLine
 10
87.920480
 20
68.924770
 30
0.0
 11
87.920480
 21
63.924790
 31
0.0
  0
LINE
  5
104
100
AcDbEntity
  8
Livello_1
 62
7
100
AcDbLine
 10
147.920470
 20
68.924770
 30
0.0
 11
147.920470
 21
83.924770
 31
0.0
  0
LINE
  5
105
100
AcDbEntity
  8
Livello_1
 62
7
100
AcDbLine
 10
147.920470
 20
83.924770
 30
0.0
 11
152.920460
 21
83.924770
 31
0.0
  0
LINE
  5
106
100
AcDbEntity
  8
Livello_1
 62
7
100
AcDbLine
 10
152.920460
 20
83.924770
 30
0.0
 11
152.920460
 21
133.924780
 31
0.0
  0
LINE
  5
107
100
AcDbEntity
  8
Livello_1
 62
7
100
AcDbLine
 10
152.920460
 20
133.924780
 30
0.0
 11
147.920470
 21
133.924780
 31
0.0
  0
LINE
  5
108
100
AcDbEntity
  8
Livello_1
 62
7
100
AcDbLine
 10
147.920470
 20
133.924780
 30
0.0
 11
147.920470
 21
148.924770
 31
0.0
  0
LINE
  5
109
100
AcDbEntity
  8
Livello_1
 62
7
100
AcDbLine
 10
72.920460
 20
68.924770
 30
0.0
 11
72.920460
 21
83.924770
 31
0.0
  0
LINE
  5
10a
100
AcDbEntity
  8
Livello_1
 62
7
100
AcDbLine
 10
72.920460
 20
83.924770
 30
0.0
 11
67.920470
 21
83.924770
 31
0.0
  0
LINE
  5
10b
100
AcDbEntity
  8
Livello_1
 62
7
100
AcDbLine
 10
67.920470
 20
83.924770
 30
0.0
 11
67.920470
 21
133.924780
 31
0.0
  0
LINE
  5
10c
100
AcDbEntity
  8
Livello_1
 62
7
100
AcDbLine
 10
67.920470
 20
133.924780
 30
0.0
 11
72.920460
 21
133.924780
 31
0.0
  0
LINE
  5
10d
100
AcDbEntity
  8
Livello_1
 62
7
100
AcDbLine
 10
72.920460
 20
133.924780
 30
0.0
 11
72.920460
 21
148.924770
 31
0.0
  0
LINE
  5
10e
100
AcDbEntity
  8
Livello_1
 62
7
100
AcDbLine
 10
132.920470
 20
153.924760
 30
0.0
 11
132.920470
 21
148.924770
 31
0.0
  0
LINE
  5
10f
100
AcDbEntity
  8
Livello_1
 62
7
100
AcDbLine
 10
132.920470
 20
153.924760
 30
0.0
 11
87.920480
 21
153.924760
 31
0.0
  0
LINE
  5
110
100
AcDbEntity
  8
Livello_1
 62
7
100
AcDbLine
 10
87.920480
 20
153.924760
 30
0.0
 11
87.920480
 21
148.924770
 31
0.0
  0
LINE
  5
111
100
AcDbEntity
  8
Livello_1
 62
7
100
AcDbLine
 10
87.920480
 20
148.924770
 30
0.0
 11
72.920460
 21
148.924770
 31
0.0
  0
LINE
  5
112
100
AcDbEntity
  8
Livello_1
 62
7
100
AcDbLine
 10
132.920470
 20
63.924790
 30
0.0
 11
132.920470
 21
68.924770
 31
0.0
  0
LINE
  5
113
100
AcDbEntity
  8
Livello_1
 62
7
100
AcDbLine
 10
132.920470
 20
68.924770
 30
0.0
 11
147.920470
 21
68.924770
 31
0.0
  0
LINE
  5
114
100
AcDbEntity
  8
Livello_1
 62
7
100
AcDbLine
 10
75.774653
 20
108.924770
 30
0.0
 11
75.774653
 21
143.570410
 31
0.0
  0
LINE
  5
115
100
AcDbEntity
  8
Livello_1
 62
7
100
AcDbLine
 10
75.774653
 20
143.570410
 30
0.0
 11
110.420280
 21
143.570410
 31
0.0
  0
LINE
  5
116
100
AcDbEntity
  8
Livello_1
 62
7
100
AcDbLine
 10
110.420280
 20
143.570410
 30
0.0
 11
145.065920
 21
143.570410
 31
0.0
  0
LINE
  5
117
100
AcDbEntity
  8
Livello_1
 62
7
100
AcDbLine
 10
145.065920
 20
143.570410
 30
0.0
 11
145.065920
 21
108.924770
 31
0.0
  0
LINE
  5
118
100
AcDbEntity
  8
Livello_1
 62
7
100
AcDbLine
 10
145.065920
 20
108.924770
 30
0.0
 11
145.065920
 21
74.279140
 31
0.0
  0
LINE
  5
119
100
AcDbEntity
  8
Livello_1
 62
7
100
AcDbLine
 10
145.065920
 20
74.279140
 30
0.0
 11
110.420280
 21
74.279140
 31
0.0
  0
LINE
  5
11a
100
AcDbEntity
  8
Livello_1
 62
7
100
AcDbLine
 10
110.420280
 20
74.279140
 30
0.0
 11
75.774653
 21
74.279140
 31
0.0
  0
LINE
  5
11b
100
AcDbEntity
  8
Livello_1
 62
7
100
AcDbLine
 10
75.774653
 20
74.279140
 30
0.0
 11
75.774653
 21
108.924770
 31
0.0
  0
SPLINE
  5
11c
100
AcDbEntity
  8
Livello_1
 62
7
100
AcDbSpline
 70
8
 71
3
 72
8
 73
4
 74
0
 40
0
 40
0
 40
0
 40
0
 40
1
 40
1
 40
1
 40
1
 10
83.569903
 20
75.145280
 30
0.0
 10
84.006793
 20
75.582160
 30
0.0
 10
84.030073
 20
75.653990
 30
0.0
 10
84.030073
 20
76.566300
 30
0.0
  0
LINE
  5
11d
100
AcDbEntity
  8
Livello_1
 62
7
100
AcDbLine
 10
84.030073
 20
76.566300
 30
0.0
 11
84.030073
 21
77.527160
 31
0.0
  0
LINE
  5
11e
100
AcDbEntity
  8
Livello_1
 62
7
100
AcDbLine
 10
84.030073
 20
77.527160
 30
0.0
 11
80.105353
 21
77.527160
 31
0.0
  0
LINE
  5
11f
100
AcDbEntity
  8
Livello_1
 62
7
100
AcDbLine
 10
80.105353
 20
77.527160
 30
0.0
 11
76.180653
 21
77.527160
 31
0.0
  0
LINE
  5
120
100
AcDbEntity
  8
Livello_1
 62
7
100
AcDbLine
 10
76.180653
 20
77.527160
 30
0.0
 11
76.180653
 21
76.566300
 31
0.0
  0
SPLINE
  5
121
100
AcDbEntity
  8
Livello_1
 62
7
100
AcDbSpline
 70
8
 71
3
 72
8
 73
4
 74
0
 40
0
 40
0
 40
0
 40
0
 40
1
 40
1
 40
1
 40
1
 10
76.180653
 20
76.566300
 30
0.0
 10
76.180653
 20
75.653990
 30
0.0
 10
76.203953
 20
75.582160
 30
0.0
 10
76.640793
 20
75.145280
 30
0.0
  0
LINE
  5
122
100
AcDbEntity
  8
Livello_1
 62
7
100
AcDbLine
 10
76.640793
 20
75.145280
 30
0.0
 11
77.100933
 21
74.685140
 31
0.0
  0
LINE
  5
123
100
AcDbEntity
  8
Livello_1
 62
7
100
AcDbLine
 10
77.100933
 20
74.685140
 30
0.0
 11
80.105353
 21
74.685140
 31
0.0
  0
LINE
  5
124
100
AcDbEntity
  8
Livello_1
 62
7
100
AcDbLine
 10
80.105353
 20
74.685140
 30
0.0
 11
83.109783
 21
74.685140
 31
0.0
  0
LINE
  5
125
100
AcDbEntity
  8
Livello_1
 62
7
100
AcDbLine
 10
83.109783
 20
74.685140
 30
0.0
 11
83.569903
 21
75.145280
 31
0.0
  0
SPLINE
  5
126
100
AcDbEntity
  8
Livello_1
 62
7
100
AcDbSpline
 70
8
 71
3
 72
8
 73
4
 74
0
 40
0
 40
0
 40
0
 40
0
 40
1
 40
1
 40
1
 40
1
 10
92.231323
 20
75.145280
 30
0.0
 10
92.668203
 20
75.582160
 30
0.0
 10
92.691463
 20
75.653990
 30
0.0
 10
92.691463
 20
76.566300
 30
0.0
  0
LINE
  5
127
100
AcDbEntity
  8
Livello_1
 62
7
100
AcDbLine
 10
92.691463
 20
76.566300
 30
0.0
 11
92.691463
 21
77.527160
 31
0.0
  0
LINE
  5
128
100
AcDbEntity
  8
Livello_1
 62
7
100
AcDbLine
 10
92.691463
 20
77.527160
 30
0.0
 11
88.766763
 21
77.527160
 31
0.0
  0
LINE
  5
129
100
AcDbEntity
  8
Livello_1
 62
7
100
AcDbLine
 10
88.766763
 20
77.527160
 30
0.0
 11
84.842063
 21
77.527160
 31
0.0
  0
LINE
  5
12a
100
AcDbEntity
  8
Livello_1
 62
7
100
AcDbLine
 10
84.842063
 20
77.527160
 30
0.0
 11
84.842063
 21
76.566300
 31
0.0
  0
SPLINE
  5
12b
100
AcDbEntity
  8
Livello_1
 62
7
100
AcDbSpline
 70
8
 71
3
 72
8
 73
4
 74
0
 40
0
 40
0
 40
0
 40
0
 40
1
 40
1
 40
1
 40
1
 10
84.842063
 20
76.566300
 30
0.0
 10
84.842063
 20
75.653990
 30
0.0
 10
84.865363
 20
75.582160
 30
0.0
 10
85.302203
 20
75.145280
 30
0.0
  0
LINE
  5
12c
100
AcDbEntity
  8
Livello_1
 62
7
100
AcDbLine
 10
85.302203
 20
75.145280
 30
0.0
 11
85.762323
 21
74.685140
 31
0.0
  0
LINE
  5
12d
100
AcDbEntity
  8
Livello_1
 62
7
100
AcDbLine
 10
85.762323
 20
74.685140
 30
0.0
 11
88.766763
 21
74.685140
 31
0.0
  0
LINE
  5
12e
100
AcDbEntity
  8
Livello_1
 62
7
100
AcDbLine
 10
88.766763
 20
74.685140
 30
0.0
 11
91.771183
 21
74.685140
 31
0.0
  0
LINE
  5
12f
100
AcDbEntity
  8
Livello_1
 62
7
100
AcDbLine
 10
91.771183
 20
74.685140
 30
0.0
 11
92.231323
 21
75.145280
 31
0.0
  0
SPLINE
  5
130
100
AcDbEntity
  8
Livello_1
 62
7
100
AcDbSpline
 70
8
 71
3
 72
8
 73
4
 74
0
 40
0
 40
0
 40
0
 40
0
 40
1
 40
1
 40
1
 40
1
 10
100.892730
 20
75.145280
 30
0.0
 10
101.329620
 20
75.582160
 30
0.0
 10
101.352870
 20
75.653990
 30
0.0
 10
101.352870
 20
76.566300
 30
0.0
  0
LINE
  5
131
100
AcDbEntity
  8
Livello_1
 62
7
100
AcDbLine
 10
101.352870
 20
76.566300
 30
0.0
 11
101.352870
 21
77.527160
 31
0.0
  0
LINE
  5
132
100
AcDbEntity
  8
Livello_1
 62
7
100
AcDbLine
 10
101.352870
 20
77.527160
 30
0.0
 11
97.428173
 21
77.527160
 31
0.0
  0
LINE
  5
133
100
AcDbEntity
  8
Livello_1
 62
7
100
AcDbLine
 10
97.428173
 20
77.527160
 30
0.0
 11
93.503483
 21
77.527160
 31
0.0
  0
LINE
  5
134
100
AcDbEntity
  8
Livello_1
 62
7
100
AcDbLine
 10
93.503483
 20
77.527160
 30
0.0
 11
93.503483
 21
76.566300
 31
0.0
  0
SPLINE
  5
135
100
AcDbEntity
  8
Livello_1
 62
7
100
AcDbSpline
 70
8
 71
3
 72
8
 73
4
 74
0
 40
0
 40
0
 40
0
 40
0
 40
1
 40
1
 40
1
 40
1
 10
93.503483
 20
76.566300
 30
0.0
 10
93.503483
 20
75.653990
 30
0.0
 10
93.526783
 20
75.582160
 30
0.0
 10
93.963623
 20
75.145280
 30
0.0
  0
LINE
  5
136
100
AcDbEntity
  8
Livello_1
 62
7
100
AcDbLine
 10
93.963623
 20
75.145280
 30
0.0
 11
94.423763
 21
74.685140
 31
0.0
  0
LINE
  5
137
100
AcDbEntity
  8
Livello_1
 62
7
100
AcDbLine
 10
94.423763
 20
74.685140
 30
0.0
 11
97.428173
 21
74.685140
 31
0.0
  0
LINE
  5
138
100
AcDbEntity
  8
Livello_1
 62
7
100
AcDbLine
 10
97.428173
 20
74.685140
 30
0.0
 11
100.432590
 21
74.685140
 31
0.0
  0
LINE
  5
139
100
AcDbEntity
  8
Livello_1
 62
7
100
AcDbLine
 10
100.432590
 20
74.685140
 30
0.0
 11
100.892730
 21
75.145280
 31
0.0
  0
SPLINE
  5
13a
100
AcDbEntity
  8
Livello_1
 62
7
100
AcDbSpline
 70
8
 71
3
 72
8
 73
4
 74
0
 40
0
 40
0
 40
0
 40
0
 40
1
 40
1
 40
1
 40
1
 10
109.554150
 20
75.145280
 30
0.0
 10
109.991030
 20
75.582160
 30
0.0
 10
110.014290
 20
75.653990
 30
0.0
 10
110.014290
 20
76.566300
 30
0.0
  0
LINE
  5
13b
100
AcDbEntity
  8
Livello_1
 62
7
100
AcDbLine
 10
110.014290
 20
76.566300
 30
0.0
 11
110.014290
 21
77.527160
 31
0.0
  0
LINE
  5
13c
100
AcDbEntity
  8
Livello_1
 62
7
100
AcDbLine
 10
110.014290
 20
77.527160
 30
0.0
 11
106.089590
 21
77.527160
 31
0.0
  0
LINE
  5
13d
100
AcDbEntity
  8
Livello_1
 62
7
100
AcDbLine
 10
106.089590
 20
77.527160
 30
0.0
 11
102.164890
 21
77.527160
 31
0.0
  0
LINE
  5
13e
100
AcDbEntity
  8
Livello_1
 62
7
100
AcDbLine
 10
102.164890
 20
77.527160
 30
0.0
 11
102.164890
 21
76.566300
 31
0.0
  0
SPLINE
  5
13f
100
AcDbEntity
  8
Livello_1
 62
7
100
AcDbSpline
 70
8
 71
3
 72
8
 73
4
 74
0
 40
0
 40
0
 40
0
 40
0
 40
1
 40
1
 40
1
 40
1
 10
102.164890
 20
76.566300
 30
0.0
 10
102.164890
 20
75.653990
 30
0.0
 10
102.188190
 20
75.582160
 30
0.0
 10
102.625030
 20
75.145280
 30
0.0
  0
LINE
  5
140
100
AcDbEntity
  8
Livello_1
 62
7
100
AcDbLine
 10
102.625030
 20
75.145280
 30
0.0
 11
103.085150
 21
74.685140
 31
0.0
  0
LINE
  5
141
100
AcDbEntity
  8
Livello_1
 62
7
100
AcDbLine
 10
103.085150
 20
74.685140
 30
0.0
 11
106.089590
 21
74.685140
 31
0.0
  0
LINE
  5
142
100
AcDbEntity
  8
Livello_1
 62
7
100
AcDbLine
 10
106.089590
 20
74.685140
 30
0.0
 11
109.094000
 21
74.685140
 31
0.0
  0
LINE
  5
143
100
AcDbEntity
  8
Livello_1
 62
7
100
AcDbLine
 10
109.094000
 20
74.685140
 30
0.0
 11
109.554150
 21
75.145280
 31
0.0
  0
SPLINE
  5
144
100
AcDbEntity
  8
Livello_1
 62
7
100
AcDbSpline
 70
8
 71
3
 72
8
 73
4
 74
0
 40
0
 40
0
 40
0
 40
0
 40
1
 40
1
 40
1
 40
1
 10
118.215560
 20
75.145280
 30
0.0
 10
118.652440
 20
75.582160
 30
0.0
 10
118.675680
 20
75.653990
 30
0.0
 10
118.675680
 20
76.566300
 30
0.0
  0
LINE
  5
145
100
AcDbEntity
  8
Livello_1
 62
7
100
AcDbLine
 10
118.675680
 20
76.566300
 30
0.0
 11
118.675680
 21
77.527160
 31
0.0
  0
LINE
  5
146
100
AcDbEntity
  8
Livello_1
 62
7
100
AcDbLine
 10
118.675680
 20
77.527160
 30
0.0
 11
114.751000
 21
77.527160
 31
0.0
  0
LINE
  5
147
100
AcDbEntity
  8
Livello_1
 62
7
100
AcDbLine
 10
114.751000
 20
77.527160
 30
0.0
 11
110.826300
 21
77.527160
 31
0.0
  0
LINE
  5
148
100
AcDbEntity
  8
Livello_1
 62
7
100
AcDbLine
 10
110.826300
 20
77.527160
 30
0.0
 11
110.826300
 21
76.566300
 31
0.0
  0
SPLINE
  5
149
100
AcDbEntity
  8
Livello_1
 62
7
100
AcDbSpline
 70
8
 71
3
 72
8
 73
4
 74
0
 40
0
 40
0
 40
0
 40
0
 40
1
 40
1
 40
1
 40
1
 10
110.826300
 20
76.566300
 30
0.0
 10
110.826300
 20
75.653990
 30
0.0
 10
110.849600
 20
75.582160
 30
0.0
 10
111.286420
 20
75.145280
 30
0.0
  0
LINE
  5
14a
100
AcDbEntity
  8
Livello_1
 62
7
100
AcDbLine
 10
111.286420
 20
75.145280
 30
0.0
 11
111.746570
 21
74.685140
 31
0.0
  0
LINE
  5
14b
100
AcDbEntity
  8
Livello_1
 62
7
100
AcDbLine
 10
111.746570
 20
74.685140
 30
0.0
 11
114.751000
 21
74.685140
 31
0.0
  0
LINE
  5
14c
100
AcDbEntity
  8
Livello_1
 62
7
100
AcDbLine
 10
114.751000
 20
74.685140
 30
0.0
 11
117.755420
 21
74.685140
 31
0.0
  0
LINE
  5
14d
100
AcDbEntity
  8
Livello_1
 62
7
100
AcDbLine
 10
117.755420
 20
74.685140
 30
0.0
 11
118.215560
 21
75.145280
 31
0.0
  0
SPLINE
  5
14e
100
AcDbEntity
  8
Livello_1
 62
7
100
AcDbSpline
 70
8
 71
3
 72
8
 73
4
 74
0
 40
0
 40
0
 40
0
 40
0
 40
1
 40
1
 40
1
 40
1
 10
126.876970
 20
75.145280
 30
0.0
 10
127.313860
 20
75.582160
 30
0.0
 10
127.337120
 20
75.653990
 30
0.0
 10
127.337120
 20
76.566300
 30
0.0
  0
LINE
  5
14f
100
AcDbEntity
  8
Livello_1
 62
7
100
AcDbLine
 10
127.337120
 20
76.566300
 30
0.0
 11
127.337120
 21
77.527160
 31
0.0
  0
LINE
  5
150
100
AcDbEntity
  8
Livello_1
 62
7
100
AcDbLine
 10
127.337120
 20
77.527160
 30
0.0
 11
123.412390
 21
77.527160
 31
0.0
  0
LINE
  5
151
100
AcDbEntity
  8
Livello_1
 62
7
100
AcDbLine
 10
123.412390
 20
77.527160
 30
0.0
 11
119.487700
 21
77.527160
 31
0.0
  0
LINE
  5
152
100
AcDbEntity
  8
Livello_1
 62
7
100
AcDbLine
 10
119.487700
 20
77.527160
 30
0.0
 11
119.487700
 21
76.566300
 31
0.0
  0
SPLINE
  5
153
100
AcDbEntity
  8
Livello_1
 62
7
100
AcDbSpline
 70
8
 71
3
 72
8
 73
4
 74
0
 40
0
 40
0
 40
0
 40
0
 40
1
 40
1
 40
1
 40
1
 10
119.487700
 20
76.566300
 30
0.0
 10
119.487700
 20
75.653990
 30
0.0
 10
119.511000
 20
75.582160
 30
0.0
 10
119.947840
 20
75.145280
 30
0.0
  0
LINE
  5
154
100
AcDbEntity
  8
Livello_1
 62
7
100
AcDbLine
 10
119.947840
 20
75.145280
 30
0.0
 11
120.407980
 21
74.685140
 31
0.0
  0
LINE
  5
155
100
AcDbEntity
  8
Livello_1
 62
7
100
AcDbLine
 10
120.407980
 20
74.685140
 30
0.0
 11
123.412390
 21
74.685140
 31
0.0
  0
LINE
  5
156
100
AcDbEntity
  8
Livello_1
 62
7
100
AcDbLine
 10
123.412390
 20
74.685140
 30
0.0
 11
126.416810
 21
74.685140
 31
0.0
  0
LINE
  5
157
100
AcDbEntity
  8
Livello_1
 62
7
100
AcDbLine
 10
126.416810
 20
74.685140
 30
0.0
 11
126.876970
 21
75.145280
 31
0.0
  0
SPLINE
  5
158
100
AcDbEntity
  8
Livello_1
 62
7
100
AcDbSpline
 70
8
 71
3
 72
8
 73
4
 74
0
 40
0
 40
0
 40
0
 40
0
 40
1
 40
1
 40
1
 40
1
 10
135.538390
 20
75.145280
 30
0.0
 10
135.975270
 20
75.582160
 30
0.0
 10
135.998510
 20
75.653990
 30
0.0
 10
135.998510
 20
76.566300
 30
0.0
  0
LINE
  5
159
100
AcDbEntity
  8
Livello_1
 62
7
100
AcDbLine
 10
135.998510
 20
76.566300
 30
0.0
 11
135.998510
 21
77.527160
 31
0.0
  0
LINE
  5
15a
100
AcDbEntity
  8
Livello_1
 62
7
100
AcDbLine
 10
135.998510
 20
77.527160
 30
0.0
 11
132.073830
 21
77.527160
 31
0.0
  0
LINE
  5
15b
100
AcDbEntity
  8
Livello_1
 62
7
100
AcDbLine
 10
132.073830
 20
77.527160
 30
0.0
 11
128.149110
 21
77.527160
 31
0.0
  0
LINE
  5
15c
100
AcDbEntity
  8
Livello_1
 62
7
100
AcDbLine
 10
128.149110
 20
77.527160
 30
0.0
 11
128.149110
 21
76.566300
 31
0.0
  0
SPLINE
  5
15d
100
AcDbEntity
  8
Livello_1
 62
7
100
AcDbSpline
 70
8
 71
3
 72
8
 73
4
 74
0
 40
0
 40
0
 40
0
 40
0
 40
1
 40
1
 40
1
 40
1
 10
128.149110
 20
76.566300
 30
0.0
 10
128.149110
 20
75.653990
 30
0.0
 10
128.172410
 20
75.582160
 30
0.0
 10
128.609250
 20
75.145280
 30
0.0
  0
LINE
  5
15e
100
AcDbEntity
  8
Livello_1
 62
7
100
AcDbLine
 10
128.609250
 20
75.145280
 30
0.0
 11
129.069390
 21
74.685140
 31
0.0
  0
LINE
  5
15f
100
AcDbEntity
  8
Livello_1
 62
7
100
AcDbLine
 10
129.069390
 20
74.685140
 30
0.0
 11
132.073810
 21
74.685140
 31
0.0
  0
LINE
  5
160
100
AcDbEntity
  8
Livello_1
 62
7
100
AcDbLine
 10
132.073810
 20
74.685140
 30
0.0
 11
135.078220
 21
74.685140
 31
0.0
  0
LINE
  5
161
100
AcDbEntity
  8
Livello_1
 62
7
100
AcDbLine
 10
135.078220
 20
74.685140
 30
0.0
 11
135.538390
 21
75.145280
 31
0.0
  0
SPLINE
  5
162
100
AcDbEntity
  8
Livello_1
 62
7
100
AcDbSpline
 70
8
 71
3
 72
8
 73
4
 74
0
 40
0
 40
0
 40
0
 40
0
 40
1
 40
1
 40
1
 40
1
 10
144.199780
 20
75.145280
 30
0.0
 10
144.636670
 20
75.582160
 30
0.0
 10
144.659920
 20
75.653990
 30
0.0
 10
144.659920
 20
76.566300
 30
0.0
  0
LINE
  5
163
100
AcDbEntity
  8
Livello_1
 62
7
100
AcDbLine
 10
144.659920
 20
76.566300
 30
0.0
 11
144.659920
 21
77.527160
 31
0.0
  0
LINE
  5
164
100
AcDbEntity
  8
Livello_1
 62
7
100
AcDbLine
 10
144.659920
 20
77.527160
 30
0.0
 11
140.735220
 21
77.527160
 31
0.0
  0
LINE
  5
165
100
AcDbEntity
  8
Livello_1
 62
7
100
AcDbLine
 10
140.735220
 20
77.527160
 30
0.0
 11
136.810520
 21
77.527160
 31
0.0
  0
LINE
  5
166
100
AcDbEntity
  8
Livello_1
 62
7
100
AcDbLine
 10
136.810520
 20
77.527160
 30
0.0
 11
136.810520
 21
76.566300
 31
0.0
  0
SPLINE
  5
167
100
AcDbEntity
  8
Livello_1
 62
7
100
AcDbSpline
 70
8
 71
3
 72
8
 73
4
 74
0
 40
0
 40
0
 40
0
 40
0
 40
1
 40
1
 40
1
 40
1
 10
136.810520
 20
76.566300
 30
0.0
 10
136.810520
 20
75.653990
 30
0.0
 10
136.833820
 20
75.582160
 30
0.0
 10
137.270670
 20
75.145280
 30
0.0
  0
LINE
  5
168
100
AcDbEntity
  8
Livello_1
 62
7
100
AcDbLine
 10
137.270670
 20
75.145280
 30
0.0
 11
137.730810
 21
74.685140
 31
0.0
  0
LINE
  5
169
100
AcDbEntity
  8
Livello_1
 62
7
100
AcDbLine
 10
137.730810
 20
74.685140
 30
0.0
 11
140.735220
 21
74.685140
 31
0.0
  0
LINE
  5
16a
100
AcDbEntity
  8
Livello_1
 62
7
100
AcDbLine
 10
140.735220
 20
74.685140
 30
0.0
 11
143.739660
 21
74.685140
 31
0.0
  0
LINE
  5
16b
100
AcDbEntity
  8
Livello_1
 62
7
100
AcDbLine
 10
143.739660
 20
74.685140
 30
0.0
 11
144.199780
 21
75.145280
 31
0.0
  0
LINE
  5
16c
100
AcDbEntity
  8
Livello_1
 62
7
100
AcDbLine
 10
84.030073
 20
82.940550
 30
0.0
 11
84.030073
 21
87.947930
 31
0.0
  0
LINE
  5
16d
100
AcDbEntity
  8
Livello_1
 62
7
100
AcDbLine
 10
84.030073
 20
87.947930
 30
0.0
 11
80.105373
 21
87.947930
 31
0.0
  0
LINE
  5
16e
100
AcDbEntity
  8
Livello_1
 62
7
100
AcDbLine
 10
80.105373
 20
87.947930
 30
0.0
 11
76.180653
 21
87.947930
 31
0.0
  0
LINE
  5
16f
100
AcDbEntity
  8
Livello_1
 62
7
100
AcDbLine
 10
76.180653
 20
87.947930
 30
0.0
 11
76.180653
 21
82.940550
 31
0.0
  0
LINE
  5
170
100
AcDbEntity
  8
Livello_1
 62
7
100
AcDbLine
 10
76.180653
 20
82.940550
 30
0.0
 11
76.180653
 21
77.933180
 31
0.0
  0
LINE
  5
171
100
AcDbEntity
  8
Livello_1
 62
7
100
AcDbLine
 10
76.180653
 20
77.933180
 30
0.0
 11
80.105373
 21
77.933180
 31
0.0
  0
LINE
  5
172
100
AcDbEntity
  8
Livello_1
 62
7
100
AcDbLine
 10
80.105373
 20
77.933180
 30
0.0
 11
84.030073
 21
77.933180
 31
0.0
  0
LINE
  5
173
100
AcDbEntity
  8
Livello_1
 62
7
100
AcDbLine
 10
84.030073
 20
77.933180
 30
0.0
 11
84.030073
 21
82.940550
 31
0.0
  0
LINE
  5
174
100
AcDbEntity
  8
Livello_1
 62
7
100
AcDbLine
 10
92.691463
 20
82.940550
 30
0.0
 11
92.691463
 21
87.947930
 31
0.0
  0
LINE
  5
175
100
AcDbEntity
  8
Livello_1
 62
7
100
AcDbLine
 10
92.691463
 20
87.947930
 30
0.0
 11
88.766763
 21
87.947930
 31
0.0
  0
LINE
  5
176
100
AcDbEntity
  8
Livello_1
 62
7
100
AcDbLine
 10
88.766763
 20
87.947930
 30
0.0
 11
84.842063
 21
87.947930
 31
0.0
  0
LINE
  5
177
100
AcDbEntity
  8
Livello_1
 62
7
100
AcDbLine
 10
84.842063
 20
87.947930
 30
0.0
 11
84.842063
 21
82.940550
 31
0.0
  0
LINE
  5
178
100
AcDbEntity
  8
Livello_1
 62
7
100
AcDbLine
 10
84.842063
 20
82.940550
 30
0.0
 11
84.842063
 21
77.933180
 31
0.0
  0
LINE
  5
179
100
AcDbEntity
  8
Livello_1
 62
7
100
AcDbLine
 10
84.842063
 20
77.933180
 30
0.0
 11
88.766763
 21
77.933180
 31
0.0
  0
LINE
  5
17a
100
AcDbEntity
  8
Livello_1
 62
7
100
AcDbLine
 10
88.766763
 20
77.933180
 30
0.0
 11
92.691463
 21
77.933180
 31
0.0
  0
LINE
  5
17b
100
AcDbEntity
  8
Livello_1
 62
7
100
AcDbLine
 10
92.691463
 20
77.933180
 30
0.0
 11
92.691463
 21
82.940550
 31
0.0
  0
LINE
  5
17c
100
AcDbEntity
  8
Livello_1
 62
7
100
AcDbLine
 10
101.352870
 20
82.940550
 30
0.0
 11
101.352870
 21
87.947930
 31
0.0
  0
LINE
  5
17d
100
AcDbEntity
  8
Livello_1
 62
7
100
AcDbLine
 10
101.352870
 20
87.947930
 30
0.0
 11
97.428173
 21
87.947930
 31
0.0
  0
LINE
  5
17e
100
AcDbEntity
  8
Livello_1
 62
7
100
AcDbLine
 10
97.428173
 20
87.947930
 30
0.0
 11
93.503483
 21
87.947930
 31
0.0
  0
LINE
  5
17f
100
AcDbEntity
  8
Livello_1
 62
7
100
AcDbLine
 10
93.503483
 20
87.947930
 30
0.0
 11
93.503483
 21
82.940550
 31
0.0
  0
LINE
  5
180
100
AcDbEntity
  8
Livello_1
 62
7
100
AcDbLine
 10
93.503483
 20
82.940550
 30
0.0
 11
93.503483
 21
77.933180
 31
0.0
  0
LINE
  5
181
100
AcDbEntity
  8
Livello_1
 62
7
100
AcDbLine
 10
93.503483
 20
77.933180
 30
0.0
 11
97.428173
 21
77.933180
 31
0.0
  0
LINE
  5
182
100
AcDbEntity
  8
Livello_1
 62
7
100
AcDbLine
 10
97.428173
 20
77.933180
 30
0.0
 11
101.352870
 21
77.933180
 31
0.0
  0
LINE
  5
183
100
AcDbEntity
  8
Livello_1
 62
7
100
AcDbLine
 10
101.352870
 20
77.933180
 30
0.0
 11
101.352870
 21
82.940550
 31
0.0
  0
LINE
  5
184
100
AcDbEntity
  8
Livello_1
 62
7
100
AcDbLine
 10
110.014290
 20
82.940550
 30
0.0
 11
110.014290
 21
87.947930
 31
0.0
  0
LINE
  5
185
100
AcDbEntity
  8
Livello_1
 62
7
100
AcDbLine
 10
110.014290
 20
87.947930
 30
0.0
 11
106.089590
 21
87.947930
 31
0.0
  0
LINE
  5
186
100
AcDbEntity
  8
Livello_1
 62
7
100
AcDbLine
 10
106.089590
 20
87.947930
 30
0.0
 11
102.164890
 21
87.947930
 31
0.0
  0
LINE
  5
187
100
AcDbEntity
  8
Livello_1
 62
7
100
AcDbLine
 10
102.164890
 20
87.947930
 30
0.0
 11
102.164890
 21
82.940550
 31
0.0
  0
LINE
  5
188
100
AcDbEntity
  8
Livello_1
 62
7
100
AcDbLine
 10
102.164890
 20
82.940550
 30
0.0
 11
102.164890
 21
77.933180
 31
0.0
  0
LINE
  5
189
100
AcDbEntity
  8
Livello_1
 62
7
100
AcDbLine
 10
102.164890
 20
77.933180
 30
0.0
 11
106.089590
 21
77.933180
 31
0.0
  0
LINE
  5
18a
100
AcDbEntity
  8
Livello_1
 62
7
100
AcDbLine
 10
106.089590
 20
77.933180
 30
0.0
 11
110.014290
 21
77.933180
 31
0.0
  0
LINE
  5
18b
100
AcDbEntity
  8
Livello_1
 62
7
100
AcDbLine
 10
110.014290
 20
77.933180
 30
0.0
 11
110.014290
 21
82.940550
 31
0.0
  0
LINE
  5
18c
100
AcDbEntity
  8
Livello_1
 62
7
100
AcDbLine
 10
118.675700
 20
82.940550
 30
0.0
 11
118.675700
 21
87.947930
 31
0.0
  0
LINE
  5
18d
100
AcDbEntity
  8
Livello_1
 62
7
100
AcDbLine
 10
118.675700
 20
87.947930
 30
0.0
 11
114.751000
 21
87.947930
 31
0.0
  0
LINE
  5
18e
100
AcDbEntity
  8
Livello_1
 62
7
100
AcDbLine
 10
114.751000
 20
87.947930
 30
0.0
 11
110.826300
 21
87.947930
 31
0.0
  0
LINE
  5
18f
100
AcDbEntity
  8
Livello_1
 62
7
100
AcDbLine
 10
110.826300
 20
87.947930
 30
0.0
 11
110.826300
 21
82.940550
 31
0.0
  0
LINE
  5
190
100
AcDbEntity
  8
Livello_1
 62
7
100
AcDbLine
 10
110.826300
 20
82.940550
 30
0.0
 11
110.826300
 21
77.933180
 31
0.0
  0
LINE
  5
191
100
AcDbEntity
  8
Livello_1
 62
7
100
AcDbLine
 10
110.826300
 20
77.933180
 30
0.0
 11
114.751000
 21
77.933180
 31
0.0
  0
LINE
  5
192
100
AcDbEntity
  8
Livello_1
 62
7
100
AcDbLine
 10
114.751000
 20
77.933180
 30
0.0
 11
118.675700
 21
77.933180
 31
0.0
  0
LINE
  5
193
100
AcDbEntity
  8
Livello_1
 62
7
100
AcDbLine
 10
118.675700
 20
77.933180
 30
0.0
 11
118.675700
 21
82.940550
 31
0.0
  0
LINE
  5
194
100
AcDbEntity
  8
Livello_1
 62
7
100
AcDbLine
 10
127.337120
 20
82.940550
 30
0.0
 11
127.337120
 21
87.947930
 31
0.0
  0
LINE
  5
195
100
AcDbEntity
  8
Livello_1
 62
7
100
AcDbLine
 10
127.337120
 20
87.947930
 30
0.0
 11
123.412390
 21
87.947930
 31
0.0
  0
LINE
  5
196
100
AcDbEntity
  8
Livello_1
 62
7
100
AcDbLine
 10
123.412390
 20
87.947930
 30
0.0
 11
119.487720
 21
87.947930
 31
0.0
  0
LINE
  5
197
100
AcDbEntity
  8
Livello_1
 62
7
100
AcDbLine
 10
119.487720
 20
87.947930
 30
0.0
 11
119.487720
 21
82.940550
 31
0.0
  0
LINE
  5
198
100
AcDbEntity
  8
Livello_1
 62
7
100
AcDbLine
 10
119.487720
 20
82.940550
 30
0.0
 11
119.487720
 21
77.933180
 31
0.0
  0
LINE
  5
199
100
AcDbEntity
  8
Livello_1
 62
7
100
AcDbLine
 10
119.487720
 20
77.933180
 30
0.0
 11
123.412390
 21
77.933180
 31
0.0
  0
LINE
  5
19a
100
AcDbEntity
  8
Livello_1
 62
7
100
AcDbLine
 10
123.412390
 20
77.933180
 30
0.0
 11
127.337120
 21
77.933180
 31
0.0
  0
LINE
  5
19b
100
AcDbEntity
  8
Livello_1
 62
7
100
AcDbLine
 10
127.337120
 20
77.933180
 30
0.0
 11
127.337120
 21
82.940550
 31
0.0
  0
LINE
  5
19c
100
AcDbEntity
  8
Livello_1
 62
7
100
AcDbLine
 10
135.998510
 20
82.940550
 30
0.0
 11
135.998510
 21
87.947930
 31
0.0
  0
LINE
  5
19d
100
AcDbEntity
  8
Livello_1
 62
7
100
AcDbLine
 10
135.998510
 20
87.947930
 30
0.0
 11
132.073830
 21
87.947930
 31
0.0
  0
LINE
  5
19e
100
AcDbEntity
  8
Livello_1
 62
7
100
AcDbLine
 10
132.073830
 20
87.947930
 30
0.0
 11
128.149110
 21
87.947930
 31
0.0
  0
LINE
  5
19f
100
AcDbEntity
  8
Livello_1
 62
7
100
AcDbLine
 10
128.149110
 20
87.947930
 30
0.0
 11
128.149110
 21
82.940550
 31
0.0
  0
LINE
  5
1a0
100
AcDbEntity
  8
Livello_1
 62
7
100
AcDbLine
 10
128.149110
 20
82.940550
 30
0.0
 11
128.149110
 21
77.933180
 31
0.0
  0
LINE
  5
1a1
100
AcDbEntity
  8
Livello_1
 62
7
100
AcDbLine
 10
128.149110
 20
77.933180
 30
0.0
 11
132.073830
 21
77.933180
 31
0.0
  0
LINE
  5
1a2
100
AcDbEntity
  8
Livello_1
 62
7
100
AcDbLine
 10
132.073830
 20
77.933180
 30
0.0
 11
135.998510
 21
77.933180
 31
0.0
  0
LINE
  5
1a3
100
AcDbEntity
  8
Livello_1
 62
7
100
AcDbLine
 10
135.998510
 20
77.933180
 30
0.0
 11
135.998510
 21
82.940550
 31
0.0
  0
LINE
  5
1a4
100
AcDbEntity
  8
Livello_1
 62
7
100
AcDbLine
 10
144.659920
 20
82.940550
 30
0.0
 11
144.659920
 21
87.947930
 31
0.0
  0
LINE
  5
1a5
100
AcDbEntity
  8
Livello_1
 62
7
100
AcDbLine
 10
144.659920
 20
87.947930
 30
0.0
 11
140.735220
 21
87.947930
 31
0.0
  0
LINE
  5
1a6
100
AcDbEntity
  8
Livello_1
 62
7
100
AcDbLine
 10
140.735220
 20
87.947930
 30
0.0
 11
136.810520
 21
87.947930
 31
0.0
  0
LINE
  5
1a7
100
AcDbEntity
  8
Livello_1
 62
7
100
AcDbLine
 10
136.810520
 20
87.947930
 30
0.0
 11
136.810520
 21
82.940550
 31
0.0
  0
LINE
  5
1a8
100
AcDbEntity
  8
Livello_1
 62
7
100
AcDbLine
 10
136.810520
 20
82.940550
 30
0.0
 11
136.810520
 21
77.933180
 31
0.0
  0
LINE
  5
1a9
100
AcDbEntity
  8
Livello_1
 62
7
100
AcDbLine
 10
136.810520
 20
77.933180
 30
0.0
 11
140.735220
 21
77.933180
 31
0.0
  0
LINE
  5
1aa
100
AcDbEntity
  8
Livello_1
 62
7
100
AcDbLine
 10
140.735220
 20
77.933180
 30
0.0
 11
144.659920
 21
77.933180
 31
0.0
  0
LINE
  5
1ab
100
AcDbEntity
  8
Livello_1
 62
7
100
AcDbLine
 10
144.659920
 20
77.933180
 30
0.0
 11
144.659920
 21
82.940550
 31
0.0
  0
SPLINE
  5
1ac
100
AcDbEntity
  8
Livello_1
 62
7
100
AcDbSpline
 70
8
 71
3
 72
8
 73
4
 74
0
 40
0
 40
0
 40
0
 40
0
 40
1
 40
1
 40
1
 40
1
 10
84.030073
 20
89.314810
 30
0.0
 10
84.030073
 20
90.227120
 30
0.0
 10
84.006773
 20
90.298940
 30
0.0
 10
83.569923
 20
90.735810
 30
0.0
  0
LINE
  5
1ad
100
AcDbEntity
  8
Livello_1
 62
7
100
AcDbLine
 10
83.569923
 20
90.735810
 30
0.0
 11
83.109783
 21
91.195970
 31
0.0
  0
LINE
  5
1ae
100
AcDbEntity
  8
Livello_1
 62
7
100
AcDbLine
 10
83.109783
 20
91.195970
 30
0.0
 11
80.105373
 21
91.195970
 31
0.0
  0
LINE
  5
1af
100
AcDbEntity
  8
Livello_1
 62
7
100
AcDbLine
 10
80.105373
 20
91.195970
 30
0.0
 11
77.100933
 21
91.195970
 31
0.0
  0
LINE
  5
1b0
100
AcDbEntity
  8
Livello_1
 62
7
100
AcDbLine
 10
77.100933
 20
91.195970
 30
0.0
 11
76.640813
 21
90.735810
 31
0.0
  0
SPLINE
  5
1b1
100
AcDbEntity
  8
Livello_1
 62
7
100
AcDbSpline
 70
8
 71
3
 72
8
 73
4
 74
0
 40
0
 40
0
 40
0
 40
0
 40
1
 40
1
 40
1
 40
1
 10
76.640813
 20
90.735810
 30
0.0
 10
76.203923
 20
90.298940
 30
0.0
 10
76.180653
 20
90.227120
 30
0.0
 10
76.180653
 20
89.314810
 30
0.0
  0
LINE
  5
1b2
100
AcDbEntity
  8
Livello_1
 62
7
100
AcDbLine
 10
76.180653
 20
89.314810
 30
0.0
 11
76.180653
 21
88.353920
 31
0.0
  0
LINE
  5
1b3
100
AcDbEntity
  8
Livello_1
 62
7
100
AcDbLine
 10
76.180653
 20
88.353920
 30
0.0
 11
80.105373
 21
88.353920
 31
0.0
  0
LINE
  5
1b4
100
AcDbEntity
  8
Livello_1
 62
7
100
AcDbLine
 10
80.105373
 20
88.353920
 30
0.0
 11
84.030073
 21
88.353920
 31
0.0
  0
LINE
  5
1b5
100
AcDbEntity
  8
Livello_1
 62
7
100
AcDbLine
 10
84.030073
 20
88.353920
 30
0.0
 11
84.030073
 21
89.314810
 31
0.0
  0
SPLINE
  5
1b6
100
AcDbEntity
  8
Livello_1
 62
7
100
AcDbSpline
 70
8
 71
3
 72
8
 73
4
 74
0
 40
0
 40
0
 40
0
 40
0
 40
1
 40
1
 40
1
 40
1
 10
92.691463
 20
89.314810
 30
0.0
 10
92.691463
 20
90.227120
 30
0.0
 10
92.668163
 20
90.298940
 30
0.0
 10
92.231343
 20
90.735810
 30
0.0
  0
LINE
  5
1b7
100
AcDbEntity
  8
Livello_1
 62
7
100
AcDbLine
 10
92.231343
 20
90.735810
 30
0.0
 11
91.771203
 21
91.195970
 31
0.0
  0
LINE
  5
1b8
100
AcDbEntity
  8
Livello_1
 62
7
100
AcDbLine
 10
91.771203
 20
91.195970
 30
0.0
 11
88.766763
 21
91.195970
 31
0.0
  0
LINE
  5
1b9
100
AcDbEntity
  8
Livello_1
 62
7
100
AcDbLine
 10
88.766763
 20
91.195970
 30
0.0
 11
85.762353
 21
91.195970
 31
0.0
  0
LINE
  5
1ba
100
AcDbEntity
  8
Livello_1
 62
7
100
AcDbLine
 10
85.762353
 20
91.195970
 30
0.0
 11
85.302203
 21
90.735810
 31
0.0
  0
SPLINE
  5
1bb
100
AcDbEntity
  8
Livello_1
 62
7
100
AcDbSpline
 70
8
 71
3
 72
8
 73
4
 74
0
 40
0
 40
0
 40
0
 40
0
 40
1
 40
1
 40
1
 40
1
 10
85.302203
 20
90.735810
 30
0.0
 10
84.865323
 20
90.298940
 30
0.0
 10
84.842063
 20
90.227120
 30
0.0
 10
84.842063
 20
89.314810
 30
0.0
  0
LINE
  5
1bc
100
AcDbEntity
  8
Livello_1
 62
7
100
AcDbLine
 10
84.842063
 20
89.314810
 30
0.0
 11
84.842063
 21
88.353920
 31
0.0
  0
LINE
  5
1bd
100
AcDbEntity
  8
Livello_1
 62
7
100
AcDbLine
 10
84.842063
 20
88.353920
 30
0.0
 11
88.766763
 21
88.353920
 31
0.0
  0
LINE
  5
1be
100
AcDbEntity
  8
Livello_1
 62
7
100
AcDbLine
 10
88.766763
 20
88.353920
 30
0.0
 11
92.691463
 21
88.353920
 31
0.0
  0
LINE
  5
1bf
100
AcDbEntity
  8
Livello_1
 62
7
100
AcDbLine
 10
92.691463
 20
88.353920
 30
0.0
 11
92.691463
 21
89.314810
 31
0.0
  0
SPLINE
  5
1c0
100
AcDbEntity
  8
Livello_1
 62
7
100
AcDbSpline
 70
8
 71
3
 72
8
 73
4
 74
0
 40
0
 40
0
 40
0
 40
0
 40
1
 40
1
 40
1
 40
1
 10
101.352870
 20
89.314810
 30
0.0
 10
101.352870
 20
90.227120
 30
0.0
 10
101.329570
 20
90.298940
 30
0.0
 10
100.892750
 20
90.735810
 30
0.0
  0
LINE
  5
1c1
100
AcDbEntity
  8
Livello_1
 62
7
100
AcDbLine
 10
100.892750
 20
90.735810
 30
0.0
 11
100.432590
 21
91.195970
 31
0.0
  0
LINE
  5
1c2
100
AcDbEntity
  8
Livello_1
 62
7
100
AcDbLine
 10
100.432590
 20
91.195970
 30
0.0
 11
97.428173
 21
91.195970
 31
0.0
  0
LINE
  5
1c3
100
AcDbEntity
  8
Livello_1
 62
7
100
AcDbLine
 10
97.428173
 20
91.195970
 30
0.0
 11
94.423763
 21
91.195970
 31
0.0
  0
LINE
  5
1c4
100
AcDbEntity
  8
Livello_1
 62
7
100
AcDbLine
 10
94.423763
 20
91.195970
 30
0.0
 11
93.963623
 21
90.735810
 31
0.0
  0
SPLINE
  5
1c5
100
AcDbEntity
  8
Livello_1
 62
7
100
AcDbSpline
 70
8
 71
3
 72
8
 73
4
 74
0
 40
0
 40
0
 40
0
 40
0
 40
1
 40
1
 40
1
 40
1
 10
93.963623
 20
90.735810
 30
0.0
 10
93.526733
 20
90.298940
 30
0.0
 10
93.503483
 20
90.227120
 30
0.0
 10
93.503483
 20
89.314810
 30
0.0
  0
LINE
  5
1c6
100
AcDbEntity
  8
Livello_1
 62
7
100
AcDbLine
 10
93.503483
 20
89.314810
 30
0.0
 11
93.503483
 21
88.353920
 31
0.0
  0
LINE
  5
1c7
100
AcDbEntity
  8
Livello_1
 62
7
100
AcDbLine
 10
93.503483
 20
88.353920
 30
0.0
 11
97.428173
 21
88.353920
 31
0.0
  0
LINE
  5
1c8
100
AcDbEntity
  8
Livello_1
 62
7
100
AcDbLine
 10
97.428173
 20
88.353920
 30
0.0
 11
101.352870
 21
88.353920
 31
0.0
  0
LINE
  5
1c9
100
AcDbEntity
  8
Livello_1
 62
7
100
AcDbLine
 10
101.352870
 20
88.353920
 30
0.0
 11
101.352870
 21
89.314810
 31
0.0
  0
SPLINE
  5
1ca
100
AcDbEntity
  8
Livello_1
 62
7
100
AcDbSpline
 70
8
 71
3
 72
8
 73
4
 74
0
 40
0
 40
0
 40
0
 40
0
 40
1
 40
1
 40
1
 40
1
 10
110.014290
 20
89.314810
 30
0.0
 10
110.014290
 20
90.227120
 30
0.0
 10
109.990990
 20
90.298940
 30
0.0
 10
109.554170
 20
90.735810
 30
0.0
  0
LINE
  5
1cb
100
AcDbEntity
  8
Livello_1
 62
7
100
AcDbLine
 10
109.554170
 20
90.735810
 30
0.0
 11
109.094020
 21
91.195970
 31
0.0
  0
LINE
  5
1cc
100
AcDbEntity
  8
Livello_1
 62
7
100
AcDbLine
 10
109.094020
 20
91.195970
 30
0.0
 11
106.089590
 21
91.195970
 31
0.0
  0
LINE
  5
1cd
100
AcDbEntity
  8
Livello_1
 62
7
100
AcDbLine
 10
106.089590
 20
91.195970
 30
0.0
 11
103.085170
 21
91.195970
 31
0.0
  0
LINE
  5
1ce
100
AcDbEntity
  8
Livello_1
 62
7
100
AcDbLine
 10
103.085170
 20
91.195970
 30
0.0
 11
102.625030
 21
90.735810
 31
0.0
  0
SPLINE
  5
1cf
100
AcDbEntity
  8
Livello_1
 62
7
100
AcDbSpline
 70
8
 71
3
 72
8
 73
4
 74
0
 40
0
 40
0
 40
0
 40
0
 40
1
 40
1
 40
1
 40
1
 10
102.625030
 20
90.735810
 30
0.0
 10
102.188150
 20
90.298940
 30
0.0
 10
102.164890
 20
90.227120
 30
0.0
 10
102.164890
 20
89.314810
 30
0.0
  0
LINE
  5
1d0
100
AcDbEntity
  8
Livello_1
 62
7
100
AcDbLine
 10
102.164890
 20
89.314810
 30
0.0
 11
102.164890
 21
88.353920
 31
0.0
  0
LINE
  5
1d1
100
AcDbEntity
  8
Livello_1
 62
7
100
AcDbLine
 10
102.164890
 20
88.353920
 30
0.0
 11
106.089590
 21
88.353920
 31
0.0
  0
LINE
  5
1d2
100
AcDbEntity
  8
Livello_1
 62
7
100
AcDbLine
 10
106.089590
 20
88.353920
 30
0.0
 11
110.014290
 21
88.353920
 31
0.0
  0
LINE
  5
1d3
100
AcDbEntity
  8
Livello_1
 62
7
100
AcDbLine
 10
110.014290
 20
88.353920
 30
0.0
 11
110.014290
 21
89.314810
 31
0.0
  0
SPLINE
  5
1d4
100
AcDbEntity
  8
Livello_1
 62
7
100
AcDbSpline
 70
8
 71
3
 72
8
 73
4
 74
0
 40
0
 40
0
 40
0
 40
0
 40
1
 40
1
 40
1
 40
1
 10
118.675700
 20
89.314810
 30
0.0
 10
118.675700
 20
90.227120
 30
0.0
 10
118.652400
 20
90.298940
 30
0.0
 10
118.215560
 20
90.735810
 30
0.0
  0
LINE
  5
1d5
100
AcDbEntity
  8
Livello_1
 62
7
100
AcDbLine
 10
118.215560
 20
90.735810
 30
0.0
 11
117.755420
 21
91.195970
 31
0.0
  0
LINE
  5
1d6
100
AcDbEntity
  8
Livello_1
 62
7
100
AcDbLine
 10
117.755420
 20
91.195970
 30
0.0
 11
114.751000
 21
91.195970
 31
0.0
  0
LINE
  5
1d7
100
AcDbEntity
  8
Livello_1
 62
7
100
AcDbLine
 10
114.751000
 20
91.195970
 30
0.0
 11
111.746570
 21
91.195970
 31
0.0
  0
LINE
  5
1d8
100
AcDbEntity
  8
Livello_1
 62
7
100
AcDbLine
 10
111.746570
 20
91.195970
 30
0.0
 11
111.286420
 21
90.735810
 31
0.0
  0
SPLINE
  5
1d9
100
AcDbEntity
  8
Livello_1
 62
7
100
AcDbSpline
 70
8
 71
3
 72
8
 73
4
 74
0
 40
0
 40
0
 40
0
 40
0
 40
1
 40
1
 40
1
 40
1
 10
111.286420
 20
90.735810
 30
0.0
 10
110.849560
 20
90.298940
 30
0.0
 10
110.826300
 20
90.227120
 30
0.0
 10
110.826300
 20
89.314810
 30
0.0
  0
LINE
  5
1da
100
AcDbEntity
  8
Livello_1
 62
7
100
AcDbLine
 10
110.826300
 20
89.314810
 30
0.0
 11
110.826300
 21
88.353920
 31
0.0
  0
LINE
  5
1db
100
AcDbEntity
  8
Livello_1
 62
7
100
AcDbLine
 10
110.826300
 20
88.353920
 30
0.0
 11
114.751000
 21
88.353920
 31
0.0
  0
LINE
  5
1dc
100
AcDbEntity
  8
Livello_1
 62
7
100
AcDbLine
 10
114.751000
 20
88.353920
 30
0.0
 11
118.675700
 21
88.353920
 31
0.0
  0
LINE
  5
1dd
100
AcDbEntity
  8
Livello_1
 62
7
100
AcDbLine
 10
118.675700
 20
88.353920
 30
0.0
 11
118.675700
 21
89.314810
 31
0.0
  0
SPLINE
  5
1de
100
AcDbEntity
  8
Livello_1
 62
7
100
AcDbSpline
 70
8
 71
3
 72
8
 73
4
 74
0
 40
0
 40
0
 40
0
 40
0
 40
1
 40
1
 40
1
 40
1
 10
127.337120
 20
89.314810
 30
0.0
 10
127.337120
 20
90.227120
 30
0.0
 10
127.313820
 20
90.298940
 30
0.0
 10
126.876970
 20
90.735810
 30
0.0
  0
LINE
  5
1df
100
AcDbEntity
  8
Livello_1
 62
7
100
AcDbLine
 10
126.876970
 20
90.735810
 30
0.0
 11
126.416830
 21
91.195970
 31
0.0
  0
LINE
  5
1e0
100
AcDbEntity
  8
Livello_1
 62
7
100
AcDbLine
 10
126.416830
 20
91.195970
 30
0.0
 11
123.412390
 21
91.195970
 31
0.0
  0
LINE
  5
1e1
100
AcDbEntity
  8
Livello_1
 62
7
100
AcDbLine
 10
123.412390
 20
91.195970
 30
0.0
 11
120.407980
 21
91.195970
 31
0.0
  0
LINE
  5
1e2
100
AcDbEntity
  8
Livello_1
 62
7
100
AcDbLine
 10
120.407980
 20
91.195970
 30
0.0
 11
119.947840
 21
90.735810
 31
0.0
  0
SPLINE
  5
1e3
100
AcDbEntity
  8
Livello_1
 62
7
100
AcDbSpline
 70
8
 71
3
 72
8
 73
4
 74
0
 40
0
 40
0
 40
0
 40
0
 40
1
 40
1
 40
1
 40
1
 10
119.947840
 20
90.735810
 30
0.0
 10
119.510950
 20
90.298940
 30
0.0
 10
119.487720
 20
90.227120
 30
0.0
 10
119.487720
 20
89.314810
 30
0.0
  0
LINE
  5
1e4
100
AcDbEntity
  8
Livello_1
 62
7
100
AcDbLine
 10
119.487720
 20
89.314810
 30
0.0
 11
119.487720
 21
88.353920
 31
0.0
  0
LINE
  5
1e5
100
AcDbEntity
  8
Livello_1
 62
7
100
AcDbLine
 10
119.487720
 20
88.353920
 30
0.0
 11
123.412390
 21
88.353920
 31
0.0
  0
LINE
  5
1e6
100
AcDbEntity
  8
Livello_1
 62
7
100
AcDbLine
 10
123.412390
 20
88.353920
 30
0.0
 11
127.337120
 21
88.353920
 31
0.0
  0
LINE
  5
1e7
100
AcDbEntity
  8
Livello_1
 62
7
100
AcDbLine
 10
127.337120
 20
88.353920
 30
0.0
 11
127.337120
 21
89.314810
 31
0.0
  0
SPLINE
  5
1e8
100
AcDbEntity
  8
Livello_1
 62
7
100
AcDbSpline
 70
8
 71
3
 72
8
 73
4
 74
0
 40
0
 40
0
 40
0
 40
0
 40
1
 40
1
 40
1
 40
1
 10
135.998510
 20
89.314810
 30
0.0
 10
135.998510
 20
90.227120
 30
0.0
 10
135.975210
 20
90.298940
 30
0.0
 10
135.538390
 20
90.735810
 30
0.0
  0
LINE
  5
1e9
100
AcDbEntity
  8
Livello_1
 62
7
100
AcDbLine
 10
135.538390
 20
90.735810
 30
0.0
 11
135.078250
 21
91.195970
 31
0.0
  0
LINE
  5
1ea
100
AcDbEntity
  8
Livello_1
 62
7
100
AcDbLine
 10
135.078250
 20
91.195970
 30
0.0
 11
132.073830
 21
91.195970
 31
0.0
  0
LINE
  5
1eb
100
AcDbEntity
  8
Livello_1
 62
7
100
AcDbLine
 10
132.073830
 20
91.195970
 30
0.0
 11
129.069390
 21
91.195970
 31
0.0
  0
LINE
  5
1ec
100
AcDbEntity
  8
Livello_1
 62
7
100
AcDbLine
 10
129.069390
 20
91.195970
 30
0.0
 11
128.609250
 21
90.735810
 31
0.0
  0
SPLINE
  5
1ed
100
AcDbEntity
  8
Livello_1
 62
7
100
AcDbSpline
 70
8
 71
3
 72
8
 73
4
 74
0
 40
0
 40
0
 40
0
 40
0
 40
1
 40
1
 40
1
 40
1
 10
128.609250
 20
90.735810
 30
0.0
 10
128.172370
 20
90.298940
 30
0.0
 10
128.149110
 20
90.227120
 30
0.0
 10
128.149110
 20
89.314810
 30
0.0
  0
LINE
  5
1ee
100
AcDbEntity
  8
Livello_1
 62
7
100
AcDbLine
 10
128.149110
 20
89.314810
 30
0.0
 11
128.149110
 21
88.353920
 31
0.0
  0
LINE
  5
1ef
100
AcDbEntity
  8
Livello_1
 62
7
100
AcDbLine
 10
128.149110
 20
88.353920
 30
0.0
 11
132.073830
 21
88.353920
 31
0.0
  0
LINE
  5
1f0
100
AcDbEntity
  8
Livello_1
 62
7
100
AcDbLine
 10
132.073830
 20
88.353920
 30
0.0
 11
135.998510
 21
88.353920
 31
0.0
  0
LINE
  5
1f1
100
AcDbEntity
  8
Livello_1
 62
7
100
AcDbLine
 10
135.998510
 20
88.353920
 30
0.0
 11
135.998510
 21
89.314810
 31
0.0
  0
SPLINE
  5
1f2
100
AcDbEntity
  8
Livello_1
 62
7
100
AcDbSpline
 70
8
 71
3
 72
8
 73
4
 74
0
 40
0
 40
0
 40
0
 40
0
 40
1
 40
1
 40
1
 40
1
 10
144.659920
 20
89.314810
 30
0.0
 10
144.659920
 20
90.227120
 30
0.0
 10
144.636620
 20
90.298940
 30
0.0
 10
144.199780
 20
90.735810
 30
0.0
  0
LINE
  5
1f3
100
AcDbEntity
  8
Livello_1
 62
7
100
AcDbLine
 10
144.199780
 20
90.735810
 30
0.0
 11
143.739660
 21
91.195970
 31
0.0
  0
LINE
  5
1f4
100
AcDbEntity
  8
Livello_1
 62
7
100
AcDbLine
 10
143.739660
 20
91.195970
 30
0.0
 11
140.735220
 21
91.195970
 31
0.0
  0
LINE
  5
1f5
100
AcDbEntity
  8
Livello_1
 62
7
100
AcDbLine
 10
140.735220
 20
91.195970
 30
0.0
 11
137.730810
 21
91.195970
 31
0.0
  0
LINE
  5
1f6
100
AcDbEntity
  8
Livello_1
 62
7
100
AcDbLine
 10
137.730810
 20
91.195970
 30
0.0
 11
137.270670
 21
90.735810
 31
0.0
  0
SPLINE
  5
1f7
100
AcDbEntity
  8
Livello_1
 62
7
100
AcDbSpline
 70
8
 71
3
 72
8
 73
4
 74
0
 40
0
 40
0
 40
0
 40
0
 40
1
 40
1
 40
1
 40
1
 10
137.270670
 20
90.735810
 30
0.0
 10
136.833780
 20
90.298940
 30
0.0
 10
136.810520
 20
90.227120
 30
0.0
 10
136.810520
 20
89.314810
 30
0.0
  0
LINE
  5
1f8
100
AcDbEntity
  8
Livello_1
 62
7
100
AcDbLine
 10
136.810520
 20
89.314810
 30
0.0
 11
136.810520
 21
88.353920
 31
0.0
  0
LINE
  5
1f9
100
AcDbEntity
  8
Livello_1
 62
7
100
AcDbLine
 10
136.810520
 20
88.353920
 30
0.0
 11
140.735220
 21
88.353920
 31
0.0
  0
LINE
  5
1fa
100
AcDbEntity
  8
Livello_1
 62
7
100
AcDbLine
 10
140.735220
 20
88.353920
 30
0.0
 11
144.659920
 21
88.353920
 31
0.0
  0
LINE
  5
1fb
100
AcDbEntity
  8
Livello_1
 62
7
100
AcDbLine
 10
144.659920
 20
88.353920
 30
0.0
 11
144.659920
 21
89.314810
 31
0.0
  0
SPLINE
  5
1fc
100
AcDbEntity
  8
Livello_1
 62
7
100
AcDbSpline
 70
8
 71
3
 72
8
 73
4
 74
0
 40
0
 40
0
 40
0
 40
0
 40
1
 40
1
 40
1
 40
1
 10
83.569923
 20
92.468110
 30
0.0
 10
84.006813
 20
92.904990
 30
0.0
 10
84.030073
 20
92.976800
 30
0.0
 10
84.030073
 20
93.889110
 30
0.0
  0
LINE
  5
1fd
100
AcDbEntity
  8
Livello_1
 62
7
100
AcDbLine
 10
84.030073
 20
93.889110
 30
0.0
 11
84.030073
 21
94.849990
 31
0.0
  0
LINE
  5
1fe
100
AcDbEntity
  8
Livello_1
 62
7
100
AcDbLine
 10
84.030073
 20
94.849990
 30
0.0
 11
80.105373
 21
94.849990
 31
0.0
  0
LINE
  5
1ff
100
AcDbEntity
  8
Livello_1
 62
7
100
AcDbLine
 10
80.105373
 20
94.849990
 30
0.0
 11
76.180653
 21
94.849990
 31
0.0
  0
LINE
  5
200
100
AcDbEntity
  8
Livello_1
 62
7
100
AcDbLine
 10
76.180653
 20
94.849990
 30
0.0
 11
76.180653
 21
93.889110
 31
0.0
  0
SPLINE
  5
201
100
AcDbEntity
  8
Livello_1
 62
7
100
AcDbSpline
 70
8
 71
3
 72
8
 73
4
 74
0
 40
0
 40
0
 40
0
 40
0
 40
1
 40
1
 40
1
 40
1
 10
76.180653
 20
93.889110
 30
0.0
 10
76.180653
 20
92.976800
 30
0.0
 10
76.203953
 20
92.904990
 30
0.0
 10
76.640813
 20
92.468110
 30
0.0
  0
LINE
  5
202
100
AcDbEntity
  8
Livello_1
 62
7
100
AcDbLine
 10
76.640813
 20
92.468110
 30
0.0
 11
77.100933
 21
92.007970
 31
0.0
  0
LINE
  5
203
100
AcDbEntity
  8
Livello_1
 62
7
100
AcDbLine
 10
77.100933
 20
92.007970
 30
0.0
 11
80.105373
 21
92.007970
 31
0.0
  0
LINE
  5
204
100
AcDbEntity
  8
Livello_1
 62
7
100
AcDbLine
 10
80.105373
 20
92.007970
 30
0.0
 11
83.109783
 21
92.007970
 31
0.0
  0
LINE
  5
205
100
AcDbEntity
  8
Livello_1
 62
7
100
AcDbLine
 10
83.109783
 20
92.007970
 30
0.0
 11
83.569923
 21
92.468110
 31
0.0
  0
SPLINE
  5
206
100
AcDbEntity
  8
Livello_1
 62
7
100
AcDbSpline
 70
8
 71
3
 72
8
 73
4
 74
0
 40
0
 40
0
 40
0
 40
0
 40
1
 40
1
 40
1
 40
1
 10
92.231343
 20
92.468110
 30
0.0
 10
92.668223
 20
92.904990
 30
0.0
 10
92.691463
 20
92.976800
 30
0.0
 10
92.691463
 20
93.889110
 30
0.0
  0
LINE
  5
207
100
AcDbEntity
  8
Livello_1
 62
7
100
AcDbLine
 10
92.691463
 20
93.889110
 30
0.0
 11
92.691463
 21
94.849990
 31
0.0
  0
LINE
  5
208
100
AcDbEntity
  8
Livello_1
 62
7
100
AcDbLine
 10
92.691463
 20
94.849990
 30
0.0
 11
88.766763
 21
94.849990
 31
0.0
  0
LINE
  5
209
100
AcDbEntity
  8
Livello_1
 62
7
100
AcDbLine
 10
88.766763
 20
94.849990
 30
0.0
 11
84.842063
 21
94.849990
 31
0.0
  0
LINE
  5
20a
100
AcDbEntity
  8
Livello_1
 62
7
100
AcDbLine
 10
84.842063
 20
94.849990
 30
0.0
 11
84.842063
 21
93.889110
 31
0.0
  0
SPLINE
  5
20b
100
AcDbEntity
  8
Livello_1
 62
7
100
AcDbSpline
 70
8
 71
3
 72
8
 73
4
 74
0
 40
0
 40
0
 40
0
 40
0
 40
1
 40
1
 40
1
 40
1
 10
84.842063
 20
93.889110
 30
0.0
 10
84.842063
 20
92.976800
 30
0.0
 10
84.865363
 20
92.904990
 30
0.0
 10
85.302203
 20
92.468110
 30
0.0
  0
LINE
  5
20c
100
AcDbEntity
  8
Livello_1
 62
7
100
AcDbLine
 10
85.302203
 20
92.468110
 30
0.0
 11
85.762353
 21
92.007970
 31
0.0
  0
LINE
  5
20d
100
AcDbEntity
  8
Livello_1
 62
7
100
AcDbLine
 10
85.762353
 20
92.007970
 30
0.0
 11
88.766763
 21
92.007970
 31
0.0
  0
LINE
  5
20e
100
AcDbEntity
  8
Livello_1
 62
7
100
AcDbLine
 10
88.766763
 20
92.007970
 30
0.0
 11
91.771203
 21
92.007970
 31
0.0
  0
LINE
  5
20f
100
AcDbEntity
  8
Livello_1
 62
7
100
AcDbLine
 10
91.771203
 20
92.007970
 30
0.0
 11
92.231343
 21
92.468110
 31
0.0
  0
SPLINE
  5
210
100
AcDbEntity
  8
Livello_1
 62
7
100
AcDbSpline
 70
8
 71
3
 72
8
 73
4
 74
0
 40
0
 40
0
 40
0
 40
0
 40
1
 40
1
 40
1
 40
1
 10
100.892750
 20
92.468110
 30
0.0
 10
101.329640
 20
92.904990
 30
0.0
 10
101.352870
 20
92.976800
 30
0.0
 10
101.352870
 20
93.889110
 30
0.0
  0
LINE
  5
211
100
AcDbEntity
  8
Livello_1
 62
7
100
AcDbLine
 10
101.352870
 20
93.889110
 30
0.0
 11
101.352870
 21
94.849990
 31
0.0
  0
LINE
  5
212
100
AcDbEntity
  8
Livello_1
 62
7
100
AcDbLine
 10
101.352870
 20
94.849990
 30
0.0
 11
97.428173
 21
94.849990
 31
0.0
  0
LINE
  5
213
100
AcDbEntity
  8
Livello_1
 62
7
100
AcDbLine
 10
97.428173
 20
94.849990
 30
0.0
 11
93.503483
 21
94.849990
 31
0.0
  0
LINE
  5
214
100
AcDbEntity
  8
Livello_1
 62
7
100
AcDbLine
 10
93.503483
 20
94.849990
 30
0.0
 11
93.503483
 21
93.889110
 31
0.0
  0
SPLINE
  5
215
100
AcDbEntity
  8
Livello_1
 62
7
100
AcDbSpline
 70
8
 71
3
 72
8
 73
4
 74
0
 40
0
 40
0
 40
0
 40
0
 40
1
 40
1
 40
1
 40
1
 10
93.503483
 20
93.889110
 30
0.0
 10
93.503483
 20
92.976800
 30
0.0
 10
93.526783
 20
92.904990
 30
0.0
 10
93.963623
 20
92.468110
 30
0.0
  0
LINE
  5
216
100
AcDbEntity
  8
Livello_1
 62
7
100
AcDbLine
 10
93.963623
 20
92.468110
 30
0.0
 11
94.423763
 21
92.007970
 31
0.0
  0
LINE
  5
217
100
AcDbEntity
  8
Livello_1
 62
7
100
AcDbLine
 10
94.423763
 20
92.007970
 30
0.0
 11
97.428173
 21
92.007970
 31
0.0
  0
LINE
  5
218
100
AcDbEntity
  8
Livello_1
 62
7
100
AcDbLine
 10
97.428173
 20
92.007970
 30
0.0
 11
100.432590
 21
92.007970
 31
0.0
  0
LINE
  5
219
100
AcDbEntity
  8
Livello_1
 62
7
100
AcDbLine
 10
100.432590
 20
92.007970
 30
0.0
 11
100.892750
 21
92.468110
 31
0.0
  0
SPLINE
  5
21a
100
AcDbEntity
  8
Livello_1
 62
7
100
AcDbSpline
 70
8
 71
3
 72
8
 73
4
 74
0
 40
0
 40
0
 40
0
 40
0
 40
1
 40
1
 40
1
 40
1
 10
109.554170
 20
92.468110
 30
0.0
 10
109.991050
 20
92.904990
 30
0.0
 10
110.014290
 20
92.976800
 30
0.0
 10
110.014290
 20
93.889110
 30
0.0
  0
LINE
  5
21b
100
AcDbEntity
  8
Livello_1
 62
7
100
AcDbLine
 10
110.014290
 20
93.889110
 30
0.0
 11
110.014290
 21
94.849990
 31
0.0
  0
LINE
  5
21c
100
AcDbEntity
  8
Livello_1
 62
7
100
AcDbLine
 10
110.014290
 20
94.849990
 30
0.0
 11
106.089590
 21
94.849990
 31
0.0
  0
LINE
  5
21d
100
AcDbEntity
  8
Livello_1
 62
7
100
AcDbLine
 10
106.089590
 20
94.849990
 30
0.0
 11
102.164890
 21
94.849990
 31
0.0
  0
LINE
  5
21e
100
AcDbEntity
  8
Livello_1
 62
7
100
AcDbLine
 10
102.164890
 20
94.849990
 30
0.0
 11
102.164890
 21
93.889110
 31
0.0
  0
SPLINE
  5
21f
100
AcDbEntity
  8
Livello_1
 62
7
100
AcDbSpline
 70
8
 71
3
 72
8
 73
4
 74
0
 40
0
 40
0
 40
0
 40
0
 40
1
 40
1
 40
1
 40
1
 10
102.164890
 20
93.889110
 30
0.0
 10
102.164890
 20
92.976800
 30
0.0
 10
102.188190
 20
92.904990
 30
0.0
 10
102.625030
 20
92.468110
 30
0.0
  0
LINE
  5
220
100
AcDbEntity
  8
Livello_1
 62
7
100
AcDbLine
 10
102.625030
 20
92.468110
 30
0.0
 11
103.085170
 21
92.007970
 31
0.0
  0
LINE
  5
221
100
AcDbEntity
  8
Livello_1
 62
7
100
AcDbLine
 10
103.085170
 20
92.007970
 30
0.0
 11
106.089590
 21
92.007970
 31
0.0
  0
LINE
  5
222
100
AcDbEntity
  8
Livello_1
 62
7
100
AcDbLine
 10
106.089590
 20
92.007970
 30
0.0
 11
109.094020
 21
92.007970
 31
0.0
  0
LINE
  5
223
100
AcDbEntity
  8
Livello_1
 62
7
100
AcDbLine
 10
109.094020
 20
92.007970
 30
0.0
 11
109.554170
 21
92.468110
 31
0.0
  0
SPLINE
  5
224
100
AcDbEntity
  8
Livello_1
 62
7
100
AcDbSpline
 70
8
 71
3
 72
8
 73
4
 74
0
 40
0
 40
0
 40
0
 40
0
 40
1
 40
1
 40
1
 40
1
 10
118.215560
 20
92.468110
 30
0.0
 10
118.652440
 20
92.904990
 30
0.0
 10
118.675700
 20
92.976800
 30
0.0
 10
118.675700
 20
93.889110
 30
0.0
  0
LINE
  5
225
100
AcDbEntity
  8
Livello_1
 62
7
100
AcDbLine
 10
118.675700
 20
93.889110
 30
0.0
 11
118.675700
 21
94.849990
 31
0.0
  0
LINE
  5
226
100
AcDbEntity
  8
Livello_1
 62
7
100
AcDbLine
 10
118.675700
 20
94.849990
 30
0.0
 11
114.751000
 21
94.849990
 31
0.0
  0
LINE
  5
227
100
AcDbEntity
  8
Livello_1
 62
7
100
AcDbLine
 10
114.751000
 20
94.849990
 30
0.0
 11
110.826300
 21
94.849990
 31
0.0
  0
LINE
  5
228
100
AcDbEntity
  8
Livello_1
 62
7
100
AcDbLine
 10
110.826300
 20
94.849990
 30
0.0
 11
110.826300
 21
93.889110
 31
0.0
  0
SPLINE
  5
229
100
AcDbEntity
  8
Livello_1
 62
7
100
AcDbSpline
 70
8
 71
3
 72
8
 73
4
 74
0
 40
0
 40
0
 40
0
 40
0
 40
1
 40
1
 40
1
 40
1
 10
110.826300
 20
93.889110
 30
0.0
 10
110.826300
 20
92.976800
 30
0.0
 10
110.849600
 20
92.904990
 30
0.0
 10
111.286420
 20
92.468110
 30
0.0
  0
LINE
  5
22a
100
AcDbEntity
  8
Livello_1
 62
7
100
AcDbLine
 10
111.286420
 20
92.468110
 30
0.0
 11
111.746570
 21
92.007970
 31
0.0
  0
LINE
  5
22b
100
AcDbEntity
  8
Livello_1
 62
7
100
AcDbLine
 10
111.746570
 20
92.007970
 30
0.0
 11
114.751000
 21
92.007970
 31
0.0
  0
LINE
  5
22c
100
AcDbEntity
  8
Livello_1
 62
7
100
AcDbLine
 10
114.751000
 20
92.007970
 30
0.0
 11
117.755420
 21
92.007970
 31
0.0
  0
LINE
  5
22d
100
AcDbEntity
  8
Livello_1
 62
7
100
AcDbLine
 10
117.755420
 20
92.007970
 30
0.0
 11
118.215560
 21
92.468110
 31
0.0
  0
SPLINE
  5
22e
100
AcDbEntity
  8
Livello_1
 62
7
100
AcDbSpline
 70
8
 71
3
 72
8
 73
4
 74
0
 40
0
 40
0
 40
0
 40
0
 40
1
 40
1
 40
1
 40
1
 10
126.876970
 20
92.468110
 30
0.0
 10
127.313860
 20
92.904990
 30
0.0
 10
127.337120
 20
92.976800
 30
0.0
 10
127.337120
 20
93.889110
 30
0.0
  0
LINE
  5
22f
100
AcDbEntity
  8
Livello_1
 62
7
100
AcDbLine
 10
127.337120
 20
93.889110
 30
0.0
 11
127.337120
 21
94.849990
 31
0.0
  0
LINE
  5
230
100
AcDbEntity
  8
Livello_1
 62
7
100
AcDbLine
 10
127.337120
 20
94.849990
 30
0.0
 11
123.412390
 21
94.849990
 31
0.0
  0
LINE
  5
231
100
AcDbEntity
  8
Livello_1
 62
7
100
AcDbLine
 10
123.412390
 20
94.849990
 30
0.0
 11
119.487720
 21
94.849990
 31
0.0
  0
LINE
  5
232
100
AcDbEntity
  8
Livello_1
 62
7
100
AcDbLine
 10
119.487720
 20
94.849990
 30
0.0
 11
119.487720
 21
93.889110
 31
0.0
  0
SPLINE
  5
233
100
AcDbEntity
  8
Livello_1
 62
7
100
AcDbSpline
 70
8
 71
3
 72
8
 73
4
 74
0
 40
0
 40
0
 40
0
 40
0
 40
1
 40
1
 40
1
 40
1
 10
119.487720
 20
93.889110
 30
0.0
 10
119.487720
 20
92.976800
 30
0.0
 10
119.511020
 20
92.904990
 30
0.0
 10
119.947840
 20
92.468110
 30
0.0
  0
LINE
  5
234
100
AcDbEntity
  8
Livello_1
 62
7
100
AcDbLine
 10
119.947840
 20
92.468110
 30
0.0
 11
120.407980
 21
92.007970
 31
0.0
  0
LINE
  5
235
100
AcDbEntity
  8
Livello_1
 62
7
100
AcDbLine
 10
120.407980
 20
92.007970
 30
0.0
 11
123.412390
 21
92.007970
 31
0.0
  0
LINE
  5
236
100
AcDbEntity
  8
Livello_1
 62
7
100
AcDbLine
 10
123.412390
 20
92.007970
 30
0.0
 11
126.416830
 21
92.007970
 31
0.0
  0
LINE
  5
237
100
AcDbEntity
  8
Livello_1
 62
7
100
AcDbLine
 10
126.416830
 20
92.007970
 30
0.0
 11
126.876970
 21
92.468110
 31
0.0
  0
SPLINE
  5
238
100
AcDbEntity
  8
Livello_1
 62
7
100
AcDbSpline
 70
8
 71
3
 72
8
 73
4
 74
0
 40
0
 40
0
 40
0
 40
0
 40
1
 40
1
 40
1
 40
1
 10
135.538390
 20
92.468110
 30
0.0
 10
135.975270
 20
92.904990
 30
0.0
 10
135.998510
 20
92.976800
 30
0.0
 10
135.998510
 20
93.889110
 30
0.0
  0
LINE
  5
239
100
AcDbEntity
  8
Livello_1
 62
7
100
AcDbLine
 10
135.998510
 20
93.889110
 30
0.0
 11
135.998510
 21
94.849990
 31
0.0
  0
LINE
  5
23a
100
AcDbEntity
  8
Livello_1
 62
7
100
AcDbLine
 10
135.998510
 20
94.849990
 30
0.0
 11
132.073830
 21
94.849990
 31
0.0
  0
LINE
  5
23b
100
AcDbEntity
  8
Livello_1
 62
7
100
AcDbLine
 10
132.073830
 20
94.849990
 30
0.0
 11
128.149110
 21
94.849990
 31
0.0
  0
LINE
  5
23c
100
AcDbEntity
  8
Livello_1
 62
7
100
AcDbLine
 10
128.149110
 20
94.849990
 30
0.0
 11
128.149110
 21
93.889110
 31
0.0
  0
SPLINE
  5
23d
100
AcDbEntity
  8
Livello_1
 62
7
100
AcDbSpline
 70
8
 71
3
 72
8
 73
4
 74
0
 40
0
 40
0
 40
0
 40
0
 40
1
 40
1
 40
1
 40
1
 10
128.149110
 20
93.889110
 30
0.0
 10
128.149110
 20
92.976800
 30
0.0
 10
128.172410
 20
92.904990
 30
0.0
 10
128.609250
 20
92.468110
 30
0.0
  0
LINE
  5
23e
100
AcDbEntity
  8
Livello_1
 62
7
100
AcDbLine
 10
128.609250
 20
92.468110
 30
0.0
 11
129.069390
 21
92.007970
 31
0.0
  0
LINE
  5
23f
100
AcDbEntity
  8
Livello_1
 62
7
100
AcDbLine
 10
129.069390
 20
92.007970
 30
0.0
 11
132.073830
 21
92.007970
 31
0.0
  0
LINE
  5
240
100
AcDbEntity
  8
Livello_1
 62
7
100
AcDbLine
 10
132.073830
 20
92.007970
 30
0.0
 11
135.078250
 21
92.007970
 31
0.0
  0
LINE
  5
241
100
AcDbEntity
  8
Livello_1
 62
7
100
AcDbLine
 10
135.078250
 20
92.007970
 30
0.0
 11
135.538390
 21
92.468110
 31
0.0
  0
SPLINE
  5
242
100
AcDbEntity
  8
Livello_1
 62
7
100
AcDbSpline
 70
8
 71
3
 72
8
 73
4
 74
0
 40
0
 40
0
 40
0
 40
0
 40
1
 40
1
 40
1
 40
1
 10
144.199780
 20
92.468110
 30
0.0
 10
144.636670
 20
92.904990
 30
0.0
 10
144.659920
 20
92.976800
 30
0.0
 10
144.659920
 20
93.889110
 30
0.0
  0
LINE
  5
243
100
AcDbEntity
  8
Livello_1
 62
7
100
AcDbLine
 10
144.659920
 20
93.889110
 30
0.0
 11
144.659920
 21
94.849990
 31
0.0
  0
LINE
  5
244
100
AcDbEntity
  8
Livello_1
 62
7
100
AcDbLine
 10
144.659920
 20
94.849990
 30
0.0
 11
140.735220
 21
94.849990
 31
0.0
  0
LINE
  5
245
100
AcDbEntity
  8
Livello_1
 62
7
100
AcDbLine
 10
140.735220
 20
94.849990
 30
0.0
 11
136.810520
 21
94.849990
 31
0.0
  0
LINE
  5
246
100
AcDbEntity
  8
Livello_1
 62
7
100
AcDbLine
 10
136.810520
 20
94.849990
 30
0.0
 11
136.810520
 21
93.889110
 31
0.0
  0
SPLINE
  5
247
100
AcDbEntity
  8
Livello_1
 62
7
100
AcDbSpline
 70
8
 71
3
 72
8
 73
4
 74
0
 40
0
 40
0
 40
0
 40
0
 40
1
 40
1
 40
1
 40
1
 10
136.810520
 20
93.889110
 30
0.0
 10
136.810520
 20
92.976800
 30
0.0
 10
136.833820
 20
92.904990
 30
0.0
 10
137.270670
 20
92.468110
 30
0.0
  0
LINE
  5
248
100
AcDbEntity
  8
Livello_1
 62
7
100
AcDbLine
 10
137.270670
 20
92.468110
 30
0.0
 11
137.730810
 21
92.007970
 31
0.0
  0
LINE
  5
249
100
AcDbEntity
  8
Livello_1
 62
7
100
AcDbLine
 10
137.730810
 20
92.007970
 30
0.0
 11
140.735220
 21
92.007970
 31
0.0
  0
LINE
  5
24a
100
AcDbEntity
  8
Livello_1
 62
7
100
AcDbLine
 10
140.735220
 20
92.007970
 30
0.0
 11
143.739660
 21
92.007970
 31
0.0
  0
LINE
  5
24b
100
AcDbEntity
  8
Livello_1
 62
7
100
AcDbLine
 10
143.739660
 20
92.007970
 30
0.0
 11
144.199780
 21
92.468110
 31
0.0
  0
LINE
  5
24c
100
AcDbEntity
  8
Livello_1
 62
7
100
AcDbLine
 10
84.030073
 20
100.263360
 30
0.0
 11
84.030073
 21
105.270750
 31
0.0
  0
LINE
  5
24d
100
AcDbEntity
  8
Livello_1
 62
7
100
AcDbLine
 10
84.030073
 20
105.270750
 30
0.0
 11
80.105373
 21
105.270750
 31
0.0
  0
LINE
  5
24e
100
AcDbEntity
  8
Livello_1
 62
7
100
AcDbLine
 10
80.105373
 20
105.270750
 30
0.0
 11
76.180653
 21
105.270750
 31
0.0
  0
LINE
  5
24f
100
AcDbEntity
  8
Livello_1
 62
7
100
AcDbLine
 10
76.180653
 20
105.270750
 30
0.0
 11
76.180653
 21
100.263360
 31
0.0
  0
LINE
  5
250
100
AcDbEntity
  8
Livello_1
 62
7
100
AcDbLine
 10
76.180653
 20
100.263360
 30
0.0
 11
76.180653
 21
95.255990
 31
0.0
  0
LINE
  5
251
100
AcDbEntity
  8
Livello_1
 62
7
100
AcDbLine
 10
76.180653
 20
95.255990
 30
0.0
 11
80.105373
 21
95.255990
 31
0.0
  0
LINE
  5
252
100
AcDbEntity
  8
Livello_1
 62
7
100
AcDbLine
 10
80.105373
 20
95.255990
 30
0.0
 11
84.030073
 21
95.255990
 31
0.0
  0
LINE
  5
253
100
AcDbEntity
  8
Livello_1
 62
7
100
AcDbLine
 10
84.030073
 20
95.255990
 30
0.0
 11
84.030073
 21
100.263360
 31
0.0
  0
LINE
  5
254
100
AcDbEntity
  8
Livello_1
 62
7
100
AcDbLine
 10
92.691463
 20
100.263360
 30
0.0
 11
92.691463
 21
105.270750
 31
0.0
  0
LINE
  5
255
100
AcDbEntity
  8
Livello_1
 62
7
100
AcDbLine
 10
92.691463
 20
105.270750
 30
0.0
 11
88.766763
 21
105.270750
 31
0.0
  0
LINE
  5
256
100
AcDbEntity
  8
Livello_1
 62
7
100
AcDbLine
 10
88.766763
 20
105.270750
 30
0.0
 11
84.842063
 21
105.270750
 31
0.0
  0
LINE
  5
257
100
AcDbEntity
  8
Livello_1
 62
7
100
AcDbLine
 10
84.842063
 20
105.270750
 30
0.0
 11
84.842063
 21
100.263360
 31
0.0
  0
LINE
  5
258
100
AcDbEntity
  8
Livello_1
 62
7
100
AcDbLine
 10
84.842063
 20
100.263360
 30
0.0
 11
84.842063
 21
95.255990
 31
0.0
  0
LINE
  5
259
100
AcDbEntity
  8
Livello_1
 62
7
100
AcDbLine
 10
84.842063
 20
95.255990
 30
0.0
 11
88.766763
 21
95.255990
 31
0.0
  0
LINE
  5
25a
100
AcDbEntity
  8
Livello_1
 62
7
100
AcDbLine
 10
88.766763
 20
95.255990
 30
0.0
 11
92.691463
 21
95.255990
 31
0.0
  0
LINE
  5
25b
100
AcDbEntity
  8
Livello_1
 62
7
100
AcDbLine
 10
92.691463
 20
95.255990
 30
0.0
 11
92.691463
 21
100.263360
 31
0.0
  0
LINE
  5
25c
100
AcDbEntity
  8
Livello_1
 62
7
100
AcDbLine
 10
101.352870
 20
100.263360
 30
0.0
 11
101.352870
 21
105.270750
 31
0.0
  0
LINE
  5
25d
100
AcDbEntity
  8
Livello_1
 62
7
100
AcDbLine
 10
101.352870
 20
105.270750
 30
0.0
 11
97.428173
 21
105.270750
 31
0.0
  0
LINE
  5
25e
100
AcDbEntity
  8
Livello_1
 62
7
100
AcDbLine
 10
97.428173
 20
105.270750
 30
0.0
 11
93.503483
 21
105.270750
 31
0.0
  0
LINE
  5
25f
100
AcDbEntity
  8
Livello_1
 62
7
100
AcDbLine
 10
93.503483
 20
105.270750
 30
0.0
 11
93.503483
 21
100.263360
 31
0.0
  0
LINE
  5
260
100
AcDbEntity
  8
Livello_1
 62
7
100
AcDbLine
 10
93.503483
 20
100.263360
 30
0.0
 11
93.503483
 21
95.255990
 31
0.0
  0
LINE
  5
261
100
AcDbEntity
  8
Livello_1
 62
7
100
AcDbLine
 10
93.503483
 20
95.255990
 30
0.0
 11
97.428173
 21
95.255990
 31
0.0
  0
LINE
  5
262
100
AcDbEntity
  8
Livello_1
 62
7
100
AcDbLine
 10
97.428173
 20
95.255990
 30
0.0
 11
101.352870
 21
95.255990
 31
0.0
  0
LINE
  5
263
100
AcDbEntity
  8
Livello_1
 62
7
100
AcDbLine
 10
101.352870
 20
95.255990
 30
0.0
 11
101.352870
 21
100.263360
 31
0.0
  0
LINE
  5
264
100
AcDbEntity
  8
Livello_1
 62
7
100
AcDbLine
 10
110.014290
 20
100.263360
 30
0.0
 11
110.014290
 21
105.270750
 31
0.0
  0
LINE
  5
265
100
AcDbEntity
  8
Livello_1
 62
7
100
AcDbLine
 10
110.014290
 20
105.270750
 30
0.0
 11
106.089590
 21
105.270750
 31
0.0
  0
LINE
  5
266
100
AcDbEntity
  8
Livello_1
 62
7
100
AcDbLine
 10
106.089590
 20
105.270750
 30
0.0
 11
102.164890
 21
105.270750
 31
0.0
  0
LINE
  5
267
100
AcDbEntity
  8
Livello_1
 62
7
100
AcDbLine
 10
102.164890
 20
105.270750
 30
0.0
 11
102.164890
 21
100.263360
 31
0.0
  0
LINE
  5
268
100
AcDbEntity
  8
Livello_1
 62
7
100
AcDbLine
 10
102.164890
 20
100.263360
 30
0.0
 11
102.164890
 21
95.255990
 31
0.0
  0
LINE
  5
269
100
AcDbEntity
  8
Livello_1
 62
7
100
AcDbLine
 10
102.164890
 20
95.255990
 30
0.0
 11
106.089590
 21
95.255990
 31
0.0
  0
LINE
  5
26a
100
AcDbEntity
  8
Livello_1
 62
7
100
AcDbLine
 10
106.089590
 20
95.255990
 30
0.0
 11
110.014290
 21
95.255990
 31
0.0
  0
LINE
  5
26b
100
AcDbEntity
  8
Livello_1
 62
7
100
AcDbLine
 10
110.014290
 20
95.255990
 30
0.0
 11
110.014290
 21
100.263360
 31
0.0
  0
LINE
  5
26c
100
AcDbEntity
  8
Livello_1
 62
7
100
AcDbLine
 10
118.675700
 20
100.263360
 30
0.0
 11
118.675700
 21
105.270750
 31
0.0
  0
LINE
  5
26d
100
AcDbEntity
  8
Livello_1
 62
7
100
AcDbLine
 10
118.675700
 20
105.270750
 30
0.0
 11
114.751000
 21
105.270750
 31
0.0
  0
LINE
  5
26e
100
AcDbEntity
  8
Livello_1
 62
7
100
AcDbLine
 10
114.751000
 20
105.270750
 30
0.0
 11
110.826300
 21
105.270750
 31
0.0
  0
LINE
  5
26f
100
AcDbEntity
  8
Livello_1
 62
7
100
AcDbLine
 10
110.826300
 20
105.270750
 30
0.0
 11
110.826300
 21
100.263360
 31
0.0
  0
LINE
  5
270
100
AcDbEntity
  8
Livello_1
 62
7
100
AcDbLine
 10
110.826300
 20
100.263360
 30
0.0
 11
110.826300
 21
95.255990
 31
0.0
  0
LINE
  5
271
100
AcDbEntity
  8
Livello_1
 62
7
100
AcDbLine
 10
110.826300
 20
95.255990
 30
0.0
 11
114.751000
 21
95.255990
 31
0.0
  0
LINE
  5
272
100
AcDbEntity
  8
Livello_1
 62
7
100
AcDbLine
 10
114.751000
 20
95.255990
 30
0.0
 11
118.675700
 21
95.255990
 31
0.0
  0
LINE
  5
273
100
AcDbEntity
  8
Livello_1
 62
7
100
AcDbLine
 10
118.675700
 20
95.255990
 30
0.0
 11
118.675700
 21
100.263360
 31
0.0
  0
LINE
  5
274
100
AcDbEntity
  8
Livello_1
 62
7
100
AcDbLine
 10
127.337120
 20
100.263360
 30
0.0
 11
127.337120
 21
105.270750
 31
0.0
  0
LINE
  5
275
100
AcDbEntity
  8
Livello_1
 62
7
100
AcDbLine
 10
127.337120
 20
105.270750
 30
0.0
 11
123.412390
 21
105.270750
 31
0.0
  0
LINE
  5
276
100
AcDbEntity
  8
Livello_1
 62
7
100
AcDbLine
 10
123.412390
 20
105.270750
 30
0.0
 11
119.487720
 21
105.270750
 31
0.0
  0
LINE
  5
277
100
AcDbEntity
  8
Livello_1
 62
7
100
AcDbLine
 10
119.487720
 20
105.270750
 30
0.0
 11
119.487720
 21
100.263360
 31
0.0
  0
LINE
  5
278
100
AcDbEntity
  8
Livello_1
 62
7
100
AcDbLine
 10
119.487720
 20
100.263360
 30
0.0
 11
119.487720
 21
95.255990
 31
0.0
  0
LINE
  5
279
100
AcDbEntity
  8
Livello_1
 62
7
100
AcDbLine
 10
119.487720
 20
95.255990
 30
0.0
 11
123.412390
 21
95.255990
 31
0.0
  0
LINE
  5
27a
100
AcDbEntity
  8
Livello_1
 62
7
100
AcDbLine
 10
123.412390
 20
95.255990
 30
0.0
 11
127.337120
 21
95.255990
 31
0.0
  0
LINE
  5
27b
100
AcDbEntity
  8
Livello_1
 62
7
100
AcDbLine
 10
127.337120
 20
95.255990
 30
0.0
 11
127.337120
 21
100.263360
 31
0.0
  0
LINE
  5
27c
100
AcDbEntity
  8
Livello_1
 62
7
100
AcDbLine
 10
135.998510
 20
100.263360
 30
0.0
 11
135.998510
 21
105.270750
 31
0.0
  0
LINE
  5
27d
100
AcDbEntity
  8
Livello_1
 62
7
100
AcDbLine
 10
135.998510
 20
105.270750
 30
0.0
 11
132.073830
 21
105.270750
 31
0.0
  0
LINE
  5
27e
100
AcDbEntity
  8
Livello_1
 62
7
100
AcDbLine
 10
132.073830
 20
105.270750
 30
0.0
 11
128.149110
 21
105.270750
 31
0.0
  0
LINE
  5
27f
100
AcDbEntity
  8
Livello_1
 62
7
100
AcDbLine
 10
128.149110
 20
105.270750
 30
0.0
 11
128.149110
 21
100.263360
 31
0.0
  0
LINE
  5
280
100
AcDbEntity
  8
Livello_1
 62
7
100
AcDbLine
 10
128.149110
 20
100.263360
 30
0.0
 11
128.149110
 21
95.255990
 31
0.0
  0
LINE
  5
281
100
AcDbEntity
  8
Livello_1
 62
7
100
AcDbLine
 10
128.149110
 20
95.255990
 30
0.0
 11
132.073830
 21
95.255990
 31
0.0
  0
LINE
  5
282
100
AcDbEntity
  8
Livello_1
 62
7
100
AcDbLine
 10
132.073830
 20
95.255990
 30
0.0
 11
135.998510
 21
95.255990
 31
0.0
  0
LINE
  5
283
100
AcDbEntity
  8
Livello_1
 62
7
100
AcDbLine
 10
135.998510
 20
95.255990
 30
0.0
 11
135.998510
 21
100.263360
 31
0.0
  0
LINE
  5
284
100
AcDbEntity
  8
Livello_1
 62
7
100
AcDbLine
 10
144.659920
 20
100.263360
 30
0.0
 11
144.659920
 21
105.270750
 31
0.0
  0
LINE
  5
285
100
AcDbEntity
  8
Livello_1
 62
7
100
AcDbLine
 10
144.659920
 20
105.270750
 30
0.0
 11
140.735220
 21
105.270750
 31
0.0
  0
LINE
  5
286
100
AcDbEntity
  8
Livello_1
 62
7
100
AcDbLine
 10
140.735220
 20
105.270750
 30
0.0
 11
136.810520
 21
105.270750
 31
0.0
  0
LINE
  5
287
100
AcDbEntity
  8
Livello_1
 62
7
100
AcDbLine
 10
136.810520
 20
105.270750
 30
0.0
 11
136.810520
 21
100.263360
 31
0.0
  0
LINE
  5
288
100
AcDbEntity
  8
Livello_1
 62
7
100
AcDbLine
 10
136.810520
 20
100.263360
 30
0.0
 11
136.810520
 21
95.255990
 31
0.0
  0
LINE
  5
289
100
AcDbEntity
  8
Livello_1
 62
7
100
AcDbLine
 10
136.810520
 20
95.255990
 30
0.0
 11
140.735220
 21
95.255990
 31
0.0
  0
LINE
  5
28a
100
AcDbEntity
  8
Livello_1
 62
7
100
AcDbLine
 10
140.735220
 20
95.255990
 30
0.0
 11
144.659920
 21
95.255990
 31
0.0
  0
LINE
  5
28b
100
AcDbEntity
  8
Livello_1
 62
7
100
AcDbLine
 10
144.659920
 20
95.255990
 30
0.0
 11
144.659920
 21
100.263360
 31
0.0
  0
SPLINE
  5
28c
100
AcDbEntity
  8
Livello_1
 62
7
100
AcDbSpline
 70
8
 71
3
 72
8
 73
4
 74
0
 40
0
 40
0
 40
0
 40
0
 40
1
 40
1
 40
1
 40
1
 10
84.030073
 20
106.637630
 30
0.0
 10
84.030073
 20
107.549950
 30
0.0
 10
84.006773
 20
107.621750
 30
0.0
 10
83.569923
 20
108.058640
 30
0.0
  0
LINE
  5
28d
100
AcDbEntity
  8
Livello_1
 62
7
100
AcDbLine
 10
83.569923
 20
108.058640
 30
0.0
 11
83.109783
 21
108.518780
 31
0.0
  0
LINE
  5
28e
100
AcDbEntity
  8
Livello_1
 62
7
100
AcDbLine
 10
83.109783
 20
108.518780
 30
0.0
 11
80.105373
 21
108.518780
 31
0.0
  0
LINE
  5
28f
100
AcDbEntity
  8
Livello_1
 62
7
100
AcDbLine
 10
80.105373
 20
108.518780
 30
0.0
 11
77.100933
 21
108.518780
 31
0.0
  0
LINE
  5
290
100
AcDbEntity
  8
Livello_1
 62
7
100
AcDbLine
 10
77.100933
 20
108.518780
 30
0.0
 11
76.640813
 21
108.058640
 31
0.0
  0
SPLINE
  5
291
100
AcDbEntity
  8
Livello_1
 62
7
100
AcDbSpline
 70
8
 71
3
 72
8
 73
4
 74
0
 40
0
 40
0
 40
0
 40
0
 40
1
 40
1
 40
1
 40
1
 10
76.640813
 20
108.058640
 30
0.0
 10
76.203923
 20
107.621750
 30
0.0
 10
76.180653
 20
107.549950
 30
0.0
 10
76.180653
 20
106.637630
 30
0.0
  0
LINE
  5
292
100
AcDbEntity
  8
Livello_1
 62
7
100
AcDbLine
 10
76.180653
 20
106.637630
 30
0.0
 11
76.180653
 21
105.676750
 31
0.0
  0
LINE
  5
293
100
AcDbEntity
  8
Livello_1
 62
7
100
AcDbLine
 10
76.180653
 20
105.676750
 30
0.0
 11
80.105373
 21
105.676750
 31
0.0
  0
LINE
  5
294
100
AcDbEntity
  8
Livello_1
 62
7
100
AcDbLine
 10
80.105373
 20
105.676750
 30
0.0
 11
84.030073
 21
105.676750
 31
0.0
  0
LINE
  5
295
100
AcDbEntity
  8
Livello_1
 62
7
100
AcDbLine
 10
84.030073
 20
105.676750
 30
0.0
 11
84.030073
 21
106.637630
 31
0.0
  0
SPLINE
  5
296
100
AcDbEntity
  8
Livello_1
 62
7
100
AcDbSpline
 70
8
 71
3
 72
8
 73
4
 74
0
 40
0
 40
0
 40
0
 40
0
 40
1
 40
1
 40
1
 40
1
 10
92.691463
 20
106.637630
 30
0.0
 10
92.691463
 20
107.549950
 30
0.0
 10
92.668163
 20
107.621750
 30
0.0
 10
92.231343
 20
108.058640
 30
0.0
  0
LINE
  5
297
100
AcDbEntity
  8
Livello_1
 62
7
100
AcDbLine
 10
92.231343
 20
108.058640
 30
0.0
 11
91.771203
 21
108.518780
 31
0.0
  0
LINE
  5
298
100
AcDbEntity
  8
Livello_1
 62
7
100
AcDbLine
 10
91.771203
 20
108.518780
 30
0.0
 11
88.766763
 21
108.518780
 31
0.0
  0
LINE
  5
299
100
AcDbEntity
  8
Livello_1
 62
7
100
AcDbLine
 10
88.766763
 20
108.518780
 30
0.0
 11
85.762353
 21
108.518780
 31
0.0
  0
LINE
  5
29a
100
AcDbEntity
  8
Livello_1
 62
7
100
AcDbLine
 10
85.762353
 20
108.518780
 30
0.0
 11
85.302203
 21
108.058640
 31
0.0
  0
SPLINE
  5
29b
100
AcDbEntity
  8
Livello_1
 62
7
100
AcDbSpline
 70
8
 71
3
 72
8
 73
4
 74
0
 40
0
 40
0
 40
0
 40
0
 40
1
 40
1
 40
1
 40
1
 10
85.302203
 20
108.058640
 30
0.0
 10
84.865323
 20
107.621750
 30
0.0
 10
84.842063
 20
107.549950
 30
0.0
 10
84.842063
 20
106.637630
 30
0.0
  0
LINE
  5
29c
100
AcDbEntity
  8
Livello_1
 62
7
100
AcDbLine
 10
84.842063
 20
106.637630
 30
0.0
 11
84.842063
 21
105.676750
 31
0.0
  0
LINE
  5
29d
100
AcDbEntity
  8
Livello_1
 62
7
100
AcDbLine
 10
84.842063
 20
105.676750
 30
0.0
 11
88.766763
 21
105.676750
 31
0.0
  0
LINE
  5
29e
100
AcDbEntity
  8
Livello_1
 62
7
100
AcDbLine
 10
88.766763
 20
105.676750
 30
0.0
 11
92.691463
 21
105.676750
 31
0.0
  0
LINE
  5
29f
100
AcDbEntity
  8
Livello_1
 62
7
100
AcDbLine
 10
92.691463
 20
105.676750
 30
0.0
 11
92.691463
 21
106.637630
 31
0.0
  0
SPLINE
  5
2a0
100
AcDbEntity
  8
Livello_1
 62
7
100
AcDbSpline
 70
8
 71
3
 72
8
 73
4
 74
0
 40
0
 40
0
 40
0
 40
0
 40
1
 40
1
 40
1
 40
1
 10
101.352870
 20
106.637630
 30
0.0
 10
101.352870
 20
107.549950
 30
0.0
 10
101.329570
 20
107.621750
 30
0.0
 10
100.892750
 20
108.058640
 30
0.0
  0
LINE
  5
2a1
100
AcDbEntity
  8
Livello_1
 62
7
100
AcDbLine
 10
100.892750
 20
108.058640
 30
0.0
 11
100.432590
 21
108.518780
 31
0.0
  0
LINE
  5
2a2
100
AcDbEntity
  8
Livello_1
 62
7
100
AcDbLine
 10
100.432590
 20
108.518780
 30
0.0
 11
97.428173
 21
108.518780
 31
0.0
  0
LINE
  5
2a3
100
AcDbEntity
  8
Livello_1
 62
7
100
AcDbLine
 10
97.428173
 20
108.518780
 30
0.0
 11
94.423763
 21
108.518780
 31
0.0
  0
LINE
  5
2a4
100
AcDbEntity
  8
Livello_1
 62
7
100
AcDbLine
 10
94.423763
 20
108.518780
 30
0.0
 11
93.963623
 21
108.058640
 31
0.0
  0
SPLINE
  5
2a5
100
AcDbEntity
  8
Livello_1
 62
7
100
AcDbSpline
 70
8
 71
3
 72
8
 73
4
 74
0
 40
0
 40
0
 40
0
 40
0
 40
1
 40
1
 40
1
 40
1
 10
93.963623
 20
108.058640
 30
0.0
 10
93.526733
 20
107.621750
 30
0.0
 10
93.503483
 20
107.549950
 30
0.0
 10
93.503483
 20
106.637630
 30
0.0
  0
LINE
  5
2a6
100
AcDbEntity
  8
Livello_1
 62
7
100
AcDbLine
 10
93.503483
 20
106.637630
 30
0.0
 11
93.503483
 21
105.676750
 31
0.0
  0
LINE
  5
2a7
100
AcDbEntity
  8
Livello_1
 62
7
100
AcDbLine
 10
93.503483
 20
105.676750
 30
0.0
 11
97.428173
 21
105.676750
 31
0.0
  0
LINE
  5
2a8
100
AcDbEntity
  8
Livello_1
 62
7
100
AcDbLine
 10
97.428173
 20
105.676750
 30
0.0
 11
101.352870
 21
105.676750
 31
0.0
  0
LINE
  5
2a9
100
AcDbEntity
  8
Livello_1
 62
7
100
AcDbLine
 10
101.352870
 20
105.676750
 30
0.0
 11
101.352870
 21
106.637630
 31
0.0
  0
SPLINE
  5
2aa
100
AcDbEntity
  8
Livello_1
 62
7
100
AcDbSpline
 70
8
 71
3
 72
8
 73
4
 74
0
 40
0
 40
0
 40
0
 40
0
 40
1
 40
1
 40
1
 40
1
 10
110.014290
 20
106.637630
 30
0.0
 10
110.014290
 20
107.549950
 30
0.0
 10
109.990990
 20
107.621750
 30
0.0
 10
109.554170
 20
108.058640
 30
0.0
  0
LINE
  5
2ab
100
AcDbEntity
  8
Livello_1
 62
7
100
AcDbLine
 10
109.554170
 20
108.058640
 30
0.0
 11
109.094020
 21
108.518780
 31
0.0
  0
LINE
  5
2ac
100
AcDbEntity
  8
Livello_1
 62
7
100
AcDbLine
 10
109.094020
 20
108.518780
 30
0.0
 11
106.089590
 21
108.518780
 31
0.0
  0
LINE
  5
2ad
100
AcDbEntity
  8
Livello_1
 62
7
100
AcDbLine
 10
106.089590
 20
108.518780
 30
0.0
 11
103.085170
 21
108.518780
 31
0.0
  0
LINE
  5
2ae
100
AcDbEntity
  8
Livello_1
 62
7
100
AcDbLine
 10
103.085170
 20
108.518780
 30
0.0
 11
102.625030
 21
108.058640
 31
0.0
  0
SPLINE
  5
2af
100
AcDbEntity
  8
Livello_1
 62
7
100
AcDbSpline
 70
8
 71
3
 72
8
 73
4
 74
0
 40
0
 40
0
 40
0
 40
0
 40
1
 40
1
 40
1
 40
1
 10
102.625030
 20
108.058640
 30
0.0
 10
102.188150
 20
107.621750
 30
0.0
 10
102.164890
 20
107.549950
 30
0.0
 10
102.164890
 20
106.637630
 30
0.0
  0
LINE
  5
2b0
100
AcDbEntity
  8
Livello_1
 62
7
100
AcDbLine
 10
102.164890
 20
106.637630
 30
0.0
 11
102.164890
 21
105.676750
 31
0.0
  0
LINE
  5
2b1
100
AcDbEntity
  8
Livello_1
 62
7
100
AcDbLine
 10
102.164890
 20
105.676750
 30
0.0
 11
106.089590
 21
105.676750
 31
0.0
  0
LINE
  5
2b2
100
AcDbEntity
  8
Livello_1
 62
7
100
AcDbLine
 10
106.089590
 20
105.676750
 30
0.0
 11
110.014290
 21
105.676750
 31
0.0
  0
LINE
  5
2b3
100
AcDbEntity
  8
Livello_1
 62
7
100
AcDbLine
 10
110.014290
 20
105.676750
 30
0.0
 11
110.014290
 21
106.637630
 31
0.0
  0
SPLINE
  5
2b4
100
AcDbEntity
  8
Livello_1
 62
7
100
AcDbSpline
 70
8
 71
3
 72
8
 73
4
 74
0
 40
0
 40
0
 40
0
 40
0
 40
1
 40
1
 40
1
 40
1
 10
118.675700
 20
106.637630
 30
0.0
 10
118.675700
 20
107.549950
 30
0.0
 10
118.652400
 20
107.621750
 30
0.0
 10
118.215560
 20
108.058640
 30
0.0
  0
LINE
  5
2b5
100
AcDbEntity
  8
Livello_1
 62
7
100
AcDbLine
 10
118.215560
 20
108.058640
 30
0.0
 11
117.755420
 21
108.518780
 31
0.0
  0
LINE
  5
2b6
100
AcDbEntity
  8
Livello_1
 62
7
100
AcDbLine
 10
117.755420
 20
108.518780
 30
0.0
 11
114.751000
 21
108.518780
 31
0.0
  0
LINE
  5
2b7
100
AcDbEntity
  8
Livello_1
 62
7
100
AcDbLine
 10
114.751000
 20
108.518780
 30
0.0
 11
111.746570
 21
108.518780
 31
0.0
  0
LINE
  5
2b8
100
AcDbEntity
  8
Livello_1
 62
7
100
AcDbLine
 10
111.746570
 20
108.518780
 30
0.0
 11
111.286420
 21
108.058640
 31
0.0
  0
SPLINE
  5
2b9
100
AcDbEntity
  8
Livello_1
 62
7
100
AcDbSpline
 70
8
 71
3
 72
8
 73
4
 74
0
 40
0
 40
0
 40
0
 40
0
 40
1
 40
1
 40
1
 40
1
 10
111.286420
 20
108.058640
 30
0.0
 10
110.849560
 20
107.621750
 30
0.0
 10
110.826300
 20
107.549950
 30
0.0
 10
110.826300
 20
106.637630
 30
0.0
  0
LINE
  5
2ba
100
AcDbEntity
  8
Livello_1
 62
7
100
AcDbLine
 10
110.826300
 20
106.637630
 30
0.0
 11
110.826300
 21
105.676750
 31
0.0
  0
LINE
  5
2bb
100
AcDbEntity
  8
Livello_1
 62
7
100
AcDbLine
 10
110.826300
 20
105.676750
 30
0.0
 11
114.751000
 21
105.676750
 31
0.0
  0
LINE
  5
2bc
100
AcDbEntity
  8
Livello_1
 62
7
100
AcDbLine
 10
114.751000
 20
105.676750
 30
0.0
 11
118.675700
 21
105.676750
 31
0.0
  0
LINE
  5
2bd
100
AcDbEntity
  8
Livello_1
 62
7
100
AcDbLine
 10
118.675700
 20
105.676750
 30
0.0
 11
118.675700
 21
106.637630
 31
0.0
  0
SPLINE
  5
2be
100
AcDbEntity
  8
Livello_1
 62
7
100
AcDbSpline
 70
8
 71
3
 72
8
 73
4
 74
0
 40
0
 40
0
 40
0
 40
0
 40
1
 40
1
 40
1
 40
1
 10
127.337120
 20
106.637630
 30
0.0
 10
127.337120
 20
107.549950
 30
0.0
 10
127.313820
 20
107.621750
 30
0.0
 10
126.876970
 20
108.058640
 30
0.0
  0
LINE
  5
2bf
100
AcDbEntity
  8
Livello_1
 62
7
100
AcDbLine
 10
126.876970
 20
108.058640
 30
0.0
 11
126.416830
 21
108.518780
 31
0.0
  0
LINE
  5
2c0
100
AcDbEntity
  8
Livello_1
 62
7
100
AcDbLine
 10
126.416830
 20
108.518780
 30
0.0
 11
123.412390
 21
108.518780
 31
0.0
  0
LINE
  5
2c1
100
AcDbEntity
  8
Livello_1
 62
7
100
AcDbLine
 10
123.412390
 20
108.518780
 30
0.0
 11
120.407980
 21
108.518780
 31
0.0
  0
LINE
  5
2c2
100
AcDbEntity
  8
Livello_1
 62
7
100
AcDbLine
 10
120.407980
 20
108.518780
 30
0.0
 11
119.947840
 21
108.058640
 31
0.0
  0
SPLINE
  5
2c3
100
AcDbEntity
  8
Livello_1
 62
7
100
AcDbSpline
 70
8
 71
3
 72
8
 73
4
 74
0
 40
0
 40
0
 40
0
 40
0
 40
1
 40
1
 40
1
 40
1
 10
119.947840
 20
108.058640
 30
0.0
 10
119.510950
 20
107.621750
 30
0.0
 10
119.487720
 20
107.549950
 30
0.0
 10
119.487720
 20
106.637630
 30
0.0
  0
LINE
  5
2c4
100
AcDbEntity
  8
Livello_1
 62
7
100
AcDbLine
 10
119.487720
 20
106.637630
 30
0.0
 11
119.487720
 21
105.676750
 31
0.0
  0
LINE
  5
2c5
100
AcDbEntity
  8
Livello_1
 62
7
100
AcDbLine
 10
119.487720
 20
105.676750
 30
0.0
 11
123.412390
 21
105.676750
 31
0.0
  0
LINE
  5
2c6
100
AcDbEntity
  8
Livello_1
 62
7
100
AcDbLine
 10
123.412390
 20
105.676750
 30
0.0
 11
127.337120
 21
105.676750
 31
0.0
  0
LINE
  5
2c7
100
AcDbEntity
  8
Livello_1
 62
7
100
AcDbLine
 10
127.337120
 20
105.676750
 30
0.0
 11
127.337120
 21
106.637630
 31
0.0
  0
SPLINE
  5
2c8
100
AcDbEntity
  8
Livello_1
 62
7
100
AcDbSpline
 70
8
 71
3
 72
8
 73
4
 74
0
 40
0
 40
0
 40
0
 40
0
 40
1
 40
1
 40
1
 40
1
 10
135.998510
 20
106.637630
 30
0.0
 10
135.998510
 20
107.549950
 30
0.0
 10
135.975210
 20
107.621750
 30
0.0
 10
135.538390
 20
108.058640
 30
0.0
  0
LINE
  5
2c9
100
AcDbEntity
  8
Livello_1
 62
7
100
AcDbLine
 10
135.538390
 20
108.058640
 30
0.0
 11
135.078250
 21
108.518780
 31
0.0
  0
LINE
  5
2ca
100
AcDbEntity
  8
Livello_1
 62
7
100
AcDbLine
 10
135.078250
 20
108.518780
 30
0.0
 11
132.073830
 21
108.518780
 31
0.0
  0
LINE
  5
2cb
100
AcDbEntity
  8
Livello_1
 62
7
100
AcDbLine
 10
132.073830
 20
108.518780
 30
0.0
 11
129.069390
 21
108.518780
 31
0.0
  0
LINE
  5
2cc
100
AcDbEntity
  8
Livello_1
 62
7
100
AcDbLine
 10
129.069390
 20
108.518780
 30
0.0
 11
128.609250
 21
108.058640
 31
0.0
  0
SPLINE
  5
2cd
100
AcDbEntity
  8
Livello_1
 62
7
100
AcDbSpline
 70
8
 71
3
 72
8
 73
4
 74
0
 40
0
 40
0
 40
0
 40
0
 40
1
 40
1
 40
1
 40
1
 10
128.609250
 20
108.058640
 30
0.0
 10
128.172370
 20
107.621750
 30
0.0
 10
128.149110
 20
107.549950
 30
0.0
 10
128.149110
 20
106.637630
 30
0.0
  0
LINE
  5
2ce
100
AcDbEntity
  8
Livello_1
 62
7
100
AcDbLine
 10
128.149110
 20
106.637630
 30
0.0
 11
128.149110
 21
105.676750
 31
0.0
  0
LINE
  5
2cf
100
AcDbEntity
  8
Livello_1
 62
7
100
AcDbLine
 10
128.149110
 20
105.676750
 30
0.0
 11
132.073830
 21
105.676750
 31
0.0
  0
LINE
  5
2d0
100
AcDbEntity
  8
Livello_1
 62
7
100
AcDbLine
 10
132.073830
 20
105.676750
 30
0.0
 11
135.998510
 21
105.676750
 31
0.0
  0
LINE
  5
2d1
100
AcDbEntity
  8
Livello_1
 62
7
100
AcDbLine
 10
135.998510
 20
105.676750
 30
0.0
 11
135.998510
 21
106.637630
 31
0.0
  0
SPLINE
  5
2d2
100
AcDbEntity
  8
Livello_1
 62
7
100
AcDbSpline
 70
8
 71
3
 72
8
 73
4
 74
0
 40
0
 40
0
 40
0
 40
0
 40
1
 40
1
 40
1
 40
1
 10
144.659920
 20
106.637630
 30
0.0
 10
144.659920
 20
107.549950
 30
0.0
 10
144.636620
 20
107.621750
 30
0.0
 10
144.199780
 20
108.058640
 30
0.0
  0
LINE
  5
2d3
100
AcDbEntity
  8
Livello_1
 62
7
100
AcDbLine
 10
144.199780
 20
108.058640
 30
0.0
 11
143.739660
 21
108.518780
 31
0.0
  0
LINE
  5
2d4
100
AcDbEntity
  8
Livello_1
 62
7
100
AcDbLine
 10
143.739660
 20
108.518780
 30
0.0
 11
140.735220
 21
108.518780
 31
0.0
  0
LINE
  5
2d5
100
AcDbEntity
  8
Livello_1
 62
7
100
AcDbLine
 10
140.735220
 20
108.518780
 30
0.0
 11
137.730810
 21
108.518780
 31
0.0
  0
LINE
  5
2d6
100
AcDbEntity
  8
Livello_1
 62
7
100
AcDbLine
 10
137.730810
 20
108.518780
 30
0.0
 11
137.270670
 21
108.058640
 31
0.0
  0
SPLINE
  5
2d7
100
AcDbEntity
  8
Livello_1
 62
7
100
AcDbSpline
 70
8
 71
3
 72
8
 73
4
 74
0
 40
0
 40
0
 40
0
 40
0
 40
1
 40
1
 40
1
 40
1
 10
137.270670
 20
108.058640
 30
0.0
 10
136.833780
 20
107.621750
 30
0.0
 10
136.810520
 20
107.549950
 30
0.0
 10
136.810520
 20
106.637630
 30
0.0
  0
LINE
  5
2d8
100
AcDbEntity
  8
Livello_1
 62
7
100
AcDbLine
 10
136.810520
 20
106.637630
 30
0.0
 11
136.810520
 21
105.676750
 31
0.0
  0
LINE
  5
2d9
100
AcDbEntity
  8
Livello_1
 62
7
100
AcDbLine
 10
136.810520
 20
105.676750
 30
0.0
 11
140.735220
 21
105.676750
 31
0.0
  0
LINE
  5
2da
100
AcDbEntity
  8
Livello_1
 62
7
100
AcDbLine
 10
140.735220
 20
105.676750
 30
0.0
 11
144.659920
 21
105.676750
 31
0.0
  0
LINE
  5
2db
100
AcDbEntity
  8
Livello_1
 62
7
100
AcDbLine
 10
144.659920
 20
105.676750
 30
0.0
 11
144.659920
 21
106.637630
 31
0.0
  0
SPLINE
  5
2dc
100
AcDbEntity
  8
Livello_1
 62
7
100
AcDbSpline
 70
8
 71
3
 72
8
 73
4
 74
0
 40
0
 40
0
 40
0
 40
0
 40
1
 40
1
 40
1
 40
1
 10
83.569923
 20
109.790910
 30
0.0
 10
84.006813
 20
110.227800
 30
0.0
 10
84.030073
 20
110.299620
 30
0.0
 10
84.030073
 20
111.211940
 30
0.0
  0
LINE
  5
2dd
100
AcDbEntity
  8
Livello_1
 62
7
100
AcDbLine
 10
84.030073
 20
111.211940
 30
0.0
 11
84.030073
 21
112.172820
 31
0.0
  0
LINE
  5
2de
100
AcDbEntity
  8
Livello_1
 62
7
100
AcDbLine
 10
84.030073
 20
112.172820
 30
0.0
 11
80.105373
 21
112.172820
 31
0.0
  0
LINE
  5
2df
100
AcDbEntity
  8
Livello_1
 62
7
100
AcDbLine
 10
80.105373
 20
112.172820
 30
0.0
 11
76.180653
 21
112.172820
 31
0.0
  0
LINE
  5
2e0
100
AcDbEntity
  8
Livello_1
 62
7
100
AcDbLine
 10
76.180653
 20
112.172820
 30
0.0
 11
76.180653
 21
111.211940
 31
0.0
  0
SPLINE
  5
2e1
100
AcDbEntity
  8
Livello_1
 62
7
100
AcDbSpline
 70
8
 71
3
 72
8
 73
4
 74
0
 40
0
 40
0
 40
0
 40
0
 40
1
 40
1
 40
1
 40
1
 10
76.180653
 20
111.211940
 30
0.0
 10
76.180653
 20
110.299620
 30
0.0
 10
76.203953
 20
110.227800
 30
0.0
 10
76.640813
 20
109.790910
 30
0.0
  0
LINE
  5
2e2
100
AcDbEntity
  8
Livello_1
 62
7
100
AcDbLine
 10
76.640813
 20
109.790910
 30
0.0
 11
77.100933
 21
109.330790
 31
0.0
  0
LINE
  5
2e3
100
AcDbEntity
  8
Livello_1
 62
7
100
AcDbLine
 10
77.100933
 20
109.330790
 30
0.0
 11
80.105373
 21
109.330790
 31
0.0
  0
LINE
  5
2e4
100
AcDbEntity
  8
Livello_1
 62
7
100
AcDbLine
 10
80.105373
 20
109.330790
 30
0.0
 11
83.109783
 21
109.330790
 31
0.0
  0
LINE
  5
2e5
100
AcDbEntity
  8
Livello_1
 62
7
100
AcDbLine
 10
83.109783
 20
109.330790
 30
0.0
 11
83.569923
 21
109.790910
 31
0.0
  0
SPLINE
  5
2e6
100
AcDbEntity
  8
Livello_1
 62
7
100
AcDbSpline
 70
8
 71
3
 72
8
 73
4
 74
0
 40
0
 40
0
 40
0
 40
0
 40
1
 40
1
 40
1
 40
1
 10
92.231343
 20
109.790910
 30
0.0
 10
92.668223
 20
110.227800
 30
0.0
 10
92.691463
 20
110.299620
 30
0.0
 10
92.691463
 20
111.211940
 30
0.0
  0
LINE
  5
2e7
100
AcDbEntity
  8
Livello_1
 62
7
100
AcDbLine
 10
92.691463
 20
111.211940
 30
0.0
 11
92.691463
 21
112.172820
 31
0.0
  0
LINE
  5
2e8
100
AcDbEntity
  8
Livello_1
 62
7
100
AcDbLine
 10
92.691463
 20
112.172820
 30
0.0
 11
88.766763
 21
112.172820
 31
0.0
  0
LINE
  5
2e9
100
AcDbEntity
  8
Livello_1
 62
7
100
AcDbLine
 10
88.766763
 20
112.172820
 30
0.0
 11
84.842063
 21
112.172820
 31
0.0
  0
LINE
  5
2ea
100
AcDbEntity
  8
Livello_1
 62
7
100
AcDbLine
 10
84.842063
 20
112.172820
 30
0.0
 11
84.842063
 21
111.211940
 31
0.0
  0
SPLINE
  5
2eb
100
AcDbEntity
  8
Livello_1
 62
7
100
AcDbSpline
 70
8
 71
3
 72
8
 73
4
 74
0
 40
0
 40
0
 40
0
 40
0
 40
1
 40
1
 40
1
 40
1
 10
84.842063
 20
111.211940
 30
0.0
 10
84.842063
 20
110.299620
 30
0.0
 10
84.865363
 20
110.227800
 30
0.0
 10
85.302203
 20
109.790910
 30
0.0
  0
LINE
  5
2ec
100
AcDbEntity
  8
Livello_1
 62
7
100
AcDbLine
 10
85.302203
 20
109.790910
 30
0.0
 11
85.762353
 21
109.330790
 31
0.0
  0
LINE
  5
2ed
100
AcDbEntity
  8
Livello_1
 62
7
100
AcDbLine
 10
85.762353
 20
109.330790
 30
0.0
 11
88.766763
 21
109.330790
 31
0.0
  0
LINE
  5
2ee
100
AcDbEntity
  8
Livello_1
 62
7
100
AcDbLine
 10
88.766763
 20
109.330790
 30
0.0
 11
91.771203
 21
109.330790
 31
0.0
  0
LINE
  5
2ef
100
AcDbEntity
  8
Livello_1
 62
7
100
AcDbLine
 10
91.771203
 20
109.330790
 30
0.0
 11
92.231343
 21
109.790910
 31
0.0
  0
SPLINE
  5
2f0
100
AcDbEntity
  8
Livello_1
 62
7
100
AcDbSpline
 70
8
 71
3
 72
8
 73
4
 74
0
 40
0
 40
0
 40
0
 40
0
 40
1
 40
1
 40
1
 40
1
 10
100.892750
 20
109.790910
 30
0.0
 10
101.329640
 20
110.227800
 30
0.0
 10
101.352870
 20
110.299620
 30
0.0
 10
101.352870
 20
111.211940
 30
0.0
  0
LINE
  5
2f1
100
AcDbEntity
  8
Livello_1
 62
7
100
AcDbLine
 10
101.352870
 20
111.211940
 30
0.0
 11
101.352870
 21
112.172820
 31
0.0
  0
LINE
  5
2f2
100
AcDbEntity
  8
Livello_1
 62
7
100
AcDbLine
 10
101.352870
 20
112.172820
 30
0.0
 11
97.428173
 21
112.172820
 31
0.0
  0
LINE
  5
2f3
100
AcDbEntity
  8
Livello_1
 62
7
100
AcDbLine
 10
97.428173
 20
112.172820
 30
0.0
 11
93.503483
 21
112.172820
 31
0.0
  0
LINE
  5
2f4
100
AcDbEntity
  8
Livello_1
 62
7
100
AcDbLine
 10
93.503483
 20
112.172820
 30
0.0
 11
93.503483
 21
111.211940
 31
0.0
  0
SPLINE
  5
2f5
100
AcDbEntity
  8
Livello_1
 62
7
100
AcDbSpline
 70
8
 71
3
 72
8
 73
4
 74
0
 40
0
 40
0
 40
0
 40
0
 40
1
 40
1
 40
1
 40
1
 10
93.503483
 20
111.211940
 30
0.0
 10
93.503483
 20
110.299620
 30
0.0
 10
93.526783
 20
110.227800
 30
0.0
 10
93.963623
 20
109.790910
 30
0.0
  0
LINE
  5
2f6
100
AcDbEntity
  8
Livello_1
 62
7
100
AcDbLine
 10
93.963623
 20
109.790910
 30
0.0
 11
94.423763
 21
109.330790
 31
0.0
  0
LINE
  5
2f7
100
AcDbEntity
  8
Livello_1
 62
7
100
AcDbLine
 10
94.423763
 20
109.330790
 30
0.0
 11
97.428173
 21
109.330790
 31
0.0
  0
LINE
  5
2f8
100
AcDbEntity
  8
Livello_1
 62
7
100
AcDbLine
 10
97.428173
 20
109.330790
 30
0.0
 11
100.432590
 21
109.330790
 31
0.0
  0
LINE
  5
2f9
100
AcDbEntity
  8
Livello_1
 62
7
100
AcDbLine
 10
100.432590
 20
109.330790
 30
0.0
 11
100.892750
 21
109.790910
 31
0.0
  0
SPLINE
  5
2fa
100
AcDbEntity
  8
Livello_1
 62
7
100
AcDbSpline
 70
8
 71
3
 72
8
 73
4
 74
0
 40
0
 40
0
 40
0
 40
0
 40
1
 40
1
 40
1
 40
1
 10
109.554170
 20
109.790910
 30
0.0
 10
109.991050
 20
110.227800
 30
0.0
 10
110.014290
 20
110.299620
 30
0.0
 10
110.014290
 20
111.211940
 30
0.0
  0
LINE
  5
2fb
100
AcDbEntity
  8
Livello_1
 62
7
100
AcDbLine
 10
110.014290
 20
111.211940
 30
0.0
 11
110.014290
 21
112.172820
 31
0.0
  0
LINE
  5
2fc
100
AcDbEntity
  8
Livello_1
 62
7
100
AcDbLine
 10
110.014290
 20
112.172820
 30
0.0
 11
106.089590
 21
112.172820
 31
0.0
  0
LINE
  5
2fd
100
AcDbEntity
  8
Livello_1
 62
7
100
AcDbLine
 10
106.089590
 20
112.172820
 30
0.0
 11
102.164890
 21
112.172820
 31
0.0
  0
LINE
  5
2fe
100
AcDbEntity
  8
Livello_1
 62
7
100
AcDbLine
 10
102.164890
 20
112.172820
 30
0.0
 11
102.164890
 21
111.211940
 31
0.0
  0
SPLINE
  5
2ff
100
AcDbEntity
  8
Livello_1
 62
7
100
AcDbSpline
 70
8
 71
3
 72
8
 73
4
 74
0
 40
0
 40
0
 40
0
 40
0
 40
1
 40
1
 40
1
 40
1
 10
102.164890
 20
111.211940
 30
0.0
 10
102.164890
 20
110.299620
 30
0.0
 10
102.188190
 20
110.227800
 30
0.0
 10
102.625030
 20
109.790910
 30
0.0
  0
LINE
  5
300
100
AcDbEntity
  8
Livello_1
 62
7
100
AcDbLine
 10
102.625030
 20
109.790910
 30
0.0
 11
103.085170
 21
109.330790
 31
0.0
  0
LINE
  5
301
100
AcDbEntity
  8
Livello_1
 62
7
100
AcDbLine
 10
103.085170
 20
109.330790
 30
0.0
 11
106.089590
 21
109.330790
 31
0.0
  0
LINE
  5
302
100
AcDbEntity
  8
Livello_1
 62
7
100
AcDbLine
 10
106.089590
 20
109.330790
 30
0.0
 11
109.094020
 21
109.330790
 31
0.0
  0
LINE
  5
303
100
AcDbEntity
  8
Livello_1
 62
7
100
AcDbLine
 10
109.094020
 20
109.330790
 30
0.0
 11
109.554170
 21
109.790910
 31
0.0
  0
SPLINE
  5
304
100
AcDbEntity
  8
Livello_1
 62
7
100
AcDbSpline
 70
8
 71
3
 72
8
 73
4
 74
0
 40
0
 40
0
 40
0
 40
0
 40
1
 40
1
 40
1
 40
1
 10
118.215560
 20
109.790910
 30
0.0
 10
118.652440
 20
110.227800
 30
0.0
 10
118.675700
 20
110.299620
 30
0.0
 10
118.675700
 20
111.211940
 30
0.0
  0
LINE
  5
305
100
AcDbEntity
  8
Livello_1
 62
7
100
AcDbLine
 10
118.675700
 20
111.211940
 30
0.0
 11
118.675700
 21
112.172820
 31
0.0
  0
LINE
  5
306
100
AcDbEntity
  8
Livello_1
 62
7
100
AcDbLine
 10
118.675700
 20
112.172820
 30
0.0
 11
114.751000
 21
112.172820
 31
0.0
  0
LINE
  5
307
100
AcDbEntity
  8
Livello_1
 62
7
100
AcDbLine
 10
114.751000
 20
112.172820
 30
0.0
 11
110.826300
 21
112.172820
 31
0.0
  0
LINE
  5
308
100
AcDbEntity
  8
Livello_1
 62
7
100
AcDbLine
 10
110.826300
 20
112.172820
 30
0.0
 11
110.826300
 21
111.211940
 31
0.0
  0
SPLINE
  5
309
100
AcDbEntity
  8
Livello_1
 62
7
100
AcDbSpline
 70
8
 71
3
 72
8
 73
4
 74
0
 40
0
 40
0
 40
0
 40
0
 40
1
 40
1
 40
1
 40
1
 10
110.826300
 20
111.211940
 30
0.0
 10
110.826300
 20
110.299620
 30
0.0
 10
110.849600
 20
110.227800
 30
0.0
 10
111.286420
 20
109.790910
 30
0.0
  0
LINE
  5
30a
100
AcDbEntity
  8
Livello_1
 62
7
100
AcDbLine
 10
111.286420
 20
109.790910
 30
0.0
 11
111.746570
 21
109.330790
 31
0.0
  0
LINE
  5
30b
100
AcDbEntity
  8
Livello_1
 62
7
100
AcDbLine
 10
111.746570
 20
109.330790
 30
0.0
 11
114.751000
 21
109.330790
 31
0.0
  0
LINE
  5
30c
100
AcDbEntity
  8
Livello_1
 62
7
100
AcDbLine
 10
114.751000
 20
109.330790
 30
0.0
 11
117.755420
 21
109.330790
 31
0.0
  0
LINE
  5
30d
100
AcDbEntity
  8
Livello_1
 62
7
100
AcDbLine
 10
117.755420
 20
109.330790
 30
0.0
 11
118.215560
 21
109.790910
 31
0.0
  0
SPLINE
  5
30e
100
AcDbEntity
  8
Livello_1
 62
7
100
AcDbSpline
 70
8
 71
3
 72
8
 73
4
 74
0
 40
0
 40
0
 40
0
 40
0
 40
1
 40
1
 40
1
 40
1
 10
126.876970
 20
109.790910
 30
0.0
 10
127.313860
 20
110.227800
 30
0.0
 10
127.337120
 20
110.299620
 30
0.0
 10
127.337120
 20
111.211940
 30
0.0
  0
LINE
  5
30f
100
AcDbEntity
  8
Livello_1
 62
7
100
AcDbLine
 10
127.337120
 20
111.211940
 30
0.0
 11
127.337120
 21
112.172820
 31
0.0
  0
LINE
  5
310
100
AcDbEntity
  8
Livello_1
 62
7
100
AcDbLine
 10
127.337120
 20
112.172820
 30
0.0
 11
123.412390
 21
112.172820
 31
0.0
  0
LINE
  5
311
100
AcDbEntity
  8
Livello_1
 62
7
100
AcDbLine
 10
123.412390
 20
112.172820
 30
0.0
 11
119.487720
 21
112.172820
 31
0.0
  0
LINE
  5
312
100
AcDbEntity
  8
Livello_1
 62
7
100
AcDbLine
 10
119.487720
 20
112.172820
 30
0.0
 11
119.487720
 21
111.211940
 31
0.0
  0
SPLINE
  5
313
100
AcDbEntity
  8
Livello_1
 62
7
100
AcDbSpline
 70
8
 71
3
 72
8
 73
4
 74
0
 40
0
 40
0
 40
0
 40
0
 40
1
 40
1
 40
1
 40
1
 10
119.487720
 20
111.211940
 30
0.0
 10
119.487720
 20
110.299620
 30
0.0
 10
119.511020
 20
110.227800
 30
0.0
 10
119.947840
 20
109.790910
 30
0.0
  0
LINE
  5
314
100
AcDbEntity
  8
Livello_1
 62
7
100
AcDbLine
 10
119.947840
 20
109.790910
 30
0.0
 11
120.407980
 21
109.330790
 31
0.0
  0
LINE
  5
315
100
AcDbEntity
  8
Livello_1
 62
7
100
AcDbLine
 10
120.407980
 20
109.330790
 30
0.0
 11
123.412390
 21
109.330790
 31
0.0
  0
LINE
  5
316
100
AcDbEntity
  8
Livello_1
 62
7
100
AcDbLine
 10
123.412390
 20
109.330790
 30
0.0
 11
126.416830
 21
109.330790
 31
0.0
  0
LINE
  5
317
100
AcDbEntity
  8
Livello_1
 62
7
100
AcDbLine
 10
126.416830
 20
109.330790
 30
0.0
 11
126.876970
 21
109.790910
 31
0.0
  0
SPLINE
  5
318
100
AcDbEntity
  8
Livello_1
 62
7
100
AcDbSpline
 70
8
 71
3
 72
8
 73
4
 74
0
 40
0
 40
0
 40
0
 40
0
 40
1
 40
1
 40
1
 40
1
 10
135.538390
 20
109.790910
 30
0.0
 10
135.975270
 20
110.227800
 30
0.0
 10
135.998510
 20
110.299620
 30
0.0
 10
135.998510
 20
111.211940
 30
0.0
  0
LINE
  5
319
100
AcDbEntity
  8
Livello_1
 62
7
100
AcDbLine
 10
135.998510
 20
111.211940
 30
0.0
 11
135.998510
 21
112.172820
 31
0.0
  0
LINE
  5
31a
100
AcDbEntity
  8
Livello_1
 62
7
100
AcDbLine
 10
135.998510
 20
112.172820
 30
0.0
 11
132.073830
 21
112.172820
 31
0.0
  0
LINE
  5
31b
100
AcDbEntity
  8
Livello_1
 62
7
100
AcDbLine
 10
132.073830
 20
112.172820
 30
0.0
 11
128.149110
 21
112.172820
 31
0.0
  0
LINE
  5
31c
100
AcDbEntity
  8
Livello_1
 62
7
100
AcDbLine
 10
128.149110
 20
112.172820
 30
0.0
 11
128.149110
 21
111.211940
 31
0.0
  0
SPLINE
  5
31d
100
AcDbEntity
  8
Livello_1
 62
7
100
AcDbSpline
 70
8
 71
3
 72
8
 73
4
 74
0
 40
0
 40
0
 40
0
 40
0
 40
1
 40
1
 40
1
 40
1
 10
128.149110
 20
111.211940
 30
0.0
 10
128.149110
 20
110.299620
 30
0.0
 10
128.172410
 20
110.227800
 30
0.0
 10
128.609250
 20
109.790910
 30
0.0
  0
LINE
  5
31e
100
AcDbEntity
  8
Livello_1
 62
7
100
AcDbLine
 10
128.609250
 20
109.790910
 30
0.0
 11
129.069390
 21
109.330790
 31
0.0
  0
LINE
  5
31f
100
AcDbEntity
  8
Livello_1
 62
7
100
AcDbLine
 10
129.069390
 20
109.330790
 30
0.0
 11
132.073830
 21
109.330790
 31
0.0
  0
LINE
  5
320
100
AcDbEntity
  8
Livello_1
 62
7
100
AcDbLine
 10
132.073830
 20
109.330790
 30
0.0
 11
135.078250
 21
109.330790
 31
0.0
  0
LINE
  5
321
100
AcDbEntity
  8
Livello_1
 62
7
100
AcDbLine
 10
135.078250
 20
109.330790
 30
0.0
 11
135.538390
 21
109.790910
 31
0.0
  0
SPLINE
  5
322
100
AcDbEntity
  8
Livello_1
 62
7
100
AcDbSpline
 70
8
 71
3
 72
8
 73
4
 74
0
 40
0
 40
0
 40
0
 40
0
 40
1
 40
1
 40
1
 40
1
 10
144.199780
 20
109.790910
 30
0.0
 10
144.636670
 20
110.227800
 30
0.0
 10
144.659920
 20
110.299620
 30
0.0
 10
144.659920
 20
111.211940
 30
0.0
  0
LINE
  5
323
100
AcDbEntity
  8
Livello_1
 62
7
100
AcDbLine
 10
144.659920
 20
111.211940
 30
0.0
 11
144.659920
 21
112.172820
 31
0.0
  0
LINE
  5
324
100
AcDbEntity
  8
Livello_1
 62
7
100
AcDbLine
 10
144.659920
 20
112.172820
 30
0.0
 11
140.735220
 21
112.172820
 31
0.0
  0
LINE
  5
325
100
AcDbEntity
  8
Livello_1
 62
7
100
AcDbLine
 10
140.735220
 20
112.172820
 30
0.0
 11
136.810520
 21
112.172820
 31
0.0
  0
LINE
  5
326
100
AcDbEntity
  8
Livello_1
 62
7
100
AcDbLine
 10
136.810520
 20
112.172820
 30
0.0
 11
136.810520
 21
111.211940
 31
0.0
  0
SPLINE
  5
327
100
AcDbEntity
  8
Livello_1
 62
7
100
AcDbSpline
 70
8
 71
3
 72
8
 73
4
 74
0
 40
0
 40
0
 40
0
 40
0
 40
1
 40
1
 40
1
 40
1
 10
136.810520
 20
111.211940
 30
0.0
 10
136.810520
 20
110.299620
 30
0.0
 10
136.833820
 20
110.227800
 30
0.0
 10
137.270670
 20
109.790910
 30
0.0
  0
LINE
  5
328
100
AcDbEntity
  8
Livello_1
 62
7
100
AcDbLine
 10
137.270670
 20
109.790910
 30
0.0
 11
137.730810
 21
109.330790
 31
0.0
  0
LINE
  5
329
100
AcDbEntity
  8
Livello_1
 62
7
100
AcDbLine
 10
137.730810
 20
109.330790
 30
0.0
 11
140.735220
 21
109.330790
 31
0.0
  0
LINE
  5
32a
100
AcDbEntity
  8
Livello_1
 62
7
100
AcDbLine
 10
140.735220
 20
109.330790
 30
0.0
 11
143.739660
 21
109.330790
 31
0.0
  0
LINE
  5
32b
100
AcDbEntity
  8
Livello_1
 62
7
100
AcDbLine
 10
143.739660
 20
109.330790
 30
0.0
 11
144.199780
 21
109.790910
 31
0.0
  0
LINE
  5
32c
100
AcDbEntity
  8
Livello_1
 62
7
100
AcDbLine
 10
84.030073
 20
117.586190
 30
0.0
 11
84.030073
 21
122.593560
 31
0.0
  0
LINE
  5
32d
100
AcDbEntity
  8
Livello_1
 62
7
100
AcDbLine
 10
84.030073
 20
122.593560
 30
0.0
 11
80.105373
 21
122.593560
 31
0.0
  0
LINE
  5
32e
100
AcDbEntity
  8
Livello_1
 62
7
100
AcDbLine
 10
80.105373
 20
122.593560
 30
0.0
 11
76.180653
 21
122.593560
 31
0.0
  0
LINE
  5
32f
100
AcDbEntity
  8
Livello_1
 62
7
100
AcDbLine
 10
76.180653
 20
122.593560
 30
0.0
 11
76.180653
 21
117.586190
 31
0.0
  0
LINE
  5
330
100
AcDbEntity
  8
Livello_1
 62
7
100
AcDbLine
 10
76.180653
 20
117.586190
 30
0.0
 11
76.180653
 21
112.578820
 31
0.0
  0
LINE
  5
331
100
AcDbEntity
  8
Livello_1
 62
7
100
AcDbLine
 10
76.180653
 20
112.578820
 30
0.0
 11
80.105373
 21
112.578820
 31
0.0
  0
LINE
  5
332
100
AcDbEntity
  8
Livello_1
 62
7
100
AcDbLine
 10
80.105373
 20
112.578820
 30
0.0
 11
84.030073
 21
112.578820
 31
0.0
  0
LINE
  5
333
100
AcDbEntity
  8
Livello_1
 62
7
100
AcDbLine
 10
84.030073
 20
112.578820
 30
0.0
 11
84.030073
 21
117.586190
 31
0.0
  0
LINE
  5
334
100
AcDbEntity
  8
Livello_1
 62
7
100
AcDbLine
 10
92.691463
 20
117.586190
 30
0.0
 11
92.691463
 21
122.593560
 31
0.0
  0
LINE
  5
335
100
AcDbEntity
  8
Livello_1
 62
7
100
AcDbLine
 10
92.691463
 20
122.593560
 30
0.0
 11
88.766763
 21
122.593560
 31
0.0
  0
LINE
  5
336
100
AcDbEntity
  8
Livello_1
 62
7
100
AcDbLine
 10
88.766763
 20
122.593560
 30
0.0
 11
84.842063
 21
122.593560
 31
0.0
  0
LINE
  5
337
100
AcDbEntity
  8
Livello_1
 62
7
100
AcDbLine
 10
84.842063
 20
122.593560
 30
0.0
 11
84.842063
 21
117.586190
 31
0.0
  0
LINE
  5
338
100
AcDbEntity
  8
Livello_1
 62
7
100
AcDbLine
 10
84.842063
 20
117.586190
 30
0.0
 11
84.842063
 21
112.578820
 31
0.0
  0
LINE
  5
339
100
AcDbEntity
  8
Livello_1
 62
7
100
AcDbLine
 10
84.842063
 20
112.578820
 30
0.0
 11
88.766763
 21
112.578820
 31
0.0
  0
LINE
  5
33a
100
AcDbEntity
  8
Livello_1
 62
7
100
AcDbLine
 10
88.766763
 20
112.578820
 30
0.0
 11
92.691463
 21
112.578820
 31
0.0
  0
LINE
  5
33b
100
AcDbEntity
  8
Livello_1
 62
7
100
AcDbLine
 10
92.691463
 20
112.578820
 30
0.0
 11
92.691463
 21
117.586190
 31
0.0
  0
LINE
  5
33c
100
AcDbEntity
  8
Livello_1
 62
7
100
AcDbLine
 10
101.352870
 20
117.586190
 30
0.0
 11
101.352870
 21
122.593560
 31
0.0
  0
LINE
  5
33d
100
AcDbEntity
  8
Livello_1
 62
7
100
AcDbLine
 10
101.352870
 20
122.593560
 30
0.0
 11
97.428173
 21
122.593560
 31
0.0
  0
LINE
  5
33e
100
AcDbEntity
  8
Livello_1
 62
7
100
AcDbLine
 10
97.428173
 20
122.593560
 30
0.0
 11
93.503483
 21
122.593560
 31
0.0
  0
LINE
  5
33f
100
AcDbEntity
  8
Livello_1
 62
7
100
AcDbLine
 10
93.503483
 20
122.593560
 30
0.0
 11
93.503483
 21
117.586190
 31
0.0
  0
LINE
  5
340
100
AcDbEntity
  8
Livello_1
 62
7
100
AcDbLine
 10
93.503483
 20
117.586190
 30
0.0
 11
93.503483
 21
112.578820
 31
0.0
  0
LINE
  5
341
100
AcDbEntity
  8
Livello_1
 62
7
100
AcDbLine
 10
93.503483
 20
112.578820
 30
0.0
 11
97.428173
 21
112.578820
 31
0.0
  0
LINE
  5
342
100
AcDbEntity
  8
Livello_1
 62
7
100
AcDbLine
 10
97.428173
 20
112.578820
 30
0.0
 11
101.352870
 21
112.578820
 31
0.0
  0
LINE
  5
343
100
AcDbEntity
  8
Livello_1
 62
7
100
AcDbLine
 10
101.352870
 20
112.578820
 30
0.0
 11
101.352870
 21
117.586190
 31
0.0
  0
LINE
  5
344
100
AcDbEntity
  8
Livello_1
 62
7
100
AcDbLine
 10
110.014290
 20
117.586190
 30
0.0
 11
110.014290
 21
122.593560
 31
0.0
  0
LINE
  5
345
100
AcDbEntity
  8
Livello_1
 62
7
100
AcDbLine
 10
110.014290
 20
122.593560
 30
0.0
 11
106.089590
 21
122.593560
 31
0.0
  0
LINE
  5
346
100
AcDbEntity
  8
Livello_1
 62
7
100
AcDbLine
 10
106.089590
 20
122.593560
 30
0.0
 11
102.164890
 21
122.593560
 31
0.0
  0
LINE
  5
347
100
AcDbEntity
  8
Livello_1
 62
7
100
AcDbLine
 10
102.164890
 20
122.593560
 30
0.0
 11
102.164890
 21
117.586190
 31
0.0
  0
LINE
  5
348
100
AcDbEntity
  8
Livello_1
 62
7
100
AcDbLine
 10
102.164890
 20
117.586190
 30
0.0
 11
102.164890
 21
112.578820
 31
0.0
  0
LINE
  5
349
100
AcDbEntity
  8
Livello_1
 62
7
100
AcDbLine
 10
102.164890
 20
112.578820
 30
0.0
 11
106.089590
 21
112.578820
 31
0.0
  0
LINE
  5
34a
100
AcDbEntity
  8
Livello_1
 62
7
100
AcDbLine
 10
106.089590
 20
112.578820
 30
0.0
 11
110.014290
 21
112.578820
 31
0.0
  0
LINE
  5
34b
100
AcDbEntity
  8
Livello_1
 62
7
100
AcDbLine
 10
110.014290
 20
112.578820
 30
0.0
 11
110.014290
 21
117.586190
 31
0.0
  0
LINE
  5
34c
100
AcDbEntity
  8
Livello_1
 62
7
100
AcDbLine
 10
118.675700
 20
117.586190
 30
0.0
 11
118.675700
 21
122.593560
 31
0.0
  0
LINE
  5
34d
100
AcDbEntity
  8
Livello_1
 62
7
100
AcDbLine
 10
118.675700
 20
122.593560
 30
0.0
 11
114.751000
 21
122.593560
 31
0.0
  0
LINE
  5
34e
100
AcDbEntity
  8
Livello_1
 62
7
100
AcDbLine
 10
114.751000
 20
122.593560
 30
0.0
 11
110.826300
 21
122.593560
 31
0.0
  0
LINE
  5
34f
100
AcDbEntity
  8
Livello_1
 62
7
100
AcDbLine
 10
110.826300
 20
122.593560
 30
0.0
 11
110.826300
 21
117.586190
 31
0.0
  0
LINE
  5
350
100
AcDbEntity
  8
Livello_1
 62
7
100
AcDbLine
 10
110.826300
 20
117.586190
 30
0.0
 11
110.826300
 21
112.578820
 31
0.0
  0
LINE
  5
351
100
AcDbEntity
  8
Livello_1
 62
7
100
AcDbLine
 10
110.826300
 20
112.578820
 30
0.0
 11
114.751000
 21
112.578820
 31
0.0
  0
LINE
  5
352
100
AcDbEntity
  8
Livello_1
 62
7
100
AcDbLine
 10
114.751000
 20
112.578820
 30
0.0
 11
118.675700
 21
112.578820
 31
0.0
  0
LINE
  5
353
100
AcDbEntity
  8
Livello_1
 62
7
100
AcDbLine
 10
118.675700
 20
112.578820
 30
0.0
 11
118.675700
 21
117.586190
 31
0.0
  0
LINE
  5
354
100
AcDbEntity
  8
Livello_1
 62
7
100
AcDbLine
 10
127.337120
 20
117.586190
 30
0.0
 11
127.337120
 21
122.593560
 31
0.0
  0
LINE
  5
355
100
AcDbEntity
  8
Livello_1
 62
7
100
AcDbLine
 10
127.337120
 20
122.593560
 30
0.0
 11
123.412390
 21
122.593560
 31
0.0
  0
LINE
  5
356
100
AcDbEntity
  8
Livello_1
 62
7
100
AcDbLine
 10
123.412390
 20
122.593560
 30
0.0
 11
119.487720
 21
122.593560
 31
0.0
  0
LINE
  5
357
100
AcDbEntity
  8
Livello_1
 62
7
100
AcDbLine
 10
119.487720
 20
122.593560
 30
0.0
 11
119.487720
 21
117.586190
 31
0.0
  0
LINE
  5
358
100
AcDbEntity
  8
Livello_1
 62
7
100
AcDbLine
 10
119.487720
 20
117.586190
 30
0.0
 11
119.487720
 21
112.578820
 31
0.0
  0
LINE
  5
359
100
AcDbEntity
  8
Livello_1
 62
7
100
AcDbLine
 10
119.487720
 20
112.578820
 30
0.0
 11
123.412390
 21
112.578820
 31
0.0
  0
LINE
  5
35a
100
AcDbEntity
  8
Livello_1
 62
7
100
AcDbLine
 10
123.412390
 20
112.578820
 30
0.0
 11
127.337120
 21
112.578820
 31
0.0
  0
LINE
  5
35b
100
AcDbEntity
  8
Livello_1
 62
7
100
AcDbLine
 10
127.337120
 20
112.578820
 30
0.0
 11
127.337120
 21
117.586190
 31
0.0
  0
LINE
  5
35c
100
AcDbEntity
  8
Livello_1
 62
7
100
AcDbLine
 10
135.998510
 20
117.586190
 30
0.0
 11
135.998510
 21
122.593560
 31
0.0
  0
LINE
  5
35d
100
AcDbEntity
  8
Livello_1
 62
7
100
AcDbLine
 10
135.998510
 20
122.593560
 30
0.0
 11
132.073830
 21
122.593560
 31
0.0
  0
LINE
  5
35e
100
AcDbEntity
  8
Livello_1
 62
7
100
AcDbLine
 10
132.073830
 20
122.593560
 30
0.0
 11
128.149110
 21
122.593560
 31
0.0
  0
LINE
  5
35f
100
AcDbEntity
  8
Livello_1
 62
7
100
AcDbLine
 10
128.149110
 20
122.593560
 30
0.0
 11
128.149110
 21
117.586190
 31
0.0
  0
LINE
  5
360
100
AcDbEntity
  8
Livello_1
 62
7
100
AcDbLine
 10
128.149110
 20
117.586190
 30
0.0
 11
128.149110
 21
112.578820
 31
0.0
  0
LINE
  5
361
100
AcDbEntity
  8
Livello_1
 62
7
100
AcDbLine
 10
128.149110
 20
112.578820
 30
0.0
 11
132.073830
 21
112.578820
 31
0.0
  0
LINE
  5
362
100
AcDbEntity
  8
Livello_1
 62
7
100
AcDbLine
 10
132.073830
 20
112.578820
 30
0.0
 11
135.998510
 21
112.578820
 31
0.0
  0
LINE
  5
363
100
AcDbEntity
  8
Livello_1
 62
7
100
AcDbLine
 10
135.998510
 20
112.578820
 30
0.0
 11
135.998510
 21
117.586190
 31
0.0
  0
LINE
  5
364
100
AcDbEntity
  8
Livello_1
 62
7
100
AcDbLine
 10
144.659920
 20
117.586190
 30
0.0
 11
144.659920
 21
122.593560
 31
0.0
  0
LINE
  5
365
100
AcDbEntity
  8
Livello_1
 62
7
100
AcDbLine
 10
144.659920
 20
122.593560
 30
0.0
 11
140.735220
 21
122.593560
 31
0.0
  0
LINE
  5
366
100
AcDbEntity
  8
Livello_1
 62
7
100
AcDbLine
 10
140.735220
 20
122.593560
 30
0.0
 11
136.810520
 21
122.593560
 31
0.0
  0
LINE
  5
367
100
AcDbEntity
  8
Livello_1
 62
7
100
AcDbLine
 10
136.810520
 20
122.593560
 30
0.0
 11
136.810520
 21
117.586190
 31
0.0
  0
LINE
  5
368
100
AcDbEntity
  8
Livello_1
 62
7
100
AcDbLine
 10
136.810520
 20
117.586190
 30
0.0
 11
136.810520
 21
112.578820
 31
0.0
  0
LINE
  5
369
100
AcDbEntity
  8
Livello_1
 62
7
100
AcDbLine
 10
136.810520
 20
112.578820
 30
0.0
 11
140.735220
 21
112.578820
 31
0.0
  0
LINE
  5
36a
100
AcDbEntity
  8
Livello_1
 62
7
100
AcDbLine
 10
140.735220
 20
112.578820
 30
0.0
 11
144.659920
 21
112.578820
 31
0.0
  0
LINE
  5
36b
100
AcDbEntity
  8
Livello_1
 62
7
100
AcDbLine
 10
144.659920
 20
112.578820
 30
0.0
 11
144.659920
 21
117.586190
 31
0.0
  0
SPLINE
  5
36c
100
AcDbEntity
  8
Livello_1
 62
7
100
AcDbSpline
 70
8
 71
3
 72
8
 73
4
 74
0
 40
0
 40
0
 40
0
 40
0
 40
1
 40
1
 40
1
 40
1
 10
84.030073
 20
123.960440
 30
0.0
 10
84.030073
 20
124.872750
 30
0.0
 10
84.006773
 20
124.944580
 30
0.0
 10
83.569923
 20
125.381460
 30
0.0
  0
LINE
  5
36d
100
AcDbEntity
  8
Livello_1
 62
7
100
AcDbLine
 10
83.569923
 20
125.381460
 30
0.0
 11
83.109783
 21
125.841580
 31
0.0
  0
LINE
  5
36e
100
AcDbEntity
  8
Livello_1
 62
7
100
AcDbLine
 10
83.109783
 20
125.841580
 30
0.0
 11
80.105373
 21
125.841580
 31
0.0
  0
LINE
  5
36f
100
AcDbEntity
  8
Livello_1
 62
7
100
AcDbLine
 10
80.105373
 20
125.841580
 30
0.0
 11
77.100933
 21
125.841580
 31
0.0
  0
LINE
  5
370
100
AcDbEntity
  8
Livello_1
 62
7
100
AcDbLine
 10
77.100933
 20
125.841580
 30
0.0
 11
76.640813
 21
125.381460
 31
0.0
  0
SPLINE
  5
371
100
AcDbEntity
  8
Livello_1
 62
7
100
AcDbSpline
 70
8
 71
3
 72
8
 73
4
 74
0
 40
0
 40
0
 40
0
 40
0
 40
1
 40
1
 40
1
 40
1
 10
76.640813
 20
125.381460
 30
0.0
 10
76.203923
 20
124.944580
 30
0.0
 10
76.180653
 20
124.872750
 30
0.0
 10
76.180653
 20
123.960440
 30
0.0
  0
LINE
  5
372
100
AcDbEntity
  8
Livello_1
 62
7
100
AcDbLine
 10
76.180653
 20
123.960440
 30
0.0
 11
76.180653
 21
122.999560
 31
0.0
  0
LINE
  5
373
100
AcDbEntity
  8
Livello_1
 62
7
100
AcDbLine
 10
76.180653
 20
122.999560
 30
0.0
 11
80.105373
 21
122.999560
 31
0.0
  0
LINE
  5
374
100
AcDbEntity
  8
Livello_1
 62
7
100
AcDbLine
 10
80.105373
 20
122.999560
 30
0.0
 11
84.030073
 21
122.999560
 31
0.0
  0
LINE
  5
375
100
AcDbEntity
  8
Livello_1
 62
7
100
AcDbLine
 10
84.030073
 20
122.999560
 30
0.0
 11
84.030073
 21
123.960440
 31
0.0
  0
SPLINE
  5
376
100
AcDbEntity
  8
Livello_1
 62
7
100
AcDbSpline
 70
8
 71
3
 72
8
 73
4
 74
0
 40
0
 40
0
 40
0
 40
0
 40
1
 40
1
 40
1
 40
1
 10
92.691463
 20
123.960440
 30
0.0
 10
92.691463
 20
124.872750
 30
0.0
 10
92.668163
 20
124.944580
 30
0.0
 10
92.231343
 20
125.381460
 30
0.0
  0
LINE
  5
377
100
AcDbEntity
  8
Livello_1
 62
7
100
AcDbLine
 10
92.231343
 20
125.381460
 30
0.0
 11
91.771203
 21
125.841580
 31
0.0
  0
LINE
  5
378
100
AcDbEntity
  8
Livello_1
 62
7
100
AcDbLine
 10
91.771203
 20
125.841580
 30
0.0
 11
88.766763
 21
125.841580
 31
0.0
  0
LINE
  5
379
100
AcDbEntity
  8
Livello_1
 62
7
100
AcDbLine
 10
88.766763
 20
125.841580
 30
0.0
 11
85.762353
 21
125.841580
 31
0.0
  0
LINE
  5
37a
100
AcDbEntity
  8
Livello_1
 62
7
100
AcDbLine
 10
85.762353
 20
125.841580
 30
0.0
 11
85.302203
 21
125.381460
 31
0.0
  0
SPLINE
  5
37b
100
AcDbEntity
  8
Livello_1
 62
7
100
AcDbSpline
 70
8
 71
3
 72
8
 73
4
 74
0
 40
0
 40
0
 40
0
 40
0
 40
1
 40
1
 40
1
 40
1
 10
85.302203
 20
125.381460
 30
0.0
 10
84.865323
 20
124.944580
 30
0.0
 10
84.842063
 20
124.872750
 30
0.0
 10
84.842063
 20
123.960440
 30
0.0
  0
LINE
  5
37c
100
AcDbEntity
  8
Livello_1
 62
7
100
AcDbLine
 10
84.842063
 20
123.960440
 30
0.0
 11
84.842063
 21
122.999560
 31
0.0
  0
LINE
  5
37d
100
AcDbEntity
  8
Livello_1
 62
7
100
AcDbLine
 10
84.842063
 20
122.999560
 30
0.0
 11
88.766763
 21
122.999560
 31
0.0
  0
LINE
  5
37e
100
AcDbEntity
  8
Livello_1
 62
7
100
AcDbLine
 10
88.766763
 20
122.999560
 30
0.0
 11
92.691463
 21
122.999560
 31
0.0
  0
LINE
  5
37f
100
AcDbEntity
  8
Livello_1
 62
7
100
AcDbLine
 10
92.691463
 20
122.999560
 30
0.0
 11
92.691463
 21
123.960440
 31
0.0
  0
SPLINE
  5
380
100
AcDbEntity
  8
Livello_1
 62
7
100
AcDbSpline
 70
8
 71
3
 72
8
 73
4
 74
0
 40
0
 40
0
 40
0
 40
0
 40
1
 40
1
 40
1
 40
1
 10
101.352870
 20
123.960440
 30
0.0
 10
101.352870
 20
124.872750
 30
0.0
 10
101.329570
 20
124.944580
 30
0.0
 10
100.892750
 20
125.381460
 30
0.0
  0
LINE
  5
381
100
AcDbEntity
  8
Livello_1
 62
7
100
AcDbLine
 10
100.892750
 20
125.381460
 30
0.0
 11
100.432590
 21
125.841580
 31
0.0
  0
LINE
  5
382
100
AcDbEntity
  8
Livello_1
 62
7
100
AcDbLine
 10
100.432590
 20
125.841580
 30
0.0
 11
97.428173
 21
125.841580
 31
0.0
  0
LINE
  5
383
100
AcDbEntity
  8
Livello_1
 62
7
100
AcDbLine
 10
97.428173
 20
125.841580
 30
0.0
 11
94.423763
 21
125.841580
 31
0.0
  0
LINE
  5
384
100
AcDbEntity
  8
Livello_1
 62
7
100
AcDbLine
 10
94.423763
 20
125.841580
 30
0.0
 11
93.963623
 21
125.381460
 31
0.0
  0
SPLINE
  5
385
100
AcDbEntity
  8
Livello_1
 62
7
100
AcDbSpline
 70
8
 71
3
 72
8
 73
4
 74
0
 40
0
 40
0
 40
0
 40
0
 40
1
 40
1
 40
1
 40
1
 10
93.963623
 20
125.381460
 30
0.0
 10
93.526733
 20
124.944580
 30
0.0
 10
93.503483
 20
124.872750
 30
0.0
 10
93.503483
 20
123.960440
 30
0.0
  0
LINE
  5
386
100
AcDbEntity
  8
Livello_1
 62
7
100
AcDbLine
 10
93.503483
 20
123.960440
 30
0.0
 11
93.503483
 21
122.999560
 31
0.0
  0
LINE
  5
387
100
AcDbEntity
  8
Livello_1
 62
7
100
AcDbLine
 10
93.503483
 20
122.999560
 30
0.0
 11
97.428173
 21
122.999560
 31
0.0
  0
LINE
  5
388
100
AcDbEntity
  8
Livello_1
 62
7
100
AcDbLine
 10
97.428173
 20
122.999560
 30
0.0
 11
101.352870
 21
122.999560
 31
0.0
  0
LINE
  5
389
100
AcDbEntity
  8
Livello_1
 62
7
100
AcDbLine
 10
101.352870
 20
122.999560
 30
0.0
 11
101.352870
 21
123.960440
 31
0.0
  0
SPLINE
  5
38a
100
AcDbEntity
  8
Livello_1
 62
7
100
AcDbSpline
 70
8
 71
3
 72
8
 73
4
 74
0
 40
0
 40
0
 40
0
 40
0
 40
1
 40
1
 40
1
 40
1
 10
110.014290
 20
123.960440
 30
0.0
 10
110.014290
 20
124.872750
 30
0.0
 10
109.990990
 20
124.944580
 30
0.0
 10
109.554170
 20
125.381460
 30
0.0
  0
LINE
  5
38b
100
AcDbEntity
  8
Livello_1
 62
7
100
AcDbLine
 10
109.554170
 20
125.381460
 30
0.0
 11
109.094020
 21
125.841580
 31
0.0
  0
LINE
  5
38c
100
AcDbEntity
  8
Livello_1
 62
7
100
AcDbLine
 10
109.094020
 20
125.841580
 30
0.0
 11
106.089590
 21
125.841580
 31
0.0
  0
LINE
  5
38d
100
AcDbEntity
  8
Livello_1
 62
7
100
AcDbLine
 10
106.089590
 20
125.841580
 30
0.0
 11
103.085170
 21
125.841580
 31
0.0
  0
LINE
  5
38e
100
AcDbEntity
  8
Livello_1
 62
7
100
AcDbLine
 10
103.085170
 20
125.841580
 30
0.0
 11
102.625030
 21
125.381460
 31
0.0
  0
SPLINE
  5
38f
100
AcDbEntity
  8
Livello_1
 62
7
100
AcDbSpline
 70
8
 71
3
 72
8
 73
4
 74
0
 40
0
 40
0
 40
0
 40
0
 40
1
 40
1
 40
1
 40
1
 10
102.625030
 20
125.381460
 30
0.0
 10
102.188150
 20
124.944580
 30
0.0
 10
102.164890
 20
124.872750
 30
0.0
 10
102.164890
 20
123.960440
 30
0.0
  0
LINE
  5
390
100
AcDbEntity
  8
Livello_1
 62
7
100
AcDbLine
 10
102.164890
 20
123.960440
 30
0.0
 11
102.164890
 21
122.999560
 31
0.0
  0
LINE
  5
391
100
AcDbEntity
  8
Livello_1
 62
7
100
AcDbLine
 10
102.164890
 20
122.999560
 30
0.0
 11
106.089590
 21
122.999560
 31
0.0
  0
LINE
  5
392
100
AcDbEntity
  8
Livello_1
 62
7
100
AcDbLine
 10
106.089590
 20
122.999560
 30
0.0
 11
110.014290
 21
122.999560
 31
0.0
  0
LINE
  5
393
100
AcDbEntity
  8
Livello_1
 62
7
100
AcDbLine
 10
110.014290
 20
122.999560
 30
0.0
 11
110.014290
 21
123.960440
 31
0.0
  0
SPLINE
  5
394
100
AcDbEntity
  8
Livello_1
 62
7
100
AcDbSpline
 70
8
 71
3
 72
8
 73
4
 74
0
 40
0
 40
0
 40
0
 40
0
 40
1
 40
1
 40
1
 40
1
 10
118.675700
 20
123.960440
 30
0.0
 10
118.675700
 20
124.872750
 30
0.0
 10
118.652400
 20
124.944580
 30
0.0
 10
118.215560
 20
125.381460
 30
0.0
  0
LINE
  5
395
100
AcDbEntity
  8
Livello_1
 62
7
100
AcDbLine
 10
118.215560
 20
125.381460
 30
0.0
 11
117.755420
 21
125.841580
 31
0.0
  0
LINE
  5
396
100
AcDbEntity
  8
Livello_1
 62
7
100
AcDbLine
 10
117.755420
 20
125.841580
 30
0.0
 11
114.751000
 21
125.841580
 31
0.0
  0
LINE
  5
397
100
AcDbEntity
  8
Livello_1
 62
7
100
AcDbLine
 10
114.751000
 20
125.841580
 30
0.0
 11
111.746570
 21
125.841580
 31
0.0
  0
LINE
  5
398
100
AcDbEntity
  8
Livello_1
 62
7
100
AcDbLine
 10
111.746570
 20
125.841580
 30
0.0
 11
111.286420
 21
125.381460
 31
0.0
  0
SPLINE
  5
399
100
AcDbEntity
  8
Livello_1
 62
7
100
AcDbSpline
 70
8
 71
3
 72
8
 73
4
 74
0
 40
0
 40
0
 40
0
 40
0
 40
1
 40
1
 40
1
 40
1
 10
111.286420
 20
125.381460
 30
0.0
 10
110.849560
 20
124.944580
 30
0.0
 10
110.826300
 20
124.872750
 30
0.0
 10
110.826300
 20
123.960440
 30
0.0
  0
LINE
  5
39a
100
AcDbEntity
  8
Livello_1
 62
7
100
AcDbLine
 10
110.826300
 20
123.960440
 30
0.0
 11
110.826300
 21
122.999560
 31
0.0
  0
LINE
  5
39b
100
AcDbEntity
  8
Livello_1
 62
7
100
AcDbLine
 10
110.826300
 20
122.999560
 30
0.0
 11
114.751000
 21
122.999560
 31
0.0
  0
LINE
  5
39c
100
AcDbEntity
  8
Livello_1
 62
7
100
AcDbLine
 10
114.751000
 20
122.999560
 30
0.0
 11
118.675700
 21
122.999560
 31
0.0
  0
LINE
  5
39d
100
AcDbEntity
  8
Livello_1
 62
7
100
AcDbLine
 10
118.675700
 20
122.999560
 30
0.0
 11
118.675700
 21
123.960440
 31
0.0
  0
SPLINE
  5
39e
100
AcDbEntity
  8
Livello_1
 62
7
100
AcDbSpline
 70
8
 71
3
 72
8
 73
4
 74
0
 40
0
 40
0
 40
0
 40
0
 40
1
 40
1
 40
1
 40
1
 10
127.337120
 20
123.960440
 30
0.0
 10
127.337120
 20
124.872750
 30
0.0
 10
127.313820
 20
124.944580
 30
0.0
 10
126.876970
 20
125.381460
 30
0.0
  0
LINE
  5
39f
100
AcDbEntity
  8
Livello_1
 62
7
100
AcDbLine
 10
126.876970
 20
125.381460
 30
0.0
 11
126.416830
 21
125.841580
 31
0.0
  0
LINE
  5
3a0
100
AcDbEntity
  8
Livello_1
 62
7
100
AcDbLine
 10
126.416830
 20
125.841580
 30
0.0
 11
123.412390
 21
125.841580
 31
0.0
  0
LINE
  5
3a1
100
AcDbEntity
  8
Livello_1
 62
7
100
AcDbLine
 10
123.412390
 20
125.841580
 30
0.0
 11
120.407980
 21
125.841580
 31
0.0
  0
LINE
  5
3a2
100
AcDbEntity
  8
Livello_1
 62
7
100
AcDbLine
 10
120.407980
 20
125.841580
 30
0.0
 11
119.947840
 21
125.381460
 31
0.0
  0
SPLINE
  5
3a3
100
AcDbEntity
  8
Livello_1
 62
7
100
AcDbSpline
 70
8
 71
3
 72
8
 73
4
 74
0
 40
0
 40
0
 40
0
 40
0
 40
1
 40
1
 40
1
 40
1
 10
119.947840
 20
125.381460
 30
0.0
 10
119.510950
 20
124.944580
 30
0.0
 10
119.487720
 20
124.872750
 30
0.0
 10
119.487720
 20
123.960440
 30
0.0
  0
LINE
  5
3a4
100
AcDbEntity
  8
Livello_1
 62
7
100
AcDbLine
 10
119.487720
 20
123.960440
 30
0.0
 11
119.487720
 21
122.999560
 31
0.0
  0
LINE
  5
3a5
100
AcDbEntity
  8
Livello_1
 62
7
100
AcDbLine
 10
119.487720
 20
122.999560
 30
0.0
 11
123.412390
 21
122.999560
 31
0.0
  0
LINE
  5
3a6
100
AcDbEntity
  8
Livello_1
 62
7
100
AcDbLine
 10
123.412390
 20
122.999560
 30
0.0
 11
127.337120
 21
122.999560
 31
0.0
  0
LINE
  5
3a7
100
AcDbEntity
  8
Livello_1
 62
7
100
AcDbLine
 10
127.337120
 20
122.999560
 30
0.0
 11
127.337120
 21
123.960440
 31
0.0
  0
SPLINE
  5
3a8
100
AcDbEntity
  8
Livello_1
 62
7
100
AcDbSpline
 70
8
 71
3
 72
8
 73
4
 74
0
 40
0
 40
0
 40
0
 40
0
 40
1
 40
1
 40
1
 40
1
 10
135.998510
 20
123.960440
 30
0.0
 10
135.998510
 20
124.872750
 30
0.0
 10
135.975210
 20
124.944580
 30
0.0
 10
135.538390
 20
125.381460
 30
0.0
  0
LINE
  5
3a9
100
AcDbEntity
  8
Livello_1
 62
7
100
AcDbLine
 10
135.538390
 20
125.381460
 30
0.0
 11
135.078250
 21
125.841580
 31
0.0
  0
LINE
  5
3aa
100
AcDbEntity
  8
Livello_1
 62
7
100
AcDbLine
 10
135.078250
 20
125.841580
 30
0.0
 11
132.073830
 21
125.841580
 31
0.0
  0
LINE
  5
3ab
100
AcDbEntity
  8
Livello_1
 62
7
100
AcDbLine
 10
132.073830
 20
125.841580
 30
0.0
 11
129.069390
 21
125.841580
 31
0.0
  0
LINE
  5
3ac
100
AcDbEntity
  8
Livello_1
 62
7
100
AcDbLine
 10
129.069390
 20
125.841580
 30
0.0
 11
128.609250
 21
125.381460
 31
0.0
  0
SPLINE
  5
3ad
100
AcDbEntity
  8
Livello_1
 62
7
100
AcDbSpline
 70
8
 71
3
 72
8
 73
4
 74
0
 40
0
 40
0
 40
0
 40
0
 40
1
 40
1
 40
1
 40
1
 10
128.609250
 20
125.381460
 30
0.0
 10
128.172370
 20
124.944580
 30
0.0
 10
128.149110
 20
124.872750
 30
0.0
 10
128.149110
 20
123.960440
 30
0.0
  0
LINE
  5
3ae
100
AcDbEntity
  8
Livello_1
 62
7
100
AcDbLine
 10
128.149110
 20
123.960440
 30
0.0
 11
128.149110
 21
122.999560
 31
0.0
  0
LINE
  5
3af
100
AcDbEntity
  8
Livello_1
 62
7
100
AcDbLine
 10
128.149110
 20
122.999560
 30
0.0
 11
132.073830
 21
122.999560
 31
0.0
  0
LINE
  5
3b0
100
AcDbEntity
  8
Livello_1
 62
7
100
AcDbLine
 10
132.073830
 20
122.999560
 30
0.0
 11
135.998510
 21
122.999560
 31
0.0
  0
LINE
  5
3b1
100
AcDbEntity
  8
Livello_1
 62
7
100
AcDbLine
 10
135.998510
 20
122.999560
 30
0.0
 11
135.998510
 21
123.960440
 31
0.0
  0
SPLINE
  5
3b2
100
AcDbEntity
  8
Livello_1
 62
7
100
AcDbSpline
 70
8
 71
3
 72
8
 73
4
 74
0
 40
0
 40
0
 40
0
 40
0
 40
1
 40
1
 40
1
 40
1
 10
144.659920
 20
123.960440
 30
0.0
 10
144.659920
 20
124.872750
 30
0.0
 10
144.636620
 20
124.944580
 30
0.0
 10
144.199780
 20
125.381460
 30
0.0
  0
LINE
  5
3b3
100
AcDbEntity
  8
Livello_1
 62
7
100
AcDbLine
 10
144.199780
 20
125.381460
 30
0.0
 11
143.739660
 21
125.841580
 31
0.0
  0
LINE
  5
3b4
100
AcDbEntity
  8
Livello_1
 62
7
100
AcDbLine
 10
143.739660
 20
125.841580
 30
0.0
 11
140.735220
 21
125.841580
 31
0.0
  0
LINE
  5
3b5
100
AcDbEntity
  8
Livello_1
 62
7
100
AcDbLine
 10
140.735220
 20
125.841580
 30
0.0
 11
137.730810
 21
125.841580
 31
0.0
  0
LINE
  5
3b6
100
AcDbEntity
  8
Livello_1
 62
7
100
AcDbLine
 10
137.730810
 20
125.841580
 30
0.0
 11
137.270670
 21
125.381460
 31
0.0
  0
SPLINE
  5
3b7
100
AcDbEntity
  8
Livello_1
 62
7
100
AcDbSpline
 70
8
 71
3
 72
8
 73
4
 74
0
 40
0
 40
0
 40
0
 40
0
 40
1
 40
1
 40
1
 40
1
 10
137.270670
 20
125.381460
 30
0.0
 10
136.833780
 20
124.944580
 30
0.0
 10
136.810520
 20
124.872750
 30
0.0
 10
136.810520
 20
123.960440
 30
0.0
  0
LINE
  5
3b8
100
AcDbEntity
  8
Livello_1
 62
7
100
AcDbLine
 10
136.810520
 20
123.960440
 30
0.0
 11
136.810520
 21
122.999560
 31
0.0
  0
LINE
  5
3b9
100
AcDbEntity
  8
Livello_1
 62
7
100
AcDbLine
 10
136.810520
 20
122.999560
 30
0.0
 11
140.735220
 21
122.999560
 31
0.0
  0
LINE
  5
3ba
100
AcDbEntity
  8
Livello_1
 62
7
100
AcDbLine
 10
140.735220
 20
122.999560
 30
0.0
 11
144.659920
 21
122.999560
 31
0.0
  0
LINE
  5
3bb
100
AcDbEntity
  8
Livello_1
 62
7
100
AcDbLine
 10
144.659920
 20
122.999560
 30
0.0
 11
144.659920
 21
123.960440
 31
0.0
  0
SPLINE
  5
3bc
100
AcDbEntity
  8
Livello_1
 62
7
100
AcDbSpline
 70
8
 71
3
 72
8
 73
4
 74
0
 40
0
 40
0
 40
0
 40
0
 40
1
 40
1
 40
1
 40
1
 10
83.569923
 20
127.113740
 30
0.0
 10
84.006813
 20
127.550630
 30
0.0
 10
84.030073
 20
127.622430
 30
0.0
 10
84.030073
 20
128.534740
 30
0.0
  0
LINE
  5
3bd
100
AcDbEntity
  8
Livello_1
 62
7
100
AcDbLine
 10
84.030073
 20
128.534740
 30
0.0
 11
84.030073
 21
129.495620
 31
0.0
  0
LINE
  5
3be
100
AcDbEntity
  8
Livello_1
 62
7
100
AcDbLine
 10
84.030073
 20
129.495620
 30
0.0
 11
80.105373
 21
129.495620
 31
0.0
  0
LINE
  5
3bf
100
AcDbEntity
  8
Livello_1
 62
7
100
AcDbLine
 10
80.105373
 20
129.495620
 30
0.0
 11
76.180653
 21
129.495620
 31
0.0
  0
LINE
  5
3c0
100
AcDbEntity
  8
Livello_1
 62
7
100
AcDbLine
 10
76.180653
 20
129.495620
 30
0.0
 11
76.180653
 21
128.534740
 31
0.0
  0
SPLINE
  5
3c1
100
AcDbEntity
  8
Livello_1
 62
7
100
AcDbSpline
 70
8
 71
3
 72
8
 73
4
 74
0
 40
0
 40
0
 40
0
 40
0
 40
1
 40
1
 40
1
 40
1
 10
76.180653
 20
128.534740
 30
0.0
 10
76.180653
 20
127.622430
 30
0.0
 10
76.203953
 20
127.550630
 30
0.0
 10
76.640813
 20
127.113740
 30
0.0
  0
LINE
  5
3c2
100
AcDbEntity
  8
Livello_1
 62
7
100
AcDbLine
 10
76.640813
 20
127.113740
 30
0.0
 11
77.100933
 21
126.653600
 31
0.0
  0
LINE
  5
3c3
100
AcDbEntity
  8
Livello_1
 62
7
100
AcDbLine
 10
77.100933
 20
126.653600
 30
0.0
 11
80.105373
 21
126.653600
 31
0.0
  0
LINE
  5
3c4
100
AcDbEntity
  8
Livello_1
 62
7
100
AcDbLine
 10
80.105373
 20
126.653600
 30
0.0
 11
83.109783
 21
126.653600
 31
0.0
  0
LINE
  5
3c5
100
AcDbEntity
  8
Livello_1
 62
7
100
AcDbLine
 10
83.109783
 20
126.653600
 30
0.0
 11
83.569923
 21
127.113740
 31
0.0
  0
SPLINE
  5
3c6
100
AcDbEntity
  8
Livello_1
 62
7
100
AcDbSpline
 70
8
 71
3
 72
8
 73
4
 74
0
 40
0
 40
0
 40
0
 40
0
 40
1
 40
1
 40
1
 40
1
 10
92.231343
 20
127.113740
 30
0.0
 10
92.668223
 20
127.550630
 30
0.0
 10
92.691463
 20
127.622430
 30
0.0
 10
92.691463
 20
128.534740
 30
0.0
  0
LINE
  5
3c7
100
AcDbEntity
  8
Livello_1
 62
7
100
AcDbLine
 10
92.691463
 20
128.534740
 30
0.0
 11
92.691463
 21
129.495620
 31
0.0
  0
LINE
  5
3c8
100
AcDbEntity
  8
Livello_1
 62
7
100
AcDbLine
 10
92.691463
 20
129.495620
 30
0.0
 11
88.766763
 21
129.495620
 31
0.0
  0
LINE
  5
3c9
100
AcDbEntity
  8
Livello_1
 62
7
100
AcDbLine
 10
88.766763
 20
129.495620
 30
0.0
 11
84.842063
 21
129.495620
 31
0.0
  0
LINE
  5
3ca
100
AcDbEntity
  8
Livello_1
 62
7
100
AcDbLine
 10
84.842063
 20
129.495620
 30
0.0
 11
84.842063
 21
128.534740
 31
0.0
  0
SPLINE
  5
3cb
100
AcDbEntity
  8
Livello_1
 62
7
100
AcDbSpline
 70
8
 71
3
 72
8
 73
4
 74
0
 40
0
 40
0
 40
0
 40
0
 40
1
 40
1
 40
1
 40
1
 10
84.842063
 20
128.534740
 30
0.0
 10
84.842063
 20
127.622430
 30
0.0
 10
84.865363
 20
127.550630
 30
0.0
 10
85.302203
 20
127.113740
 30
0.0
  0
LINE
  5
3cc
100
AcDbEntity
  8
Livello_1
 62
7
100
AcDbLine
 10
85.302203
 20
127.113740
 30
0.0
 11
85.762353
 21
126.653600
 31
0.0
  0
LINE
  5
3cd
100
AcDbEntity
  8
Livello_1
 62
7
100
AcDbLine
 10
85.762353
 20
126.653600
 30
0.0
 11
88.766763
 21
126.653600
 31
0.0
  0
LINE
  5
3ce
100
AcDbEntity
  8
Livello_1
 62
7
100
AcDbLine
 10
88.766763
 20
126.653600
 30
0.0
 11
91.771203
 21
126.653600
 31
0.0
  0
LINE
  5
3cf
100
AcDbEntity
  8
Livello_1
 62
7
100
AcDbLine
 10
91.771203
 20
126.653600
 30
0.0
 11
92.231343
 21
127.113740
 31
0.0
  0
SPLINE
  5
3d0
100
AcDbEntity
  8
Livello_1
 62
7
100
AcDbSpline
 70
8
 71
3
 72
8
 73
4
 74
0
 40
0
 40
0
 40
0
 40
0
 40
1
 40
1
 40
1
 40
1
 10
100.892750
 20
127.113740
 30
0.0
 10
101.329640
 20
127.550630
 30
0.0
 10
101.352870
 20
127.622430
 30
0.0
 10
101.352870
 20
128.534740
 30
0.0
  0
LINE
  5
3d1
100
AcDbEntity
  8
Livello_1
 62
7
100
AcDbLine
 10
101.352870
 20
128.534740
 30
0.0
 11
101.352870
 21
129.495620
 31
0.0
  0
LINE
  5
3d2
100
AcDbEntity
  8
Livello_1
 62
7
100
AcDbLine
 10
101.352870
 20
129.495620
 30
0.0
 11
97.428173
 21
129.495620
 31
0.0
  0
LINE
  5
3d3
100
AcDbEntity
  8
Livello_1
 62
7
100
AcDbLine
 10
97.428173
 20
129.495620
 30
0.0
 11
93.503483
 21
129.495620
 31
0.0
  0
LINE
  5
3d4
100
AcDbEntity
  8
Livello_1
 62
7
100
AcDbLine
 10
93.503483
 20
129.495620
 30
0.0
 11
93.503483
 21
128.534740
 31
0.0
  0
SPLINE
  5
3d5
100
AcDbEntity
  8
Livello_1
 62
7
100
AcDbSpline
 70
8
 71
3
 72
8
 73
4
 74
0
 40
0
 40
0
 40
0
 40
0
 40
1
 40
1
 40
1
 40
1
 10
93.503483
 20
128.534740
 30
0.0
 10
93.503483
 20
127.622430
 30
0.0
 10
93.526783
 20
127.550630
 30
0.0
 10
93.963623
 20
127.113740
 30
0.0
  0
LINE
  5
3d6
100
AcDbEntity
  8
Livello_1
 62
7
100
AcDbLine
 10
93.963623
 20
127.113740
 30
0.0
 11
94.423763
 21
126.653600
 31
0.0
  0
LINE
  5
3d7
100
AcDbEntity
  8
Livello_1
 62
7
100
AcDbLine
 10
94.423763
 20
126.653600
 30
0.0
 11
97.428173
 21
126.653600
 31
0.0
  0
LINE
  5
3d8
100
AcDbEntity
  8
Livello_1
 62
7
100
AcDbLine
 10
97.428173
 20
126.653600
 30
0.0
 11
100.432590
 21
126.653600
 31
0.0
  0
LINE
  5
3d9
100
AcDbEntity
  8
Livello_1
 62
7
100
AcDbLine
 10
100.432590
 20
126.653600
 30
0.0
 11
100.892750
 21
127.113740
 31
0.0
  0
SPLINE
  5
3da
100
AcDbEntity
  8
Livello_1
 62
7
100
AcDbSpline
 70
8
 71
3
 72
8
 73
4
 74
0
 40
0
 40
0
 40
0
 40
0
 40
1
 40
1
 40
1
 40
1
 10
109.554170
 20
127.113740
 30
0.0
 10
109.991050
 20
127.550630
 30
0.0
 10
110.014290
 20
127.622430
 30
0.0
 10
110.014290
 20
128.534740
 30
0.0
  0
LINE
  5
3db
100
AcDbEntity
  8
Livello_1
 62
7
100
AcDbLine
 10
110.014290
 20
128.534740
 30
0.0
 11
110.014290
 21
129.495620
 31
0.0
  0
LINE
  5
3dc
100
AcDbEntity
  8
Livello_1
 62
7
100
AcDbLine
 10
110.014290
 20
129.495620
 30
0.0
 11
106.089590
 21
129.495620
 31
0.0
  0
LINE
  5
3dd
100
AcDbEntity
  8
Livello_1
 62
7
100
AcDbLine
 10
106.089590
 20
129.495620
 30
0.0
 11
102.164890
 21
129.495620
 31
0.0
  0
LINE
  5
3de
100
AcDbEntity
  8
Livello_1
 62
7
100
AcDbLine
 10
102.164890
 20
129.495620
 30
0.0
 11
102.164890
 21
128.534740
 31
0.0
  0
SPLINE
  5
3df
100
AcDbEntity
  8
Livello_1
 62
7
100
AcDbSpline
 70
8
 71
3
 72
8
 73
4
 74
0
 40
0
 40
0
 40
0
 40
0
 40
1
 40
1
 40
1
 40
1
 10
102.164890
 20
128.534740
 30
0.0
 10
102.164890
 20
127.622430
 30
0.0
 10
102.188190
 20
127.550630
 30
0.0
 10
102.625030
 20
127.113740
 30
0.0
  0
LINE
  5
3e0
100
AcDbEntity
  8
Livello_1
 62
7
100
AcDbLine
 10
102.625030
 20
127.113740
 30
0.0
 11
103.085170
 21
126.653600
 31
0.0
  0
LINE
  5
3e1
100
AcDbEntity
  8
Livello_1
 62
7
100
AcDbLine
 10
103.085170
 20
126.653600
 30
0.0
 11
106.089590
 21
126.653600
 31
0.0
  0
LINE
  5
3e2
100
AcDbEntity
  8
Livello_1
 62
7
100
AcDbLine
 10
106.089590
 20
126.653600
 30
0.0
 11
109.094020
 21
126.653600
 31
0.0
  0
LINE
  5
3e3
100
AcDbEntity
  8
Livello_1
 62
7
100
AcDbLine
 10
109.094020
 20
126.653600
 30
0.0
 11
109.554170
 21
127.113740
 31
0.0
  0
SPLINE
  5
3e4
100
AcDbEntity
  8
Livello_1
 62
7
100
AcDbSpline
 70
8
 71
3
 72
8
 73
4
 74
0
 40
0
 40
0
 40
0
 40
0
 40
1
 40
1
 40
1
 40
1
 10
118.215560
 20
127.113740
 30
0.0
 10
118.652440
 20
127.550630
 30
0.0
 10
118.675700
 20
127.622430
 30
0.0
 10
118.675700
 20
128.534740
 30
0.0
  0
LINE
  5
3e5
100
AcDbEntity
  8
Livello_1
 62
7
100
AcDbLine
 10
118.675700
 20
128.534740
 30
0.0
 11
118.675700
 21
129.495620
 31
0.0
  0
LINE
  5
3e6
100
AcDbEntity
  8
Livello_1
 62
7
100
AcDbLine
 10
118.675700
 20
129.495620
 30
0.0
 11
114.751000
 21
129.495620
 31
0.0
  0
LINE
  5
3e7
100
AcDbEntity
  8
Livello_1
 62
7
100
AcDbLine
 10
114.751000
 20
129.495620
 30
0.0
 11
110.826300
 21
129.495620
 31
0.0
  0
LINE
  5
3e8
100
AcDbEntity
  8
Livello_1
 62
7
100
AcDbLine
 10
110.826300
 20
129.495620
 30
0.0
 11
110.826300
 21
128.534740
 31
0.0
  0
SPLINE
  5
3e9
100
AcDbEntity
  8
Livello_1
 62
7
100
AcDbSpline
 70
8
 71
3
 72
8
 73
4
 74
0
 40
0
 40
0
 40
0
 40
0
 40
1
 40
1
 40
1
 40
1
 10
110.826300
 20
128.534740
 30
0.0
 10
110.826300
 20
127.622430
 30
0.0
 10
110.849600
 20
127.550630
 30
0.0
 10
111.286420
 20
127.113740
 30
0.0
  0
LINE
  5
3ea
100
AcDbEntity
  8
Livello_1
 62
7
100
AcDbLine
 10
111.286420
 20
127.113740
 30
0.0
 11
111.746570
 21
126.653600
 31
0.0
  0
LINE
  5
3eb
100
AcDbEntity
  8
Livello_1
 62
7
100
AcDbLine
 10
111.746570
 20
126.653600
 30
0.0
 11
114.751000
 21
126.653600
 31
0.0
  0
LINE
  5
3ec
100
AcDbEntity
  8
Livello_1
 62
7
100
AcDbLine
 10
114.751000
 20
126.653600
 30
0.0
 11
117.755420
 21
126.653600
 31
0.0
  0
LINE
  5
3ed
100
AcDbEntity
  8
Livello_1
 62
7
100
AcDbLine
 10
117.755420
 20
126.653600
 30
0.0
 11
118.215560
 21
127.113740
 31
0.0
  0
SPLINE
  5
3ee
100
AcDbEntity
  8
Livello_1
 62
7
100
AcDbSpline
 70
8
 71
3
 72
8
 73
4
 74
0
 40
0
 40
0
 40
0
 40
0
 40
1
 40
1
 40
1
 40
1
 10
126.876970
 20
127.113740
 30
0.0
 10
127.313860
 20
127.550630
 30
0.0
 10
127.337120
 20
127.622430
 30
0.0
 10
127.337120
 20
128.534740
 30
0.0
  0
LINE
  5
3ef
100
AcDbEntity
  8
Livello_1
 62
7
100
AcDbLine
 10
127.337120
 20
128.534740
 30
0.0
 11
127.337120
 21
129.495620
 31
0.0
  0
LINE
  5
3f0
100
AcDbEntity
  8
Livello_1
 62
7
100
AcDbLine
 10
127.337120
 20
129.495620
 30
0.0
 11
123.412390
 21
129.495620
 31
0.0
  0
LINE
  5
3f1
100
AcDbEntity
  8
Livello_1
 62
7
100
AcDbLine
 10
123.412390
 20
129.495620
 30
0.0
 11
119.487720
 21
129.495620
 31
0.0
  0
LINE
  5
3f2
100
AcDbEntity
  8
Livello_1
 62
7
100
AcDbLine
 10
119.487720
 20
129.495620
 30
0.0
 11
119.487720
 21
128.534740
 31
0.0
  0
SPLINE
  5
3f3
100
AcDbEntity
  8
Livello_1
 62
7
100
AcDbSpline
 70
8
 71
3
 72
8
 73
4
 74
0
 40
0
 40
0
 40
0
 40
0
 40
1
 40
1
 40
1
 40
1
 10
119.487720
 20
128.534740
 30
0.0
 10
119.487720
 20
127.622430
 30
0.0
 10
119.511020
 20
127.550630
 30
0.0
 10
119.947840
 20
127.113740
 30
0.0
  0
LINE
  5
3f4
100
AcDbEntity
  8
Livello_1
 62
7
100
AcDbLine
 10
119.947840
 20
127.113740
 30
0.0
 11
120.407980
 21
126.653600
 31
0.0
  0
LINE
  5
3f5
100
AcDbEntity
  8
Livello_1
 62
7
100
AcDbLine
 10
120.407980
 20
126.653600
 30
0.0
 11
123.412390
 21
126.653600
 31
0.0
  0
LINE
  5
3f6
100
AcDbEntity
  8
Livello_1
 62
7
100
AcDbLine
 10
123.412390
 20
126.653600
 30
0.0
 11
126.416830
 21
126.653600
 31
0.0
  0
LINE
  5
3f7
100
AcDbEntity
  8
Livello_1
 62
7
100
AcDbLine
 10
126.416830
 20
126.653600
 30
0.0
 11
126.876970
 21
127.113740
 31
0.0
  0
SPLINE
  5
3f8
100
AcDbEntity
  8
Livello_1
 62
7
100
AcDbSpline
 70
8
 71
3
 72
8
 73
4
 74
0
 40
0
 40
0
 40
0
 40
0
 40
1
 40
1
 40
1
 40
1
 10
135.538390
 20
127.113740
 30
0.0
 10
135.975270
 20
127.550630
 30
0.0
 10
135.998510
 20
127.622430
 30
0.0
 10
135.998510
 20
128.534740
 30
0.0
  0
LINE
  5
3f9
100
AcDbEntity
  8
Livello_1
 62
7
100
AcDbLine
 10
135.998510
 20
128.534740
 30
0.0
 11
135.998510
 21
129.495620
 31
0.0
  0
LINE
  5
3fa
100
AcDbEntity
  8
Livello_1
 62
7
100
AcDbLine
 10
135.998510
 20
129.495620
 30
0.0
 11
132.073830
 21
129.495620
 31
0.0
  0
LINE
  5
3fb
100
AcDbEntity
  8
Livello_1
 62
7
100
AcDbLine
 10
132.073830
 20
129.495620
 30
0.0
 11
128.149110
 21
129.495620
 31
0.0
  0
LINE
  5
3fc
100
AcDbEntity
  8
Livello_1
 62
7
100
AcDbLine
 10
128.149110
 20
129.495620
 30
0.0
 11
128.149110
 21
128.534740
 31
0.0
  0
SPLINE
  5
3fd
100
AcDbEntity
  8
Livello_1
 62
7
100
AcDbSpline
 70
8
 71
3
 72
8
 73
4
 74
0
 40
0
 40
0
 40
0
 40
0
 40
1
 40
1
 40
1
 40
1
 10
128.149110
 20
128.534740
 30
0.0
 10
128.149110
 20
127.622430
 30
0.0
 10
128.172410
 20
127.550630
 30
0.0
 10
128.609250
 20
127.113740
 30
0.0
  0
LINE
  5
3fe
100
AcDbEntity
  8
Livello_1
 62
7
100
AcDbLine
 10
128.609250
 20
127.113740
 30
0.0
 11
129.069390
 21
126.653600
 31
0.0
  0
LINE
  5
3ff
100
AcDbEntity
  8
Livello_1
 62
7
100
AcDbLine
 10
129.069390
 20
126.653600
 30
0.0
 11
132.073830
 21
126.653600
 31
0.0
  0
LINE
  5
400
100
AcDbEntity
  8
Livello_1
 62
7
100
AcDbLine
 10
132.073830
 20
126.653600
 30
0.0
 11
135.078250
 21
126.653600
 31
0.0
  0
LINE
  5
401
100
AcDbEntity
  8
Livello_1
 62
7
100
AcDbLine
 10
135.078250
 20
126.653600
 30
0.0
 11
135.538390
 21
127.113740
 31
0.0
  0
SPLINE
  5
402
100
AcDbEntity
  8
Livello_1
 62
7
100
AcDbSpline
 70
8
 71
3
 72
8
 73
4
 74
0
 40
0
 40
0
 40
0
 40
0
 40
1
 40
1
 40
1
 40
1
 10
144.199780
 20
127.113740
 30
0.0
 10
144.636670
 20
127.550630
 30
0.0
 10
144.659920
 20
127.622430
 30
0.0
 10
144.659920
 20
128.534740
 30
0.0
  0
LINE
  5
403
100
AcDbEntity
  8
Livello_1
 62
7
100
AcDbLine
 10
144.659920
 20
128.534740
 30
0.0
 11
144.659920
 21
129.495620
 31
0.0
  0
LINE
  5
404
100
AcDbEntity
  8
Livello_1
 62
7
100
AcDbLine
 10
144.659920
 20
129.495620
 30
0.0
 11
140.735220
 21
129.495620
 31
0.0
  0
LINE
  5
405
100
AcDbEntity
  8
Livello_1
 62
7
100
AcDbLine
 10
140.735220
 20
129.495620
 30
0.0
 11
136.810520
 21
129.495620
 31
0.0
  0
LINE
  5
406
100
AcDbEntity
  8
Livello_1
 62
7
100
AcDbLine
 10
136.810520
 20
129.495620
 30
0.0
 11
136.810520
 21
128.534740
 31
0.0
  0
SPLINE
  5
407
100
AcDbEntity
  8
Livello_1
 62
7
100
AcDbSpline
 70
8
 71
3
 72
8
 73
4
 74
0
 40
0
 40
0
 40
0
 40
0
 40
1
 40
1
 40
1
 40
1
 10
136.810520
 20
128.534740
 30
0.0
 10
136.810520
 20
127.622430
 30
0.0
 10
136.833820
 20
127.550630
 30
0.0
 10
137.270670
 20
127.113740
 30
0.0
  0
LINE
  5
408
100
AcDbEntity
  8
Livello_1
 62
7
100
AcDbLine
 10
137.270670
 20
127.113740
 30
0.0
 11
137.730810
 21
126.653600
 31
0.0
  0
LINE
  5
409
100
AcDbEntity
  8
Livello_1
 62
7
100
AcDbLine
 10
137.730810
 20
126.653600
 30
0.0
 11
140.735220
 21
126.653600
 31
0.0
  0
LINE
  5
40a
100
AcDbEntity
  8
Livello_1
 62
7
100
AcDbLine
 10
140.735220
 20
126.653600
 30
0.0
 11
143.739660
 21
126.653600
 31
0.0
  0
LINE
  5
40b
100
AcDbEntity
  8
Livello_1
 62
7
100
AcDbLine
 10
143.739660
 20
126.653600
 30
0.0
 11
144.199780
 21
127.113740
 31
0.0
  0
LINE
  5
40c
100
AcDbEntity
  8
Livello_1
 62
7
100
AcDbLine
 10
84.030073
 20
134.909020
 30
0.0
 11
84.030073
 21
139.916390
 31
0.0
  0
LINE
  5
40d
100
AcDbEntity
  8
Livello_1
 62
7
100
AcDbLine
 10
84.030073
 20
139.916390
 30
0.0
 11
80.105373
 21
139.916390
 31
0.0
  0
LINE
  5
40e
100
AcDbEntity
  8
Livello_1
 62
7
100
AcDbLine
 10
80.105373
 20
139.916390
 30
0.0
 11
76.180653
 21
139.916390
 31
0.0
  0
LINE
  5
40f
100
AcDbEntity
  8
Livello_1
 62
7
100
AcDbLine
 10
76.180653
 20
139.916390
 30
0.0
 11
76.180653
 21
134.909020
 31
0.0
  0
LINE
  5
410
100
AcDbEntity
  8
Livello_1
 62
7
100
AcDbLine
 10
76.180653
 20
134.909020
 30
0.0
 11
76.180653
 21
129.901620
 31
0.0
  0
LINE
  5
411
100
AcDbEntity
  8
Livello_1
 62
7
100
AcDbLine
 10
76.180653
 20
129.901620
 30
0.0
 11
80.105373
 21
129.901620
 31
0.0
  0
LINE
  5
412
100
AcDbEntity
  8
Livello_1
 62
7
100
AcDbLine
 10
80.105373
 20
129.901620
 30
0.0
 11
84.030073
 21
129.901620
 31
0.0
  0
LINE
  5
413
100
AcDbEntity
  8
Livello_1
 62
7
100
AcDbLine
 10
84.030073
 20
129.901620
 30
0.0
 11
84.030073
 21
134.909020
 31
0.0
  0
LINE
  5
414
100
AcDbEntity
  8
Livello_1
 62
7
100
AcDbLine
 10
92.691463
 20
134.909020
 30
0.0
 11
92.691463
 21
139.916390
 31
0.0
  0
LINE
  5
415
100
AcDbEntity
  8
Livello_1
 62
7
100
AcDbLine
 10
92.691463
 20
139.916390
 30
0.0
 11
88.766763
 21
139.916390
 31
0.0
  0
LINE
  5
416
100
AcDbEntity
  8
Livello_1
 62
7
100
AcDbLine
 10
88.766763
 20
139.916390
 30
0.0
 11
84.842063
 21
139.916390
 31
0.0
  0
LINE
  5
417
100
AcDbEntity
  8
Livello_1
 62
7
100
AcDbLine
 10
84.842063
 20
139.916390
 30
0.0
 11
84.842063
 21
134.909020
 31
0.0
  0
LINE
  5
418
100
AcDbEntity
  8
Livello_1
 62
7
100
AcDbLine
 10
84.842063
 20
134.909020
 30
0.0
 11
84.842063
 21
129.901620
 31
0.0
  0
LINE
  5
419
100
AcDbEntity
  8
Livello_1
 62
7
100
AcDbLine
 10
84.842063
 20
129.901620
 30
0.0
 11
88.766763
 21
129.901620
 31
0.0
  0
LINE
  5
41a
100
AcDbEntity
  8
Livello_1
 62
7
100
AcDbLine
 10
88.766763
 20
129.901620
 30
0.0
 11
92.691463
 21
129.901620
 31
0.0
  0
LINE
  5
41b
100
AcDbEntity
  8
Livello_1
 62
7
100
AcDbLine
 10
92.691463
 20
129.901620
 30
0.0
 11
92.691463
 21
134.909020
 31
0.0
  0
LINE
  5
41c
100
AcDbEntity
  8
Livello_1
 62
7
100
AcDbLine
 10
101.352870
 20
134.909020
 30
0.0
 11
101.352870
 21
139.916390
 31
0.0
  0
LINE
  5
41d
100
AcDbEntity
  8
Livello_1
 62
7
100
AcDbLine
 10
101.352870
 20
139.916390
 30
0.0
 11
97.428173
 21
139.916390
 31
0.0
  0
LINE
  5
41e
100
AcDbEntity
  8
Livello_1
 62
7
100
AcDbLine
 10
97.428173
 20
139.916390
 30
0.0
 11
93.503483
 21
139.916390
 31
0.0
  0
LINE
  5
41f
100
AcDbEntity
  8
Livello_1
 62
7
100
AcDbLine
 10
93.503483
 20
139.916390
 30
0.0
 11
93.503483
 21
134.909020
 31
0.0
  0
LINE
  5
420
100
AcDbEntity
  8
Livello_1
 62
7
100
AcDbLine
 10
93.503483
 20
134.909020
 30
0.0
 11
93.503483
 21
129.901620
 31
0.0
  0
LINE
  5
421
100
AcDbEntity
  8
Livello_1
 62
7
100
AcDbLine
 10
93.503483
 20
129.901620
 30
0.0
 11
97.428173
 21
129.901620
 31
0.0
  0
LINE
  5
422
100
AcDbEntity
  8
Livello_1
 62
7
100
AcDbLine
 10
97.428173
 20
129.901620
 30
0.0
 11
101.352870
 21
129.901620
 31
0.0
  0
LINE
  5
423
100
AcDbEntity
  8
Livello_1
 62
7
100
AcDbLine
 10
101.352870
 20
129.901620
 30
0.0
 11
101.352870
 21
134.909020
 31
0.0
  0
LINE
  5
424
100
AcDbEntity
  8
Livello_1
 62
7
100
AcDbLine
 10
110.014290
 20
134.909020
 30
0.0
 11
110.014290
 21
139.916390
 31
0.0
  0
LINE
  5
425
100
AcDbEntity
  8
Livello_1
 62
7
100
AcDbLine
 10
110.014290
 20
139.916390
 30
0.0
 11
106.089590
 21
139.916390
 31
0.0
  0
LINE
  5
426
100
AcDbEntity
  8
Livello_1
 62
7
100
AcDbLine
 10
106.089590
 20
139.916390
 30
0.0
 11
102.164890
 21
139.916390
 31
0.0
  0
LINE
  5
427
100
AcDbEntity
  8
Livello_1
 62
7
100
AcDbLine
 10
102.164890
 20
139.916390
 30
0.0
 11
102.164890
 21
134.909020
 31
0.0
  0
LINE
  5
428
100
AcDbEntity
  8
Livello_1
 62
7
100
AcDbLine
 10
102.164890
 20
134.909020
 30
0.0
 11
102.164890
 21
129.901620
 31
0.0
  0
LINE
  5
429
100
AcDbEntity
  8
Livello_1
 62
7
100
AcDbLine
 10
102.164890
 20
129.901620
 30
0.0
 11
106.089590
 21
129.901620
 31
0.0
  0
LINE
  5
42a
100
AcDbEntity
  8
Livello_1
 62
7
100
AcDbLine
 10
106.089590
 20
129.901620
 30
0.0
 11
110.014290
 21
129.901620
 31
0.0
  0
LINE
  5
42b
100
AcDbEntity
  8
Livello_1
 62
7
100
AcDbLine
 10
110.014290
 20
129.901620
 30
0.0
 11
110.014290
 21
134.909020
 31
0.0
  0
LINE
  5
42c
100
AcDbEntity
  8
Livello_1
 62
7
100
AcDbLine
 10
118.675700
 20
134.909020
 30
0.0
 11
118.675700
 21
139.916390
 31
0.0
  0
LINE
  5
42d
100
AcDbEntity
  8
Livello_1
 62
7
100
AcDbLine
 10
118.675700
 20
139.916390
 30
0.0
 11
114.751000
 21
139.916390
 31
0.0
  0
LINE
  5
42e
100
AcDbEntity
  8
Livello_1
 62
7
100
AcDbLine
 10
114.751000
 20
139.916390
 30
0.0
 11
110.826300
 21
139.916390
 31
0.0
  0
LINE
  5
42f
100
AcDbEntity
  8
Livello_1
 62
7
100
AcDbLine
 10
110.826300
 20
139.916390
 30
0.0
 11
110.826300
 21
134.909020
 31
0.0
  0
LINE
  5
430
100
AcDbEntity
  8
Livello_1
 62
7
100
AcDbLine
 10
110.826300
 20
134.909020
 30
0.0
 11
110.826300
 21
129.901620
 31
0.0
  0
LINE
  5
431
100
AcDbEntity
  8
Livello_1
 62
7
100
AcDbLine
 10
110.826300
 20
129.901620
 30
0.0
 11
114.751000
 21
129.901620
 31
0.0
  0
LINE
  5
432
100
AcDbEntity
  8
Livello_1
 62
7
100
AcDbLine
 10
114.751000
 20
129.901620
 30
0.0
 11
118.675700
 21
129.901620
 31
0.0
  0
LINE
  5
433
100
AcDbEntity
  8
Livello_1
 62
7
100
AcDbLine
 10
118.675700
 20
129.901620
 30
0.0
 11
118.675700
 21
134.909020
 31
0.0
  0
LINE
  5
434
100
AcDbEntity
  8
Livello_1
 62
7
100
AcDbLine
 10
127.337120
 20
134.909020
 30
0.0
 11
127.337120
 21
139.916390
 31
0.0
  0
LINE
  5
435
100
AcDbEntity
  8
Livello_1
 62
7
100
AcDbLine
 10
127.337120
 20
139.916390
 30
0.0
 11
123.412390
 21
139.916390
 31
0.0
  0
LINE
  5
436
100
AcDbEntity
  8
Livello_1
 62
7
100
AcDbLine
 10
123.412390
 20
139.916390
 30
0.0
 11
119.487720
 21
139.916390
 31
0.0
  0
LINE
  5
437
100
AcDbEntity
  8
Livello_1
 62
7
100
AcDbLine
 10
119.487720
 20
139.916390
 30
0.0
 11
119.487720
 21
134.909020
 31
0.0
  0
LINE
  5
438
100
AcDbEntity
  8
Livello_1
 62
7
100
AcDbLine
 10
119.487720
 20
134.909020
 30
0.0
 11
119.487720
 21
129.901620
 31
0.0
  0
LINE
  5
439
100
AcDbEntity
  8
Livello_1
 62
7
100
AcDbLine
 10
119.487720
 20
129.901620
 30
0.0
 11
123.412390
 21
129.901620
 31
0.0
  0
LINE
  5
43a
100
AcDbEntity
  8
Livello_1
 62
7
100
AcDbLine
 10
123.412390
 20
129.901620
 30
0.0
 11
127.337120
 21
129.901620
 31
0.0
  0
LINE
  5
43b
100
AcDbEntity
  8
Livello_1
 62
7
100
AcDbLine
 10
127.337120
 20
129.901620
 30
0.0
 11
127.337120
 21
134.909020
 31
0.0
  0
LINE
  5
43c
100
AcDbEntity
  8
Livello_1
 62
7
100
AcDbLine
 10
135.998510
 20
134.909020
 30
0.0
 11
135.998510
 21
139.916390
 31
0.0
  0
LINE
  5
43d
100
AcDbEntity
  8
Livello_1
 62
7
100
AcDbLine
 10
135.998510
 20
139.916390
 30
0.0
 11
132.073830
 21
139.916390
 31
0.0
  0
LINE
  5
43e
100
AcDbEntity
  8
Livello_1
 62
7
100
AcDbLine
 10
132.073830
 20
139.916390
 30
0.0
 11
128.149110
 21
139.916390
 31
0.0
  0
LINE
  5
43f
100
AcDbEntity
  8
Livello_1
 62
7
100
AcDbLine
 10
128.149110
 20
139.916390
 30
0.0
 11
128.149110
 21
134.909020
 31
0.0
  0
LINE
  5
440
100
AcDbEntity
  8
Livello_1
 62
7
100
AcDbLine
 10
128.149110
 20
134.909020
 30
0.0
 11
128.149110
 21
129.901620
 31
0.0
  0
LINE
  5
441
100
AcDbEntity
  8
Livello_1
 62
7
100
AcDbLine
 10
128.149110
 20
129.901620
 30
0.0
 11
132.073830
 21
129.901620
 31
0.0
  0
LINE
  5
442
100
AcDbEntity
  8
Livello_1
 62
7
100
AcDbLine
 10
132.073830
 20
129.901620
 30
0.0
 11
135.998510
 21
129.901620
 31
0.0
  0
LINE
  5
443
100
AcDbEntity
  8
Livello_1
 62
7
100
AcDbLine
 10
135.998510
 20
129.901620
 30
0.0
 11
135.998510
 21
134.909020
 31
0.0
  0
LINE
  5
444
100
AcDbEntity
  8
Livello_1
 62
7
100
AcDbLine
 10
144.659920
 20
134.909020
 30
0.0
 11
144.659920
 21
139.916390
 31
0.0
  0
LINE
  5
445
100
AcDbEntity
  8
Livello_1
 62
7
100
AcDbLine
 10
144.659920
 20
139.916390
 30
0.0
 11
140.735220
 21
139.916390
 31
0.0
  0
LINE
  5
446
100
AcDbEntity
  8
Livello_1
 62
7
100
AcDbLine
 10
140.735220
 20
139.916390
 30
0.0
 11
136.810520
 21
139.916390
 31
0.0
  0
LINE
  5
447
100
AcDbEntity
  8
Livello_1
 62
7
100
AcDbLine
 10
136.810520
 20
139.916390
 30
0.0
 11
136.810520
 21
134.909020
 31
0.0
  0
LINE
  5
448
100
AcDbEntity
  8
Livello_1
 62
7
100
AcDbLine
 10
136.810520
 20
134.909020
 30
0.0
 11
136.810520
 21
129.901620
 31
0.0
  0
LINE
  5
449
100
AcDbEntity
  8
Livello_1
 62
7
100
AcDbLine
 10
136.810520
 20
129.901620
 30
0.0
 11
140.735220
 21
129.901620
 31
0.0
  0
LINE
  5
44a
100
AcDbEntity
  8
Livello_1
 62
7
100
AcDbLine
 10
140.735220
 20
129.901620
 30
0.0
 11
144.659920
 21
129.901620
 31
0.0
  0
LINE
  5
44b
100
AcDbEntity
  8
Livello_1
 62
7
100
AcDbLine
 10
144.659920
 20
129.901620
 30
0.0
 11
144.659920
 21
134.909020
 31
0.0
  0
SPLINE
  5
44c
100
AcDbEntity
  8
Livello_1
 62
7
100
AcDbSpline
 70
8
 71
3
 72
8
 73
4
 74
0
 40
0
 40
0
 40
0
 40
0
 40
1
 40
1
 40
1
 40
1
 10
84.030073
 20
141.283270
 30
0.0
 10
84.030073
 20
142.195580
 30
0.0
 10
84.006773
 20
142.267380
 30
0.0
 10
83.569923
 20
142.704270
 30
0.0
  0
LINE
  5
44d
100
AcDbEntity
  8
Livello_1
 62
7
100
AcDbLine
 10
83.569923
 20
142.704270
 30
0.0
 11
83.109783
 21
143.164410
 31
0.0
  0
LINE
  5
44e
100
AcDbEntity
  8
Livello_1
 62
7
100
AcDbLine
 10
83.109783
 20
143.164410
 30
0.0
 11
80.105373
 21
143.164410
 31
0.0
  0
LINE
  5
44f
100
AcDbEntity
  8
Livello_1
 62
7
100
AcDbLine
 10
80.105373
 20
143.164410
 30
0.0
 11
77.100933
 21
143.164410
 31
0.0
  0
LINE
  5
450
100
AcDbEntity
  8
Livello_1
 62
7
100
AcDbLine
 10
77.100933
 20
143.164410
 30
0.0
 11
76.640813
 21
142.704270
 31
0.0
  0
SPLINE
  5
451
100
AcDbEntity
  8
Livello_1
 62
7
100
AcDbSpline
 70
8
 71
3
 72
8
 73
4
 74
0
 40
0
 40
0
 40
0
 40
0
 40
1
 40
1
 40
1
 40
1
 10
76.640813
 20
142.704270
 30
0.0
 10
76.203923
 20
142.267380
 30
0.0
 10
76.180653
 20
142.195580
 30
0.0
 10
76.180653
 20
141.283270
 30
0.0
  0
LINE
  5
452
100
AcDbEntity
  8
Livello_1
 62
7
100
AcDbLine
 10
76.180653
 20
141.283270
 30
0.0
 11
76.180653
 21
140.322390
 31
0.0
  0
LINE
  5
453
100
AcDbEntity
  8
Livello_1
 62
7
100
AcDbLine
 10
76.180653
 20
140.322390
 30
0.0
 11
80.105373
 21
140.322390
 31
0.0
  0
LINE
  5
454
100
AcDbEntity
  8
Livello_1
 62
7
100
AcDbLine
 10
80.105373
 20
140.322390
 30
0.0
 11
84.030073
 21
140.322390
 31
0.0
  0
LINE
  5
455
100
AcDbEntity
  8
Livello_1
 62
7
100
AcDbLine
 10
84.030073
 20
140.322390
 30
0.0
 11
84.030073
 21
141.283270
 31
0.0
  0
SPLINE
  5
456
100
AcDbEntity
  8
Livello_1
 62
7
100
AcDbSpline
 70
8
 71
3
 72
8
 73
4
 74
0
 40
0
 40
0
 40
0
 40
0
 40
1
 40
1
 40
1
 40
1
 10
92.691463
 20
141.283270
 30
0.0
 10
92.691463
 20
142.195580
 30
0.0
 10
92.668163
 20
142.267380
 30
0.0
 10
92.231343
 20
142.704270
 30
0.0
  0
LINE
  5
457
100
AcDbEntity
  8
Livello_1
 62
7
100
AcDbLine
 10
92.231343
 20
142.704270
 30
0.0
 11
91.771203
 21
143.164410
 31
0.0
  0
LINE
  5
458
100
AcDbEntity
  8
Livello_1
 62
7
100
AcDbLine
 10
91.771203
 20
143.164410
 30
0.0
 11
88.766763
 21
143.164410
 31
0.0
  0
LINE
  5
459
100
AcDbEntity
  8
Livello_1
 62
7
100
AcDbLine
 10
88.766763
 20
143.164410
 30
0.0
 11
85.762353
 21
143.164410
 31
0.0
  0
LINE
  5
45a
100
AcDbEntity
  8
Livello_1
 62
7
100
AcDbLine
 10
85.762353
 20
143.164410
 30
0.0
 11
85.302203
 21
142.704270
 31
0.0
  0
SPLINE
  5
45b
100
AcDbEntity
  8
Livello_1
 62
7
100
AcDbSpline
 70
8
 71
3
 72
8
 73
4
 74
0
 40
0
 40
0
 40
0
 40
0
 40
1
 40
1
 40
1
 40
1
 10
85.302203
 20
142.704270
 30
0.0
 10
84.865323
 20
142.267380
 30
0.0
 10
84.842063
 20
142.195580
 30
0.0
 10
84.842063
 20
141.283270
 30
0.0
  0
LINE
  5
45c
100
AcDbEntity
  8
Livello_1
 62
7
100
AcDbLine
 10
84.842063
 20
141.283270
 30
0.0
 11
84.842063
 21
140.322390
 31
0.0
  0
LINE
  5
45d
100
AcDbEntity
  8
Livello_1
 62
7
100
AcDbLine
 10
84.842063
 20
140.322390
 30
0.0
 11
88.766763
 21
140.322390
 31
0.0
  0
LINE
  5
45e
100
AcDbEntity
  8
Livello_1
 62
7
100
AcDbLine
 10
88.766763
 20
140.322390
 30
0.0
 11
92.691463
 21
140.322390
 31
0.0
  0
LINE
  5
45f
100
AcDbEntity
  8
Livello_1
 62
7
100
AcDbLine
 10
92.691463
 20
140.322390
 30
0.0
 11
92.691463
 21
141.283270
 31
0.0
  0
SPLINE
  5
460
100
AcDbEntity
  8
Livello_1
 62
7
100
AcDbSpline
 70
8
 71
3
 72
8
 73
4
 74
0
 40
0
 40
0
 40
0
 40
0
 40
1
 40
1
 40
1
 40
1
 10
101.352870
 20
141.283270
 30
0.0
 10
101.352870
 20
142.195580
 30
0.0
 10
101.329570
 20
142.267380
 30
0.0
 10
100.892750
 20
142.704270
 30
0.0
  0
LINE
  5
461
100
AcDbEntity
  8
Livello_1
 62
7
100
AcDbLine
 10
100.892750
 20
142.704270
 30
0.0
 11
100.432590
 21
143.164410
 31
0.0
  0
LINE
  5
462
100
AcDbEntity
  8
Livello_1
 62
7
100
AcDbLine
 10
100.432590
 20
143.164410
 30
0.0
 11
97.428173
 21
143.164410
 31
0.0
  0
LINE
  5
463
100
AcDbEntity
  8
Livello_1
 62
7
100
AcDbLine
 10
97.428173
 20
143.164410
 30
0.0
 11
94.423763
 21
143.164410
 31
0.0
  0
LINE
  5
464
100
AcDbEntity
  8
Livello_1
 62
7
100
AcDbLine
 10
94.423763
 20
143.164410
 30
0.0
 11
93.963623
 21
142.704270
 31
0.0
  0
SPLINE
  5
465
100
AcDbEntity
  8
Livello_1
 62
7
100
AcDbSpline
 70
8
 71
3
 72
8
 73
4
 74
0
 40
0
 40
0
 40
0
 40
0
 40
1
 40
1
 40
1
 40
1
 10
93.963623
 20
142.704270
 30
0.0
 10
93.526733
 20
142.267380
 30
0.0
 10
93.503483
 20
142.195580
 30
0.0
 10
93.503483
 20
141.283270
 30
0.0
  0
LINE
  5
466
100
AcDbEntity
  8
Livello_1
 62
7
100
AcDbLine
 10
93.503483
 20
141.283270
 30
0.0
 11
93.503483
 21
140.322390
 31
0.0
  0
LINE
  5
467
100
AcDbEntity
  8
Livello_1
 62
7
100
AcDbLine
 10
93.503483
 20
140.322390
 30
0.0
 11
97.428173
 21
140.322390
 31
0.0
  0
LINE
  5
468
100
AcDbEntity
  8
Livello_1
 62
7
100
AcDbLine
 10
97.428173
 20
140.322390
 30
0.0
 11
101.352870
 21
140.322390
 31
0.0
  0
LINE
  5
469
100
AcDbEntity
  8
Livello_1
 62
7
100
AcDbLine
 10
101.352870
 20
140.322390
 30
0.0
 11
101.352870
 21
141.283270
 31
0.0
  0
SPLINE
  5
46a
100
AcDbEntity
  8
Livello_1
 62
7
100
AcDbSpline
 70
8
 71
3
 72
8
 73
4
 74
0
 40
0
 40
0
 40
0
 40
0
 40
1
 40
1
 40
1
 40
1
 10
110.014290
 20
141.283270
 30
0.0
 10
110.014290
 20
142.195580
 30
0.0
 10
109.990990
 20
142.267380
 30
0.0
 10
109.554170
 20
142.704270
 30
0.0
  0
LINE
  5
46b
100
AcDbEntity
  8
Livello_1
 62
7
100
AcDbLine
 10
109.554170
 20
142.704270
 30
0.0
 11
109.094020
 21
143.164410
 31
0.0
  0
LINE
  5
46c
100
AcDbEntity
  8
Livello_1
 62
7
100
AcDbLine
 10
109.094020
 20
143.164410
 30
0.0
 11
106.089590
 21
143.164410
 31
0.0
  0
LINE
  5
46d
100
AcDbEntity
  8
Livello_1
 62
7
100
AcDbLine
 10
106.089590
 20
143.164410
 30
0.0
 11
103.085170
 21
143.164410
 31
0.0
  0
LINE
  5
46e
100
AcDbEntity
  8
Livello_1
 62
7
100
AcDbLine
 10
103.085170
 20
143.164410
 30
0.0
 11
102.625030
 21
142.704270
 31
0.0
  0
SPLINE
  5
46f
100
AcDbEntity
  8
Livello_1
 62
7
100
AcDbSpline
 70
8
 71
3
 72
8
 73
4
 74
0
 40
0
 40
0
 40
0
 40
0
 40
1
 40
1
 40
1
 40
1
 10
102.625030
 20
142.704270
 30
0.0
 10
102.188150
 20
142.267380
 30
0.0
 10
102.164890
 20
142.195580
 30
0.0
 10
102.164890
 20
141.283270
 30
0.0
  0
LINE
  5
470
100
AcDbEntity
  8
Livello_1
 62
7
100
AcDbLine
 10
102.164890
 20
141.283270
 30
0.0
 11
102.164890
 21
140.322390
 31
0.0
  0
LINE
  5
471
100
AcDbEntity
  8
Livello_1
 62
7
100
AcDbLine
 10
102.164890
 20
140.322390
 30
0.0
 11
106.089590
 21
140.322390
 31
0.0
  0
LINE
  5
472
100
AcDbEntity
  8
Livello_1
 62
7
100
AcDbLine
 10
106.089590
 20
140.322390
 30
0.0
 11
110.014290
 21
140.322390
 31
0.0
  0
LINE
  5
473
100
AcDbEntity
  8
Livello_1
 62
7
100
AcDbLine
 10
110.014290
 20
140.322390
 30
0.0
 11
110.014290
 21
141.283270
 31
0.0
  0
SPLINE
  5
474
100
AcDbEntity
  8
Livello_1
 62
7
100
AcDbSpline
 70
8
 71
3
 72
8
 73
4
 74
0
 40
0
 40
0
 40
0
 40
0
 40
1
 40
1
 40
1
 40
1
 10
118.675700
 20
141.283270
 30
0.0
 10
118.675700
 20
142.195580
 30
0.0
 10
118.652400
 20
142.267380
 30
0.0
 10
118.215560
 20
142.704270
 30
0.0
  0
LINE
  5
475
100
AcDbEntity
  8
Livello_1
 62
7
100
AcDbLine
 10
118.215560
 20
142.704270
 30
0.0
 11
117.755420
 21
143.164410
 31
0.0
  0
LINE
  5
476
100
AcDbEntity
  8
Livello_1
 62
7
100
AcDbLine
 10
117.755420
 20
143.164410
 30
0.0
 11
114.751000
 21
143.164410
 31
0.0
  0
LINE
  5
477
100
AcDbEntity
  8
Livello_1
 62
7
100
AcDbLine
 10
114.751000
 20
143.164410
 30
0.0
 11
111.746570
 21
143.164410
 31
0.0
  0
LINE
  5
478
100
AcDbEntity
  8
Livello_1
 62
7
100
AcDbLine
 10
111.746570
 20
143.164410
 30
0.0
 11
111.286420
 21
142.704270
 31
0.0
  0
SPLINE
  5
479
100
AcDbEntity
  8
Livello_1
 62
7
100
AcDbSpline
 70
8
 71
3
 72
8
 73
4
 74
0
 40
0
 40
0
 40
0
 40
0
 40
1
 40
1
 40
1
 40
1
 10
111.286420
 20
142.704270
 30
0.0
 10
110.849560
 20
142.267380
 30
0.0
 10
110.826300
 20
142.195580
 30
0.0
 10
110.826300
 20
141.283270
 30
0.0
  0
LINE
  5
47a
100
AcDbEntity
  8
Livello_1
 62
7
100
AcDbLine
 10
110.826300
 20
141.283270
 30
0.0
 11
110.826300
 21
140.322390
 31
0.0
  0
LINE
  5
47b
100
AcDbEntity
  8
Livello_1
 62
7
100
AcDbLine
 10
110.826300
 20
140.322390
 30
0.0
 11
114.751000
 21
140.322390
 31
0.0
  0
LINE
  5
47c
100
AcDbEntity
  8
Livello_1
 62
7
100
AcDbLine
 10
114.751000
 20
140.322390
 30
0.0
 11
118.675700
 21
140.322390
 31
0.0
  0
LINE
  5
47d
100
AcDbEntity
  8
Livello_1
 62
7
100
AcDbLine
 10
118.675700
 20
140.322390
 30
0.0
 11
118.675700
 21
141.283270
 31
0.0
  0
SPLINE
  5
47e
100
AcDbEntity
  8
Livello_1
 62
7
100
AcDbSpline
 70
8
 71
3
 72
8
 73
4
 74
0
 40
0
 40
0
 40
0
 40
0
 40
1
 40
1
 40
1
 40
1
 10
127.337120
 20
141.283270
 30
0.0
 10
127.337120
 20
142.195580
 30
0.0
 10
127.313820
 20
142.267380
 30
0.0
 10
126.876970
 20
142.704270
 30
0.0
  0
LINE
  5
47f
100
AcDbEntity
  8
Livello_1
 62
7
100
AcDbLine
 10
126.876970
 20
142.704270
 30
0.0
 11
126.416830
 21
143.164410
 31
0.0
  0
LINE
  5
480
100
AcDbEntity
  8
Livello_1
 62
7
100
AcDbLine
 10
126.416830
 20
143.164410
 30
0.0
 11
123.412390
 21
143.164410
 31
0.0
  0
LINE
  5
481
100
AcDbEntity
  8
Livello_1
 62
7
100
AcDbLine
 10
123.412390
 20
143.164410
 30
0.0
 11
120.407980
 21
143.164410
 31
0.0
  0
LINE
  5
482
100
AcDbEntity
  8
Livello_1
 62
7
100
AcDbLine
 10
120.407980
 20
143.164410
 30
0.0
 11
119.947840
 21
142.704270
 31
0.0
  0
SPLINE
  5
483
100
AcDbEntity
  8
Livello_1
 62
7
100
AcDbSpline
 70
8
 71
3
 72
8
 73
4
 74
0
 40
0
 40
0
 40
0
 40
0
 40
1
 40
1
 40
1
 40
1
 10
119.947840
 20
142.704270
 30
0.0
 10
119.510950
 20
142.267380
 30
0.0
 10
119.487720
 20
142.195580
 30
0.0
 10
119.487720
 20
141.283270
 30
0.0
  0
LINE
  5
484
100
AcDbEntity
  8
Livello_1
 62
7
100
AcDbLine
 10
119.487720
 20
141.283270
 30
0.0
 11
119.487720
 21
140.322390
 31
0.0
  0
LINE
  5
485
100
AcDbEntity
  8
Livello_1
 62
7
100
AcDbLine
 10
119.487720
 20
140.322390
 30
0.0
 11
123.412390
 21
140.322390
 31
0.0
  0
LINE
  5
486
100
AcDbEntity
  8
Livello_1
 62
7
100
AcDbLine
 10
123.412390
 20
140.322390
 30
0.0
 11
127.337120
 21
140.322390
 31
0.0
  0
LINE
  5
487
100
AcDbEntity
  8
Livello_1
 62
7
100
AcDbLine
 10
127.337120
 20
140.322390
 30
0.0
 11
127.337120
 21
141.283270
 31
0.0
  0
SPLINE
  5
488
100
AcDbEntity
  8
Livello_1
 62
7
100
AcDbSpline
 70
8
 71
3
 72
8
 73
4
 74
0
 40
0
 40
0
 40
0
 40
0
 40
1
 40
1
 40
1
 40
1
 10
135.998510
 20
141.283270
 30
0.0
 10
135.998510
 20
142.195580
 30
0.0
 10
135.975210
 20
142.267380
 30
0.0
 10
135.538390
 20
142.704270
 30
0.0
  0
LINE
  5
489
100
AcDbEntity
  8
Livello_1
 62
7
100
AcDbLine
 10
135.538390
 20
142.704270
 30
0.0
 11
135.078250
 21
143.164410
 31
0.0
  0
LINE
  5
48a
100
AcDbEntity
  8
Livello_1
 62
7
100
AcDbLine
 10
135.078250
 20
143.164410
 30
0.0
 11
132.073830
 21
143.164410
 31
0.0
  0
LINE
  5
48b
100
AcDbEntity
  8
Livello_1
 62
7
100
AcDbLine
 10
132.073830
 20
143.164410
 30
0.0
 11
129.069390
 21
143.164410
 31
0.0
  0
LINE
  5
48c
100
AcDbEntity
  8
Livello_1
 62
7
100
AcDbLine
 10
129.069390
 20
143.164410
 30
0.0
 11
128.609250
 21
142.704270
 31
0.0
  0
SPLINE
  5
48d
100
AcDbEntity
  8
Livello_1
 62
7
100
AcDbSpline
 70
8
 71
3
 72
8
 73
4
 74
0
 40
0
 40
0
 40
0
 40
0
 40
1
 40
1
 40
1
 40
1
 10
128.609250
 20
142.704270
 30
0.0
 10
128.172370
 20
142.267380
 30
0.0
 10
128.149110
 20
142.195580
 30
0.0
 10
128.149110
 20
141.283270
 30
0.0
  0
LINE
  5
48e
100
AcDbEntity
  8
Livello_1
 62
7
100
AcDbLine
 10
128.149110
 20
141.283270
 30
0.0
 11
128.149110
 21
140.322390
 31
0.0
  0
LINE
  5
48f
100
AcDbEntity
  8
Livello_1
 62
7
100
AcDbLine
 10
128.149110
 20
140.322390
 30
0.0
 11
132.073830
 21
140.322390
 31
0.0
  0
LINE
  5
490
100
AcDbEntity
  8
Livello_1
 62
7
100
AcDbLine
 10
132.073830
 20
140.322390
 30
0.0
 11
135.998510
 21
140.322390
 31
0.0
  0
LINE
  5
491
100
AcDbEntity
  8
Livello_1
 62
7
100
AcDbLine
 10
135.998510
 20
140.322390
 30
0.0
 11
135.998510
 21
141.283270
 31
0.0
  0
SPLINE
  5
492
100
AcDbEntity
  8
Livello_1
 62
7
100
AcDbSpline
 70
8
 71
3
 72
8
 73
4
 74
0
 40
0
 40
0
 40
0
 40
0
 40
1
 40
1
 40
1
 40
1
 10
144.659920
 20
141.283270
 30
0.0
 10
144.659920
 20
142.195580
 30
0.0
 10
144.636620
 20
142.267380
 30
0.0
 10
144.199780
 20
142.704270
 30
0.0
  0
LINE
  5
493
100
AcDbEntity
  8
Livello_1
 62
7
100
AcDbLine
 10
144.199780
 20
142.704270
 30
0.0
 11
143.739660
 21
143.164410
 31
0.0
  0
LINE
  5
494
100
AcDbEntity
  8
Livello_1
 62
7
100
AcDbLine
 10
143.739660
 20
143.164410
 30
0.0
 11
140.735220
 21
143.164410
 31
0.0
  0
LINE
  5
495
100
AcDbEntity
  8
Livello_1
 62
7
100
AcDbLine
 10
140.735220
 20
143.164410
 30
0.0
 11
137.730810
 21
143.164410
 31
0.0
  0
LINE
  5
496
100
AcDbEntity
  8
Livello_1
 62
7
100
AcDbLine
 10
137.730810
 20
143.164410
 30
0.0
 11
137.270670
 21
142.704270
 31
0.0
  0
SPLINE
  5
497
100
AcDbEntity
  8
Livello_1
 62
7
100
AcDbSpline
 70
8
 71
3
 72
8
 73
4
 74
0
 40
0
 40
0
 40
0
 40
0
 40
1
 40
1
 40
1
 40
1
 10
137.270670
 20
142.704270
 30
0.0
 10
136.833780
 20
142.267380
 30
0.0
 10
136.810520
 20
142.195580
 30
0.0
 10
136.810520
 20
141.283270
 30
0.0
  0
LINE
  5
498
100
AcDbEntity
  8
Livello_1
 62
7
100
AcDbLine
 10
136.810520
 20
141.283270
 30
0.0
 11
136.810520
 21
140.322390
 31
0.0
  0
LINE
  5
499
100
AcDbEntity
  8
Livello_1
 62
7
100
AcDbLine
 10
136.810520
 20
140.322390
 30
0.0
 11
140.735220
 21
140.322390
 31
0.0
  0
LINE
  5
49a
100
AcDbEntity
  8
Livello_1
 62
7
100
AcDbLine
 10
140.735220
 20
140.322390
 30
0.0
 11
144.659920
 21
140.322390
 31
0.0
  0
LINE
  5
49b
100
AcDbEntity
  8
Livello_1
 62
7
100
AcDbLine
 10
144.659920
 20
140.322390
 30
0.0
 11
144.659920
 21
141.283270
 31
0.0
  0
LINE
  5
49c
100
AcDbEntity
  8
Livello_1
 62
7
100
AcDbLine
 10
66.549512
 20
254.469601
 30
0.0
 11
71.549528
 21
254.469601
 31
0.0
  0
LINE
  5
49d
100
AcDbEntity
  8
Livello_1
 62
7
100
AcDbLine
 10
146.549510
 20
254.469601
 30
0.0
 11
151.549530
 21
254.469601
 31
0.0
  0
LINE
  5
49e
100
AcDbEntity
  8
Livello_1
 62
7
100
AcDbLine
 10
151.549530
 20
344.469605
 30
0.0
 11
131.549510
 21
344.469605
 31
0.0
  0
LINE
  5
49f
100
AcDbEntity
  8
Livello_1
 62
7
100
AcDbLine
 10
86.549525
 20
344.469605
 30
0.0
 11
66.549512
 21
344.469605
 31
0.0
  0
LINE
  5
4a0
100
AcDbEntity
  8
Livello_1
 62
7
100
AcDbLine
 10
66.549512
 20
259.469591
 30
0.0
 11
71.549528
 21
259.469591
 31
0.0
  0
LINE
  5
4a1
100
AcDbEntity
  8
Livello_1
 62
7
100
AcDbLine
 10
71.549528
 20
259.469591
 30
0.0
 11
71.549528
 21
269.469597
 31
0.0
  0
LINE
  5
4a2
100
AcDbEntity
  8
Livello_1
 62
7
100
AcDbLine
 10
71.549528
 20
269.469597
 30
0.0
 11
66.549512
 21
269.469597
 31
0.0
  0
LINE
  5
4a3
100
AcDbEntity
  8
Livello_1
 62
7
100
AcDbLine
 10
66.549512
 20
269.469597
 30
0.0
 11
66.549512
 21
279.469603
 31
0.0
  0
LINE
  5
4a4
100
AcDbEntity
  8
Livello_1
 62
7
100
AcDbLine
 10
66.549512
 20
279.469603
 30
0.0
 11
71.549528
 21
279.469603
 31
0.0
  0
LINE
  5
4a5
100
AcDbEntity
  8
Livello_1
 62
7
100
AcDbLine
 10
71.549528
 20
279.469603
 30
0.0
 11
71.549528
 21
319.469602
 31
0.0
  0
LINE
  5
4a6
100
AcDbEntity
  8
Livello_1
 62
7
100
AcDbLine
 10
71.549528
 20
319.469602
 30
0.0
 11
66.549512
 21
319.469602
 31
0.0
  0
LINE
  5
4a7
100
AcDbEntity
  8
Livello_1
 62
7
100
AcDbLine
 10
66.549512
 20
319.469602
 30
0.0
 11
66.549512
 21
329.469609
 31
0.0
  0
LINE
  5
4a8
100
AcDbEntity
  8
Livello_1
 62
7
100
AcDbLine
 10
66.549512
 20
329.469609
 30
0.0
 11
71.549528
 21
329.469609
 31
0.0
  0
LINE
  5
4a9
100
AcDbEntity
  8
Livello_1
 62
7
100
AcDbLine
 10
71.549528
 20
329.469609
 30
0.0
 11
71.549528
 21
339.469615
 31
0.0
  0
LINE
  5
4aa
100
AcDbEntity
  8
Livello_1
 62
7
100
AcDbLine
 10
71.549528
 20
339.469615
 30
0.0
 11
66.549512
 21
339.469615
 31
0.0
  0
LINE
  5
4ab
100
AcDbEntity
  8
Livello_1
 62
7
100
AcDbLine
 10
66.549512
 20
339.469615
 30
0.0
 11
66.549512
 21
344.469605
 31
0.0
  0
LINE
  5
4ac
100
AcDbEntity
  8
Livello_1
 62
7
100
AcDbLine
 10
66.549512
 20
259.469591
 30
0.0
 11
66.549512
 21
254.469601
 31
0.0
  0
LINE
  5
4ad
100
AcDbEntity
  8
Livello_1
 62
7
100
AcDbLine
 10
151.549530
 20
259.469591
 30
0.0
 11
146.549510
 21
259.469591
 31
0.0
  0
LINE
  5
4ae
100
AcDbEntity
  8
Livello_1
 62
7
100
AcDbLine
 10
146.549510
 20
259.469591
 30
0.0
 11
146.549510
 21
269.469597
 31
0.0
  0
LINE
  5
4af
100
AcDbEntity
  8
Livello_1
 62
7
100
AcDbLine
 10
146.549510
 20
269.469597
 30
0.0
 11
151.549530
 21
269.469597
 31
0.0
  0
LINE
  5
4b0
100
AcDbEntity
  8
Livello_1
 62
7
100
AcDbLine
 10
151.549530
 20
269.469597
 30
0.0
 11
151.549530
 21
279.469603
 31
0.0
  0
LINE
  5
4b1
100
AcDbEntity
  8
Livello_1
 62
7
100
AcDbLine
 10
151.549530
 20
279.469603
 30
0.0
 11
146.549510
 21
279.469603
 31
0.0
  0
LINE
  5
4b2
100
AcDbEntity
  8
Livello_1
 62
7
100
AcDbLine
 10
146.549510
 20
279.469603
 30
0.0
 11
146.549510
 21
319.469602
 31
0.0
  0
LINE
  5
4b3
100
AcDbEntity
  8
Livello_1
 62
7
100
AcDbLine
 10
146.549510
 20
319.469602
 30
0.0
 11
151.549530
 21
319.469602
 31
0.0
  0
LINE
  5
4b4
100
AcDbEntity
  8
Livello_1
 62
7
100
AcDbLine
 10
151.549530
 20
319.469602
 30
0.0
 11
151.549530
 21
329.469609
 31
0.0
  0
LINE
  5
4b5
100
AcDbEntity
  8
Livello_1
 62
7
100
AcDbLine
 10
151.549530
 20
329.469609
 30
0.0
 11
146.549510
 21
329.469609
 31
0.0
  0
LINE
  5
4b6
100
AcDbEntity
  8
Livello_1
 62
7
100
AcDbLine
 10
146.549510
 20
329.469609
 30
0.0
 11
146.549510
 21
339.469615
 31
0.0
  0
LINE
  5
4b7
100
AcDbEntity
  8
Livello_1
 62
7
100
AcDbLine
 10
146.549510
 20
339.469615
 30
0.0
 11
151.549530
 21
339.469615
 31
0.0
  0
LINE
  5
4b8
100
AcDbEntity
  8
Livello_1
 62
7
100
AcDbLine
 10
151.549530
 20
339.469615
 30
0.0
 11
151.549530
 21
344.469605
 31
0.0
  0
LINE
  5
4b9
100
AcDbEntity
  8
Livello_1
 62
7
100
AcDbLine
 10
151.549530
 20
259.469591
 30
0.0
 11
151.549530
 21
254.469601
 31
0.0
  0
LINE
  5
4ba
100
AcDbEntity
  8
Livello_1
 62
7
100
AcDbLine
 10
70.329720
 20
154.537910
 30
0.0
 11
85.329716
 21
154.537910
 31
0.0
  0
LINE
  5
4bb
100
AcDbEntity
  8
Livello_1
 62
7
100
AcDbLine
 10
150.329720
 20
159.537900
 30
0.0
 11
155.329710
 21
159.537900
 31
0.0
  0
LINE
  5
4bc
100
AcDbEntity
  8
Livello_1
 62
7
100
AcDbLine
 10
155.329710
 20
159.537900
 30
0.0
 11
155.329710
 21
169.537900
 31
0.0
  0
LINE
  5
4bd
100
AcDbEntity
  8
Livello_1
 62
7
100
AcDbLine
 10
155.329710
 20
169.537900
 30
0.0
 11
150.329720
 21
169.537900
 31
0.0
  0
LINE
  5
4be
100
AcDbEntity
  8
Livello_1
 62
7
100
AcDbLine
 10
150.329720
 20
169.537900
 30
0.0
 11
150.329720
 21
179.537910
 31
0.0
  0
LINE
  5
4bf
100
AcDbEntity
  8
Livello_1
 62
7
100
AcDbLine
 10
150.329720
 20
179.537910
 30
0.0
 11
155.329710
 21
179.537910
 31
0.0
  0
LINE
  5
4c0
100
AcDbEntity
  8
Livello_1
 62
7
100
AcDbLine
 10
155.329710
 20
179.537910
 30
0.0
 11
155.329710
 21
219.537907
 31
0.0
  0
LINE
  5
4c1
100
AcDbEntity
  8
Livello_1
 62
7
100
AcDbLine
 10
155.329710
 20
219.537907
 30
0.0
 11
150.329720
 21
219.537907
 31
0.0
  0
LINE
  5
4c2
100
AcDbEntity
  8
Livello_1
 62
7
100
AcDbLine
 10
150.329720
 20
219.537907
 30
0.0
 11
150.329720
 21
229.537914
 31
0.0
  0
LINE
  5
4c3
100
AcDbEntity
  8
Livello_1
 62
7
100
AcDbLine
 10
150.329720
 20
229.537914
 30
0.0
 11
155.329710
 21
229.537914
 31
0.0
  0
LINE
  5
4c4
100
AcDbEntity
  8
Livello_1
 62
7
100
AcDbLine
 10
155.329710
 20
229.537914
 30
0.0
 11
155.329710
 21
239.537893
 31
0.0
  0
LINE
  5
4c5
100
AcDbEntity
  8
Livello_1
 62
7
100
AcDbLine
 10
155.329710
 20
239.537893
 30
0.0
 11
150.329720
 21
239.537893
 31
0.0
  0
LINE
  5
4c6
100
AcDbEntity
  8
Livello_1
 62
7
100
AcDbLine
 10
150.329720
 20
239.537893
 30
0.0
 11
150.329720
 21
244.537910
 31
0.0
  0
LINE
  5
4c7
100
AcDbEntity
  8
Livello_1
 62
7
100
AcDbLine
 10
150.329720
 20
159.537900
 30
0.0
 11
150.329720
 21
154.537910
 31
0.0
  0
LINE
  5
4c8
100
AcDbEntity
  8
Livello_1
 62
7
100
AcDbLine
 10
70.329720
 20
244.537910
 30
0.0
 11
85.329716
 21
244.537910
 31
0.0
  0
LINE
  5
4c9
100
AcDbEntity
  8
Livello_1
 62
7
100
AcDbLine
 10
135.329690
 20
244.537910
 30
0.0
 11
150.329720
 21
244.537910
 31
0.0
  0
LINE
  5
4ca
100
AcDbEntity
  8
Livello_1
 62
7
100
AcDbLine
 10
86.549525
 20
344.469605
 30
0.0
 11
86.549525
 21
339.469615
 31
0.0
  0
LINE
  5
4cb
100
AcDbEntity
  8
Livello_1
 62
7
100
AcDbLine
 10
86.549525
 20
339.469615
 30
0.0
 11
131.549510
 21
339.469615
 31
0.0
  0
LINE
  5
4cc
100
AcDbEntity
  8
Livello_1
 62
7
100
AcDbLine
 10
131.549510
 20
339.469615
 30
0.0
 11
131.549510
 21
344.469605
 31
0.0
  0
LINE
  5
4cd
100
AcDbEntity
  8
Livello_1
 62
7
100
AcDbLine
 10
85.329716
 20
244.537910
 30
0.0
 11
85.329716
 21
239.537893
 31
0.0
  0
LINE
  5
4ce
100
AcDbEntity
  8
Livello_1
 62
7
100
AcDbLine
 10
85.329716
 20
239.537893
 30
0.0
 11
135.329690
 21
239.537893
 31
0.0
  0
LINE
  5
4cf
100
AcDbEntity
  8
Livello_1
 62
7
100
AcDbLine
 10
135.329690
 20
239.537893
 30
0.0
 11
135.329690
 21
244.537910
 31
0.0
  0
LINE
  5
4d0
100
AcDbEntity
  8
Livello_1
 62
7
100
AcDbLine
 10
79.299005
 20
266.971358
 30
0.0
 11
86.298995
 21
266.971358
 31
0.0
  0
LINE
  5
4d1
100
AcDbEntity
  8
Livello_1
 62
7
100
AcDbLine
 10
86.298995
 20
266.971358
 30
0.0
 11
86.298995
 21
259.471382
 31
0.0
  0
LINE
  5
4d2
100
AcDbEntity
  8
Livello_1
 62
7
100
AcDbLine
 10
86.298995
 20
259.471382
 30
0.0
 11
79.299005
 21
259.471382
 31
0.0
  0
LINE
  5
4d3
100
AcDbEntity
  8
Livello_1
 62
7
100
AcDbLine
 10
79.299005
 20
259.471382
 30
0.0
 11
79.299005
 21
266.971358
 31
0.0
  0
LINE
  5
4d4
100
AcDbEntity
  8
Livello_1
 62
7
100
AcDbLine
 10
79.299005
 20
278.221348
 30
0.0
 11
86.298995
 21
278.221348
 31
0.0
  0
LINE
  5
4d5
100
AcDbEntity
  8
Livello_1
 62
7
100
AcDbLine
 10
86.298995
 20
278.221348
 30
0.0
 11
86.298995
 21
270.721372
 31
0.0
  0
LINE
  5
4d6
100
AcDbEntity
  8
Livello_1
 62
7
100
AcDbLine
 10
86.298995
 20
270.721372
 30
0.0
 11
79.299005
 21
270.721372
 31
0.0
  0
LINE
  5
4d7
100
AcDbEntity
  8
Livello_1
 62
7
100
AcDbLine
 10
79.299005
 20
270.721372
 30
0.0
 11
79.299005
 21
278.221348
 31
0.0
  0
LINE
  5
4d8
100
AcDbEntity
  8
Livello_1
 62
7
100
AcDbLine
 10
79.299005
 20
289.471338
 30
0.0
 11
86.298995
 21
289.471338
 31
0.0
  0
LINE
  5
4d9
100
AcDbEntity
  8
Livello_1
 62
7
100
AcDbLine
 10
86.298995
 20
289.471338
 30
0.0
 11
86.298995
 21
281.971362
 31
0.0
  0
LINE
  5
4da
100
AcDbEntity
  8
Livello_1
 62
7
100
AcDbLine
 10
86.298995
 20
281.971362
 30
0.0
 11
79.299005
 21
281.971362
 31
0.0
  0
LINE
  5
4db
100
AcDbEntity
  8
Livello_1
 62
7
100
AcDbLine
 10
79.299005
 20
281.971362
 30
0.0
 11
79.299005
 21
289.471338
 31
0.0
  0
LINE
  5
4dc
100
AcDbEntity
  8
Livello_1
 62
7
100
AcDbLine
 10
79.299005
 20
300.721301
 30
0.0
 11
86.298995
 21
300.721301
 31
0.0
  0
LINE
  5
4dd
100
AcDbEntity
  8
Livello_1
 62
7
100
AcDbLine
 10
86.298995
 20
300.721301
 30
0.0
 11
86.298995
 21
293.221325
 31
0.0
  0
LINE
  5
4de
100
AcDbEntity
  8
Livello_1
 62
7
100
AcDbLine
 10
86.298995
 20
293.221325
 30
0.0
 11
79.299005
 21
293.221325
 31
0.0
  0
LINE
  5
4df
100
AcDbEntity
  8
Livello_1
 62
7
100
AcDbLine
 10
79.299005
 20
293.221325
 30
0.0
 11
79.299005
 21
300.721301
 31
0.0
  0
LINE
  5
4e0
100
AcDbEntity
  8
Livello_1
 62
7
100
AcDbLine
 10
79.299005
 20
311.971370
 30
0.0
 11
86.298995
 21
311.971370
 31
0.0
  0
LINE
  5
4e1
100
AcDbEntity
  8
Livello_1
 62
7
100
AcDbLine
 10
86.298995
 20
311.971370
 30
0.0
 11
86.298995
 21
304.471394
 31
0.0
  0
LINE
  5
4e2
100
AcDbEntity
  8
Livello_1
 62
7
100
AcDbLine
 10
86.298995
 20
304.471394
 30
0.0
 11
79.299005
 21
304.471394
 31
0.0
  0
LINE
  5
4e3
100
AcDbEntity
  8
Livello_1
 62
7
100
AcDbLine
 10
79.299005
 20
304.471394
 30
0.0
 11
79.299005
 21
311.971370
 31
0.0
  0
LINE
  5
4e4
100
AcDbEntity
  8
Livello_1
 62
7
100
AcDbLine
 10
79.299005
 20
323.221175
 30
0.0
 11
86.298995
 21
323.221175
 31
0.0
  0
LINE
  5
4e5
100
AcDbEntity
  8
Livello_1
 62
7
100
AcDbLine
 10
86.298995
 20
323.221175
 30
0.0
 11
86.298995
 21
315.721199
 31
0.0
  0
LINE
  5
4e6
100
AcDbEntity
  8
Livello_1
 62
7
100
AcDbLine
 10
86.298995
 20
315.721199
 30
0.0
 11
79.299005
 21
315.721199
 31
0.0
  0
LINE
  5
4e7
100
AcDbEntity
  8
Livello_1
 62
7
100
AcDbLine
 10
79.299005
 20
315.721199
 30
0.0
 11
79.299005
 21
323.221175
 31
0.0
  0
LINE
  5
4e8
100
AcDbEntity
  8
Livello_1
 62
7
100
AcDbLine
 10
79.299005
 20
334.471244
 30
0.0
 11
86.298995
 21
334.471244
 31
0.0
  0
LINE
  5
4e9
100
AcDbEntity
  8
Livello_1
 62
7
100
AcDbLine
 10
86.298995
 20
334.471244
 30
0.0
 11
86.298995
 21
326.971268
 31
0.0
  0
LINE
  5
4ea
100
AcDbEntity
  8
Livello_1
 62
7
100
AcDbLine
 10
86.298995
 20
326.971268
 30
0.0
 11
79.299005
 21
326.971268
 31
0.0
  0
LINE
  5
4eb
100
AcDbEntity
  8
Livello_1
 62
7
100
AcDbLine
 10
79.299005
 20
326.971268
 30
0.0
 11
79.299005
 21
334.471244
 31
0.0
  0
LINE
  5
4ec
100
AcDbEntity
  8
Livello_1
 62
7
100
AcDbLine
 10
89.798981
 20
266.971358
 30
0.0
 11
96.798972
 21
266.971358
 31
0.0
  0
LINE
  5
4ed
100
AcDbEntity
  8
Livello_1
 62
7
100
AcDbLine
 10
96.798972
 20
266.971358
 30
0.0
 11
96.798972
 21
259.471382
 31
0.0
  0
LINE
  5
4ee
100
AcDbEntity
  8
Livello_1
 62
7
100
AcDbLine
 10
96.798972
 20
259.471382
 30
0.0
 11
89.798981
 21
259.471382
 31
0.0
  0
LINE
  5
4ef
100
AcDbEntity
  8
Livello_1
 62
7
100
AcDbLine
 10
89.798981
 20
259.471382
 30
0.0
 11
89.798981
 21
266.971358
 31
0.0
  0
LINE
  5
4f0
100
AcDbEntity
  8
Livello_1
 62
7
100
AcDbLine
 10
89.798981
 20
278.221348
 30
0.0
 11
96.798972
 21
278.221348
 31
0.0
  0
LINE
  5
4f1
100
AcDbEntity
  8
Livello_1
 62
7
100
AcDbLine
 10
96.798972
 20
278.221348
 30
0.0
 11
96.798972
 21
270.721372
 31
0.0
  0
LINE
  5
4f2
100
AcDbEntity
  8
Livello_1
 62
7
100
AcDbLine
 10
96.798972
 20
270.721372
 30
0.0
 11
89.798981
 21
270.721372
 31
0.0
  0
LINE
  5
4f3
100
AcDbEntity
  8
Livello_1
 62
7
100
AcDbLine
 10
89.798981
 20
270.721372
 30
0.0
 11
89.798981
 21
278.221348
 31
0.0
  0
LINE
  5
4f4
100
AcDbEntity
  8
Livello_1
 62
7
100
AcDbLine
 10
89.798981
 20
289.471338
 30
0.0
 11
96.798972
 21
289.471338
 31
0.0
  0
LINE
  5
4f5
100
AcDbEntity
  8
Livello_1
 62
7
100
AcDbLine
 10
96.798972
 20
289.471338
 30
0.0
 11
96.798972
 21
281.971362
 31
0.0
  0
LINE
  5
4f6
100
AcDbEntity
  8
Livello_1
 62
7
100
AcDbLine
 10
96.798972
 20
281.971362
 30
0.0
 11
89.798981
 21
281.971362
 31
0.0
  0
LINE
  5
4f7
100
AcDbEntity
  8
Livello_1
 62
7
100
AcDbLine
 10
89.798981
 20
281.971362
 30
0.0
 11
89.798981
 21
289.471338
 31
0.0
  0
LINE
  5
4f8
100
AcDbEntity
  8
Livello_1
 62
7
100
AcDbLine
 10
89.798981
 20
300.721301
 30
0.0
 11
96.798972
 21
300.721301
 31
0.0
  0
LINE
  5
4f9
100
AcDbEntity
  8
Livello_1
 62
7
100
AcDbLine
 10
96.798972
 20
300.721301
 30
0.0
 11
96.798972
 21
293.221325
 31
0.0
  0
LINE
  5
4fa
100
AcDbEntity
  8
Livello_1
 62
7
100
AcDbLine
 10
96.798972
 20
293.221325
 30
0.0
 11
89.798981
 21
293.221325
 31
0.0
  0
LINE
  5
4fb
100
AcDbEntity
  8
Livello_1
 62
7
100
AcDbLine
 10
89.798981
 20
293.221325
 30
0.0
 11
89.798981
 21
300.721301
 31
0.0
  0
LINE
  5
4fc
100
AcDbEntity
  8
Livello_1
 62
7
100
AcDbLine
 10
89.798981
 20
311.971370
 30
0.0
 11
96.798972
 21
311.971370
 31
0.0
  0
LINE
  5
4fd
100
AcDbEntity
  8
Livello_1
 62
7
100
AcDbLine
 10
96.798972
 20
311.971370
 30
0.0
 11
96.798972
 21
304.471394
 31
0.0
  0
LINE
  5
4fe
100
AcDbEntity
  8
Livello_1
 62
7
100
AcDbLine
 10
96.798972
 20
304.471394
 30
0.0
 11
89.798981
 21
304.471394
 31
0.0
  0
LINE
  5
4ff
100
AcDbEntity
  8
Livello_1
 62
7
100
AcDbLine
 10
89.798981
 20
304.471394
 30
0.0
 11
89.798981
 21
311.971370
 31
0.0
  0
LINE
  5
500
100
AcDbEntity
  8
Livello_1
 62
7
100
AcDbLine
 10
89.798981
 20
323.221175
 30
0.0
 11
96.798972
 21
323.221175
 31
0.0
  0
LINE
  5
501
100
AcDbEntity
  8
Livello_1
 62
7
100
AcDbLine
 10
96.798972
 20
323.221175
 30
0.0
 11
96.798972
 21
315.721199
 31
0.0
  0
LINE
  5
502
100
AcDbEntity
  8
Livello_1
 62
7
100
AcDbLine
 10
96.798972
 20
315.721199
 30
0.0
 11
89.798981
 21
315.721199
 31
0.0
  0
LINE
  5
503
100
AcDbEntity
  8
Livello_1
 62
7
100
AcDbLine
 10
89.798981
 20
315.721199
 30
0.0
 11
89.798981
 21
323.221175
 31
0.0
  0
LINE
  5
504
100
AcDbEntity
  8
Livello_1
 62
7
100
AcDbLine
 10
89.798981
 20
334.471244
 30
0.0
 11
96.798972
 21
334.471244
 31
0.0
  0
LINE
  5
505
100
AcDbEntity
  8
Livello_1
 62
7
100
AcDbLine
 10
96.798972
 20
334.471244
 30
0.0
 11
96.798972
 21
326.971268
 31
0.0
  0
LINE
  5
506
100
AcDbEntity
  8
Livello_1
 62
7
100
AcDbLine
 10
96.798972
 20
326.971268
 30
0.0
 11
89.798981
 21
326.971268
 31
0.0
  0
LINE
  5
507
100
AcDbEntity
  8
Livello_1
 62
7
100
AcDbLine
 10
89.798981
 20
326.971268
 30
0.0
 11
89.798981
 21
334.471244
 31
0.0
  0
LINE
  5
508
100
AcDbEntity
  8
Livello_1
 62
7
100
AcDbLine
 10
100.298984
 20
266.971358
 30
0.0
 11
107.298975
 21
266.971358
 31
0.0
  0
LINE
  5
509
100
AcDbEntity
  8
Livello_1
 62
7
100
AcDbLine
 10
107.298975
 20
266.971358
 30
0.0
 11
107.298975
 21
259.471382
 31
0.0
  0
LINE
  5
50a
100
AcDbEntity
  8
Livello_1
 62
7
100
AcDbLine
 10
107.298975
 20
259.471382
 30
0.0
 11
100.298984
 21
259.471382
 31
0.0
  0
LINE
  5
50b
100
AcDbEntity
  8
Livello_1
 62
7
100
AcDbLine
 10
100.298984
 20
259.471382
 30
0.0
 11
100.298984
 21
266.971358
 31
0.0
  0
LINE
  5
50c
100
AcDbEntity
  8
Livello_1
 62
7
100
AcDbLine
 10
100.298984
 20
278.221348
 30
0.0
 11
107.298975
 21
278.221348
 31
0.0
  0
LINE
  5
50d
100
AcDbEntity
  8
Livello_1
 62
7
100
AcDbLine
 10
107.298975
 20
278.221348
 30
0.0
 11
107.298975
 21
270.721372
 31
0.0
  0
LINE
  5
50e
100
AcDbEntity
  8
Livello_1
 62
7
100
AcDbLine
 10
107.298975
 20
270.721372
 30
0.0
 11
100.298984
 21
270.721372
 31
0.0
  0
LINE
  5
50f
100
AcDbEntity
  8
Livello_1
 62
7
100
AcDbLine
 10
100.298984
 20
270.721372
 30
0.0
 11
100.298984
 21
278.221348
 31
0.0
  0
LINE
  5
510
100
AcDbEntity
  8
Livello_1
 62
7
100
AcDbLine
 10
100.298984
 20
289.471338
 30
0.0
 11
107.298975
 21
289.471338
 31
0.0
  0
LINE
  5
511
100
AcDbEntity
  8
Livello_1
 62
7
100
AcDbLine
 10
107.298975
 20
289.471338
 30
0.0
 11
107.298975
 21
281.971362
 31
0.0
  0
LINE
  5
512
100
AcDbEntity
  8
Livello_1
 62
7
100
AcDbLine
 10
107.298975
 20
281.971362
 30
0.0
 11
100.298984
 21
281.971362
 31
0.0
  0
LINE
  5
513
100
AcDbEntity
  8
Livello_1
 62
7
100
AcDbLine
 10
100.298984
 20
281.971362
 30
0.0
 11
100.298984
 21
289.471338
 31
0.0
  0
LINE
  5
514
100
AcDbEntity
  8
Livello_1
 62
7
100
AcDbLine
 10
100.298984
 20
300.721301
 30
0.0
 11
107.298975
 21
300.721301
 31
0.0
  0
LINE
  5
515
100
AcDbEntity
  8
Livello_1
 62
7
100
AcDbLine
 10
107.298975
 20
300.721301
 30
0.0
 11
107.298975
 21
293.221325
 31
0.0
  0
LINE
  5
516
100
AcDbEntity
  8
Livello_1
 62
7
100
AcDbLine
 10
107.298975
 20
293.221325
 30
0.0
 11
100.298984
 21
293.221325
 31
0.0
  0
LINE
  5
517
100
AcDbEntity
  8
Livello_1
 62
7
100
AcDbLine
 10
100.298984
 20
293.221325
 30
0.0
 11
100.298984
 21
300.721301
 31
0.0
  0
LINE
  5
518
100
AcDbEntity
  8
Livello_1
 62
7
100
AcDbLine
 10
100.298984
 20
311.971370
 30
0.0
 11
107.298975
 21
311.971370
 31
0.0
  0
LINE
  5
519
100
AcDbEntity
  8
Livello_1
 62
7
100
AcDbLine
 10
107.298975
 20
311.971370
 30
0.0
 11
107.298975
 21
304.471394
 31
0.0
  0
LINE
  5
51a
100
AcDbEntity
  8
Livello_1
 62
7
100
AcDbLine
 10
107.298975
 20
304.471394
 30
0.0
 11
100.298984
 21
304.471394
 31
0.0
  0
LINE
  5
51b
100
AcDbEntity
  8
Livello_1
 62
7
100
AcDbLine
 10
100.298984
 20
304.471394
 30
0.0
 11
100.298984
 21
311.971370
 31
0.0
  0
LINE
  5
51c
100
AcDbEntity
  8
Livello_1
 62
7
100
AcDbLine
 10
100.298984
 20
323.221175
 30
0.0
 11
107.298975
 21
323.221175
 31
0.0
  0
LINE
  5
51d
100
AcDbEntity
  8
Livello_1
 62
7
100
AcDbLine
 10
107.298975
 20
323.221175
 30
0.0
 11
107.298975
 21
315.721199
 31
0.0
  0
LINE
  5
51e
100
AcDbEntity
  8
Livello_1
 62
7
100
AcDbLine
 10
107.298975
 20
315.721199
 30
0.0
 11
100.298984
 21
315.721199
 31
0.0
  0
LINE
  5
51f
100
AcDbEntity
  8
Livello_1
 62
7
100
AcDbLine
 10
100.298984
 20
315.721199
 30
0.0
 11
100.298984
 21
323.221175
 31
0.0
  0
LINE
  5
520
100
AcDbEntity
  8
Livello_1
 62
7
100
AcDbLine
 10
100.298984
 20
334.471244
 30
0.0
 11
107.298975
 21
334.471244
 31
0.0
  0
LINE
  5
521
100
AcDbEntity
  8
Livello_1
 62
7
100
AcDbLine
 10
107.298975
 20
334.471244
 30
0.0
 11
107.298975
 21
326.971268
 31
0.0
  0
LINE
  5
522
100
AcDbEntity
  8
Livello_1
 62
7
100
AcDbLine
 10
107.298975
 20
326.971268
 30
0.0
 11
100.298984
 21
326.971268
 31
0.0
  0
LINE
  5
523
100
AcDbEntity
  8
Livello_1
 62
7
100
AcDbLine
 10
100.298984
 20
326.971268
 30
0.0
 11
100.298984
 21
334.471244
 31
0.0
  0
LINE
  5
524
100
AcDbEntity
  8
Livello_1
 62
7
100
AcDbLine
 10
110.798934
 20
266.971358
 30
0.0
 11
117.798925
 21
266.971358
 31
0.0
  0
LINE
  5
525
100
AcDbEntity
  8
Livello_1
 62
7
100
AcDbLine
 10
117.798925
 20
266.971358
 30
0.0
 11
117.798925
 21
259.471382
 31
0.0
  0
LINE
  5
526
100
AcDbEntity
  8
Livello_1
 62
7
100
AcDbLine
 10
117.798925
 20
259.471382
 30
0.0
 11
110.798934
 21
259.471382
 31
0.0
  0
LINE
  5
527
100
AcDbEntity
  8
Livello_1
 62
7
100
AcDbLine
 10
110.798934
 20
259.471382
 30
0.0
 11
110.798934
 21
266.971358
 31
0.0
  0
LINE
  5
528
100
AcDbEntity
  8
Livello_1
 62
7
100
AcDbLine
 10
110.798934
 20
278.221348
 30
0.0
 11
117.798925
 21
278.221348
 31
0.0
  0
LINE
  5
529
100
AcDbEntity
  8
Livello_1
 62
7
100
AcDbLine
 10
117.798925
 20
278.221348
 30
0.0
 11
117.798925
 21
270.721372
 31
0.0
  0
LINE
  5
52a
100
AcDbEntity
  8
Livello_1
 62
7
100
AcDbLine
 10
117.798925
 20
270.721372
 30
0.0
 11
110.798934
 21
270.721372
 31
0.0
  0
LINE
  5
52b
100
AcDbEntity
  8
Livello_1
 62
7
100
AcDbLine
 10
110.798934
 20
270.721372
 30
0.0
 11
110.798934
 21
278.221348
 31
0.0
  0
LINE
  5
52c
100
AcDbEntity
  8
Livello_1
 62
7
100
AcDbLine
 10
110.798934
 20
289.471338
 30
0.0
 11
117.798925
 21
289.471338
 31
0.0
  0
LINE
  5
52d
100
AcDbEntity
  8
Livello_1
 62
7
100
AcDbLine
 10
117.798925
 20
289.471338
 30
0.0
 11
117.798925
 21
281.971362
 31
0.0
  0
LINE
  5
52e
100
AcDbEntity
  8
Livello_1
 62
7
100
AcDbLine
 10
117.798925
 20
281.971362
 30
0.0
 11
110.798934
 21
281.971362
 31
0.0
  0
LINE
  5
52f
100
AcDbEntity
  8
Livello_1
 62
7
100
AcDbLine
 10
110.798934
 20
281.971362
 30
0.0
 11
110.798934
 21
289.471338
 31
0.0
  0
LINE
  5
530
100
AcDbEntity
  8
Livello_1
 62
7
100
AcDbLine
 10
110.798934
 20
300.721301
 30
0.0
 11
117.798925
 21
300.721301
 31
0.0
  0
LINE
  5
531
100
AcDbEntity
  8
Livello_1
 62
7
100
AcDbLine
 10
117.798925
 20
300.721301
 30
0.0
 11
117.798925
 21
293.221325
 31
0.0
  0
LINE
  5
532
100
AcDbEntity
  8
Livello_1
 62
7
100
AcDbLine
 10
117.798925
 20
293.221325
 30
0.0
 11
110.798934
 21
293.221325
 31
0.0
  0
LINE
  5
533
100
AcDbEntity
  8
Livello_1
 62
7
100
AcDbLine
 10
110.798934
 20
293.221325
 30
0.0
 11
110.798934
 21
300.721301
 31
0.0
  0
LINE
  5
534
100
AcDbEntity
  8
Livello_1
 62
7
100
AcDbLine
 10
110.798934
 20
311.971370
 30
0.0
 11
117.798925
 21
311.971370
 31
0.0
  0
LINE
  5
535
100
AcDbEntity
  8
Livello_1
 62
7
100
AcDbLine
 10
117.798925
 20
311.971370
 30
0.0
 11
117.798925
 21
304.471394
 31
0.0
  0
LINE
  5
536
100
AcDbEntity
  8
Livello_1
 62
7
100
AcDbLine
 10
117.798925
 20
304.471394
 30
0.0
 11
110.798934
 21
304.471394
 31
0.0
  0
LINE
  5
537
100
AcDbEntity
  8
Livello_1
 62
7
100
AcDbLine
 10
110.798934
 20
304.471394
 30
0.0
 11
110.798934
 21
311.971370
 31
0.0
  0
LINE
  5
538
100
AcDbEntity
  8
Livello_1
 62
7
100
AcDbLine
 10
110.798934
 20
323.221175
 30
0.0
 11
117.798925
 21
323.221175
 31
0.0
  0
LINE
  5
539
100
AcDbEntity
  8
Livello_1
 62
7
100
AcDbLine
 10
117.798925
 20
323.221175
 30
0.0
 11
117.798925
 21
315.721199
 31
0.0
  0
LINE
  5
53a
100
AcDbEntity
  8
Livello_1
 62
7
100
AcDbLine
 10
117.798925
 20
315.721199
 30
0.0
 11
110.798934
 21
315.721199
 31
0.0
  0
LINE
  5
53b
100
AcDbEntity
  8
Livello_1
 62
7
100
AcDbLine
 10
110.798934
 20
315.721199
 30
0.0
 11
110.798934
 21
323.221175
 31
0.0
  0
LINE
  5
53c
100
AcDbEntity
  8
Livello_1
 62
7
100
AcDbLine
 10
110.798934
 20
334.471244
 30
0.0
 11
117.798925
 21
334.471244
 31
0.0
  0
LINE
  5
53d
100
AcDbEntity
  8
Livello_1
 62
7
100
AcDbLine
 10
117.798925
 20
334.471244
 30
0.0
 11
117.798925
 21
326.971268
 31
0.0
  0
LINE
  5
53e
100
AcDbEntity
  8
Livello_1
 62
7
100
AcDbLine
 10
117.798925
 20
326.971268
 30
0.0
 11
110.798934
 21
326.971268
 31
0.0
  0
LINE
  5
53f
100
AcDbEntity
  8
Livello_1
 62
7
100
AcDbLine
 10
110.798934
 20
326.971268
 30
0.0
 11
110.798934
 21
334.471244
 31
0.0
  0
LINE
  5
540
100
AcDbEntity
  8
Livello_1
 62
7
100
AcDbLine
 10
121.298910
 20
266.971358
 30
0.0
 11
128.298901
 21
266.971358
 31
0.0
  0
LINE
  5
541
100
AcDbEntity
  8
Livello_1
 62
7
100
AcDbLine
 10
128.298901
 20
266.971358
 30
0.0
 11
128.298901
 21
259.471382
 31
0.0
  0
LINE
  5
542
100
AcDbEntity
  8
Livello_1
 62
7
100
AcDbLine
 10
128.298901
 20
259.471382
 30
0.0
 11
121.298910
 21
259.471382
 31
0.0
  0
LINE
  5
543
100
AcDbEntity
  8
Livello_1
 62
7
100
AcDbLine
 10
121.298910
 20
259.471382
 30
0.0
 11
121.298910
 21
266.971358
 31
0.0
  0
LINE
  5
544
100
AcDbEntity
  8
Livello_1
 62
7
100
AcDbLine
 10
121.298910
 20
278.221348
 30
0.0
 11
128.298901
 21
278.221348
 31
0.0
  0
LINE
  5
545
100
AcDbEntity
  8
Livello_1
 62
7
100
AcDbLine
 10
128.298901
 20
278.221348
 30
0.0
 11
128.298901
 21
270.721372
 31
0.0
  0
LINE
  5
546
100
AcDbEntity
  8
Livello_1
 62
7
100
AcDbLine
 10
128.298901
 20
270.721372
 30
0.0
 11
121.298910
 21
270.721372
 31
0.0
  0
LINE
  5
547
100
AcDbEntity
  8
Livello_1
 62
7
100
AcDbLine
 10
121.298910
 20
270.721372
 30
0.0
 11
121.298910
 21
278.221348
 31
0.0
  0
LINE
  5
548
100
AcDbEntity
  8
Livello_1
 62
7
100
AcDbLine
 10
121.298910
 20
289.471338
 30
0.0
 11
128.298901
 21
289.471338
 31
0.0
  0
LINE
  5
549
100
AcDbEntity
  8
Livello_1
 62
7
100
AcDbLine
 10
128.298901
 20
289.471338
 30
0.0
 11
128.298901
 21
281.971362
 31
0.0
  0
LINE
  5
54a
100
AcDbEntity
  8
Livello_1
 62
7
100
AcDbLine
 10
128.298901
 20
281.971362
 30
0.0
 11
121.298910
 21
281.971362
 31
0.0
  0
LINE
  5
54b
100
AcDbEntity
  8
Livello_1
 62
7
100
AcDbLine
 10
121.298910
 20
281.971362
 30
0.0
 11
121.298910
 21
289.471338
 31
0.0
  0
LINE
  5
54c
100
AcDbEntity
  8
Livello_1
 62
7
100
AcDbLine
 10
121.298910
 20
300.721301
 30
0.0
 11
128.298901
 21
300.721301
 31
0.0
  0
LINE
  5
54d
100
AcDbEntity
  8
Livello_1
 62
7
100
AcDbLine
 10
128.298901
 20
300.721301
 30
0.0
 11
128.298901
 21
293.221325
 31
0.0
  0
LINE
  5
54e
100
AcDbEntity
  8
Livello_1
 62
7
100
AcDbLine
 10
128.298901
 20
293.221325
 30
0.0
 11
121.298910
 21
293.221325
 31
0.0
  0
LINE
  5
54f
100
AcDbEntity
  8
Livello_1
 62
7
100
AcDbLine
 10
121.298910
 20
293.221325
 30
0.0
 11
121.298910
 21
300.721301
 31
0.0
  0
LINE
  5
550
100
AcDbEntity
  8
Livello_1
 62
7
100
AcDbLine
 10
121.298910
 20
311.971370
 30
0.0
 11
128.298901
 21
311.971370
 31
0.0
  0
LINE
  5
551
100
AcDbEntity
  8
Livello_1
 62
7
100
AcDbLine
 10
128.298901
 20
311.971370
 30
0.0
 11
128.298901
 21
304.471394
 31
0.0
  0
LINE
  5
552
100
AcDbEntity
  8
Livello_1
 62
7
100
AcDbLine
 10
128.298901
 20
304.471394
 30
0.0
 11
121.298910
 21
304.471394
 31
0.0
  0
LINE
  5
553
100
AcDbEntity
  8
Livello_1
 62
7
100
AcDbLine
 10
121.298910
 20
304.471394
 30
0.0
 11
121.298910
 21
311.971370
 31
0.0
  0
LINE
  5
554
100
AcDbEntity
  8
Livello_1
 62
7
100
AcDbLine
 10
121.298910
 20
323.221175
 30
0.0
 11
128.298901
 21
323.221175
 31
0.0
  0
LINE
  5
555
100
AcDbEntity
  8
Livello_1
 62
7
100
AcDbLine
 10
128.298901
 20
323.221175
 30
0.0
 11
128.298901
 21
315.721199
 31
0.0
  0
LINE
  5
556
100
AcDbEntity
  8
Livello_1
 62
7
100
AcDbLine
 10
128.298901
 20
315.721199
 30
0.0
 11
121.298910
 21
315.721199
 31
0.0
  0
LINE
  5
557
100
AcDbEntity
  8
Livello_1
 62
7
100
AcDbLine
 10
121.298910
 20
315.721199
 30
0.0
 11
121.298910
 21
323.221175
 31
0.0
  0
LINE
  5
558
100
AcDbEntity
  8
Livello_1
 62
7
100
AcDbLine
 10
121.298910
 20
334.471244
 30
0.0
 11
128.298901
 21
334.471244
 31
0.0
  0
LINE
  5
559
100
AcDbEntity
  8
Livello_1
 62
7
100
AcDbLine
 10
128.298901
 20
334.471244
 30
0.0
 11
128.298901
 21
326.971268
 31
0.0
  0
LINE
  5
55a
100
AcDbEntity
  8
Livello_1
 62
7
100
AcDbLine
 10
128.298901
 20
326.971268
 30
0.0
 11
121.298910
 21
326.971268
 31
0.0
  0
LINE
  5
55b
100
AcDbEntity
  8
Livello_1
 62
7
100
AcDbLine
 10
121.298910
 20
326.971268
 30
0.0
 11
121.298910
 21
334.471244
 31
0.0
  0
LINE
  5
55c
100
AcDbEntity
  8
Livello_1
 62
7
100
AcDbLine
 10
131.798886
 20
266.971358
 30
0.0
 11
138.798877
 21
266.971358
 31
0.0
  0
LINE
  5
55d
100
AcDbEntity
  8
Livello_1
 62
7
100
AcDbLine
 10
138.798877
 20
266.971358
 30
0.0
 11
138.798877
 21
259.471382
 31
0.0
  0
LINE
  5
55e
100
AcDbEntity
  8
Livello_1
 62
7
100
AcDbLine
 10
138.798877
 20
259.471382
 30
0.0
 11
131.798886
 21
259.471382
 31
0.0
  0
LINE
  5
55f
100
AcDbEntity
  8
Livello_1
 62
7
100
AcDbLine
 10
131.798886
 20
259.471382
 30
0.0
 11
131.798886
 21
266.971358
 31
0.0
  0
LINE
  5
560
100
AcDbEntity
  8
Livello_1
 62
7
100
AcDbLine
 10
131.798886
 20
278.221348
 30
0.0
 11
138.798877
 21
278.221348
 31
0.0
  0
LINE
  5
561
100
AcDbEntity
  8
Livello_1
 62
7
100
AcDbLine
 10
138.798877
 20
278.221348
 30
0.0
 11
138.798877
 21
270.721372
 31
0.0
  0
LINE
  5
562
100
AcDbEntity
  8
Livello_1
 62
7
100
AcDbLine
 10
138.798877
 20
270.721372
 30
0.0
 11
131.798886
 21
270.721372
 31
0.0
  0
LINE
  5
563
100
AcDbEntity
  8
Livello_1
 62
7
100
AcDbLine
 10
131.798886
 20
270.721372
 30
0.0
 11
131.798886
 21
278.221348
 31
0.0
  0
LINE
  5
564
100
AcDbEntity
  8
Livello_1
 62
7
100
AcDbLine
 10
131.798886
 20
289.471338
 30
0.0
 11
138.798877
 21
289.471338
 31
0.0
  0
LINE
  5
565
100
AcDbEntity
  8
Livello_1
 62
7
100
AcDbLine
 10
138.798877
 20
289.471338
 30
0.0
 11
138.798877
 21
281.971362
 31
0.0
  0
LINE
  5
566
100
AcDbEntity
  8
Livello_1
 62
7
100
AcDbLine
 10
138.798877
 20
281.971362
 30
0.0
 11
131.798886
 21
281.971362
 31
0.0
  0
LINE
  5
567
100
AcDbEntity
  8
Livello_1
 62
7
100
AcDbLine
 10
131.798886
 20
281.971362
 30
0.0
 11
131.798886
 21
289.471338
 31
0.0
  0
LINE
  5
568
100
AcDbEntity
  8
Livello_1
 62
7
100
AcDbLine
 10
131.798886
 20
300.721301
 30
0.0
 11
138.798877
 21
300.721301
 31
0.0
  0
LINE
  5
569
100
AcDbEntity
  8
Livello_1
 62
7
100
AcDbLine
 10
138.798877
 20
300.721301
 30
0.0
 11
138.798877
 21
293.221325
 31
0.0
  0
LINE
  5
56a
100
AcDbEntity
  8
Livello_1
 62
7
100
AcDbLine
 10
138.798877
 20
293.221325
 30
0.0
 11
131.798886
 21
293.221325
 31
0.0
  0
LINE
  5
56b
100
AcDbEntity
  8
Livello_1
 62
7
100
AcDbLine
 10
131.798886
 20
293.221325
 30
0.0
 11
131.798886
 21
300.721301
 31
0.0
  0
LINE
  5
56c
100
AcDbEntity
  8
Livello_1
 62
7
100
AcDbLine
 10
131.798886
 20
311.971370
 30
0.0
 11
138.798877
 21
311.971370
 31
0.0
  0
LINE
  5
56d
100
AcDbEntity
  8
Livello_1
 62
7
100
AcDbLine
 10
138.798877
 20
311.971370
 30
0.0
 11
138.798877
 21
304.471394
 31
0.0
  0
LINE
  5
56e
100
AcDbEntity
  8
Livello_1
 62
7
100
AcDbLine
 10
138.798877
 20
304.471394
 30
0.0
 11
131.798886
 21
304.471394
 31
0.0
  0
LINE
  5
56f
100
AcDbEntity
  8
Livello_1
 62
7
100
AcDbLine
 10
131.798886
 20
304.471394
 30
0.0
 11
131.798886
 21
311.971370
 31
0.0
  0
LINE
  5
570
100
AcDbEntity
  8
Livello_1
 62
7
100
AcDbLine
 10
131.798886
 20
323.221175
 30
0.0
 11
138.798877
 21
323.221175
 31
0.0
  0
LINE
  5
571
100
AcDbEntity
  8
Livello_1
 62
7
100
AcDbLine
 10
138.798877
 20
323.221175
 30
0.0
 11
138.798877
 21
315.721199
 31
0.0
  0
LINE
  5
572
100
AcDbEntity
  8
Livello_1
 62
7
100
AcDbLine
 10
138.798877
 20
315.721199
 30
0.0
 11
131.798886
 21
315.721199
 31
0.0
  0
LINE
  5
573
100
AcDbEntity
  8
Livello_1
 62
7
100
AcDbLine
 10
131.798886
 20
315.721199
 30
0.0
 11
131.798886
 21
323.221175
 31
0.0
  0
LINE
  5
574
100
AcDbEntity
  8
Livello_1
 62
7
100
AcDbLine
 10
131.798886
 20
334.471244
 30
0.0
 11
138.798877
 21
334.471244
 31
0.0
  0
LINE
  5
575
100
AcDbEntity
  8
Livello_1
 62
7
100
AcDbLine
 10
138.798877
 20
334.471244
 30
0.0
 11
138.798877
 21
326.971268
 31
0.0
  0
LINE
  5
576
100
AcDbEntity
  8
Livello_1
 62
7
100
AcDbLine
 10
138.798877
 20
326.971268
 30
0.0
 11
131.798886
 21
326.971268
 31
0.0
  0
LINE
  5
577
100
AcDbEntity
  8
Livello_1
 62
7
100
AcDbLine
 10
131.798886
 20
326.971268
 30
0.0
 11
131.798886
 21
334.471244
 31
0.0
  0
LINE
  5
578
100
AcDbEntity
  8
Livello_1
 62
7
100
AcDbLine
 10
71.549528
 20
254.469601
 30
0.0
 11
71.549528
 21
249.469611
 31
0.0
  0
LINE
  5
579
100
AcDbEntity
  8
Livello_1
 62
7
100
AcDbLine
 10
71.549528
 20
249.469611
 30
0.0
 11
146.549510
 21
249.469611
 31
0.0
  0
LINE
  5
57a
100
AcDbEntity
  8
Livello_1
 62
7
100
AcDbLine
 10
146.549510
 20
249.469611
 30
0.0
 11
146.549510
 21
254.469601
 31
0.0
  0
LINE
  5
57b
100
AcDbEntity
  8
Livello_1
 62
7
100
AcDbLine
 10
70.329720
 20
159.537900
 30
0.0
 11
65.329704
 21
159.537900
 31
0.0
  0
LINE
  5
57c
100
AcDbEntity
  8
Livello_1
 62
7
100
AcDbLine
 10
65.329704
 20
159.537900
 30
0.0
 11
65.329704
 21
169.537900
 31
0.0
  0
LINE
  5
57d
100
AcDbEntity
  8
Livello_1
 62
7
100
AcDbLine
 10
65.329704
 20
169.537900
 30
0.0
 11
70.329720
 21
169.537900
 31
0.0
  0
LINE
  5
57e
100
AcDbEntity
  8
Livello_1
 62
7
100
AcDbLine
 10
70.329720
 20
169.537900
 30
0.0
 11
70.329720
 21
179.537910
 31
0.0
  0
LINE
  5
57f
100
AcDbEntity
  8
Livello_1
 62
7
100
AcDbLine
 10
70.329720
 20
179.537910
 30
0.0
 11
65.329704
 21
179.537910
 31
0.0
  0
LINE
  5
580
100
AcDbEntity
  8
Livello_1
 62
7
100
AcDbLine
 10
65.329704
 20
179.537910
 30
0.0
 11
65.329704
 21
219.537907
 31
0.0
  0
LINE
  5
581
100
AcDbEntity
  8
Livello_1
 62
7
100
AcDbLine
 10
65.329704
 20
219.537907
 30
0.0
 11
70.329720
 21
219.537907
 31
0.0
  0
LINE
  5
582
100
AcDbEntity
  8
Livello_1
 62
7
100
AcDbLine
 10
70.329720
 20
219.537907
 30
0.0
 11
70.329720
 21
229.537914
 31
0.0
  0
LINE
  5
583
100
AcDbEntity
  8
Livello_1
 62
7
100
AcDbLine
 10
70.329720
 20
229.537914
 30
0.0
 11
65.329704
 21
229.537914
 31
0.0
  0
LINE
  5
584
100
AcDbEntity
  8
Livello_1
 62
7
100
AcDbLine
 10
65.329704
 20
229.537914
 30
0.0
 11
65.329704
 21
239.537893
 31
0.0
  0
LINE
  5
585
100
AcDbEntity
  8
Livello_1
 62
7
100
AcDbLine
 10
65.329704
 20
239.537893
 30
0.0
 11
70.329720
 21
239.537893
 31
0.0
  0
LINE
  5
586
100
AcDbEntity
  8
Livello_1
 62
7
100
AcDbLine
 10
70.329720
 20
239.537893
 30
0.0
 11
70.329720
 21
244.537910
 31
0.0
  0
LINE
  5
587
100
AcDbEntity
  8
Livello_1
 62
7
100
AcDbLine
 10
70.329720
 20
159.537900
 30
0.0
 11
70.329720
 21
154.537910
 31
0.0
  0
LINE
  5
588
100
AcDbEntity
  8
Livello_1
 62
7
100
AcDbLine
 10
85.329716
 20
154.537910
 30
0.0
 11
85.329716
 21
224.537897
 31
0.0
  0
LINE
  5
589
100
AcDbEntity
  8
Livello_1
 62
7
100
AcDbLine
 10
85.329716
 20
224.537897
 30
0.0
 11
135.329690
 21
224.537897
 31
0.0
  0
LINE
  5
58a
100
AcDbEntity
  8
Livello_1
 62
7
100
AcDbLine
 10
135.329690
 20
224.537897
 30
0.0
 11
135.329690
 21
154.537910
 31
0.0
  0
LINE
  5
58b
100
AcDbEntity
  8
Livello_1
 62
7
100
AcDbLine
 10
135.329690
 20
154.537910
 30
0.0
 11
150.329720
 21
154.537910
 31
0.0
  0
LINE
  5
58c
100
AcDbEntity
  8
Livello_1
 62
7
100
AcDbLine
 10
70.454259
 20
-33.836140
 30
0.0
 11
85.454256
 21
-33.836140
 31
0.0
  0
LINE
  5
58d
100
AcDbEntity
  8
Livello_1
 62
7
100
AcDbLine
 10
135.454260
 20
-33.836140
 30
0.0
 11
150.454260
 21
-33.836140
 31
0.0
  0
LINE
  5
58e
100
AcDbEntity
  8
Livello_1
 62
7
100
AcDbLine
 10
150.454260
 20
-28.836120
 30
0.0
 11
155.454270
 21
-28.836120
 31
0.0
  0
LINE
  5
58f
100
AcDbEntity
  8
Livello_1
 62
7
100
AcDbLine
 10
155.454270
 20
-28.836120
 30
0.0
 11
155.454270
 21
-18.836140
 31
0.0
  0
LINE
  5
590
100
AcDbEntity
  8
Livello_1
 62
7
100
AcDbLine
 10
155.454270
 20
-18.836140
 30
0.0
 11
150.454260
 21
-18.836140
 31
0.0
  0
LINE
  5
591
100
AcDbEntity
  8
Livello_1
 62
7
100
AcDbLine
 10
150.454260
 20
-18.836140
 30
0.0
 11
150.454260
 21
-8.836140
 31
0.0
  0
LINE
  5
592
100
AcDbEntity
  8
Livello_1
 62
7
100
AcDbLine
 10
150.454260
 20
-8.836140
 30
0.0
 11
155.454270
 21
-8.836140
 31
0.0
  0
LINE
  5
593
100
AcDbEntity
  8
Livello_1
 62
7
100
AcDbLine
 10
155.454270
 20
-8.836140
 30
0.0
 11
155.454270
 21
31.163860
 31
0.0
  0
LINE
  5
594
100
AcDbEntity
  8
Livello_1
 62
7
100
AcDbLine
 10
155.454270
 20
31.163860
 30
0.0
 11
150.454260
 21
31.163860
 31
0.0
  0
LINE
  5
595
100
AcDbEntity
  8
Livello_1
 62
7
100
AcDbLine
 10
150.454260
 20
31.163860
 30
0.0
 11
150.454260
 21
41.163870
 31
0.0
  0
LINE
  5
596
100
AcDbEntity
  8
Livello_1
 62
7
100
AcDbLine
 10
150.454260
 20
41.163870
 30
0.0
 11
155.454270
 21
41.163870
 31
0.0
  0
LINE
  5
597
100
AcDbEntity
  8
Livello_1
 62
7
100
AcDbLine
 10
155.454270
 20
41.163870
 30
0.0
 11
155.454270
 21
51.163880
 31
0.0
  0
LINE
  5
598
100
AcDbEntity
  8
Livello_1
 62
7
100
AcDbLine
 10
155.454270
 20
51.163880
 30
0.0
 11
150.454260
 21
51.163880
 31
0.0
  0
LINE
  5
599
100
AcDbEntity
  8
Livello_1
 62
7
100
AcDbLine
 10
150.454260
 20
51.163880
 30
0.0
 11
150.454260
 21
56.163870
 31
0.0
  0
LINE
  5
59a
100
AcDbEntity
  8
Livello_1
 62
7
100
AcDbLine
 10
150.454260
 20
-28.836120
 30
0.0
 11
150.454260
 21
-33.836140
 31
0.0
  0
LINE
  5
59b
100
AcDbEntity
  8
Livello_1
 62
7
100
AcDbLine
 10
70.454259
 20
56.163870
 30
0.0
 11
85.454256
 21
56.163870
 31
0.0
  0
LINE
  5
59c
100
AcDbEntity
  8
Livello_1
 62
7
100
AcDbLine
 10
135.454260
 20
56.163870
 30
0.0
 11
150.454260
 21
56.163870
 31
0.0
  0
LINE
  5
59d
100
AcDbEntity
  8
Livello_1
 62
7
100
AcDbLine
 10
85.454256
 20
56.163870
 30
0.0
 11
85.454256
 21
51.163880
 31
0.0
  0
LINE
  5
59e
100
AcDbEntity
  8
Livello_1
 62
7
100
AcDbLine
 10
85.454256
 20
51.163880
 30
0.0
 11
135.454260
 21
51.163880
 31
0.0
  0
LINE
  5
59f
100
AcDbEntity
  8
Livello_1
 62
7
100
AcDbLine
 10
135.454260
 20
51.163880
 30
0.0
 11
135.454260
 21
56.163870
 31
0.0
  0
LINE
  5
5a0
100
AcDbEntity
  8
Livello_1
 62
7
100
AcDbLine
 10
70.454259
 20
-28.836120
 30
0.0
 11
65.454269
 21
-28.836120
 31
0.0
  0
LINE
  5
5a1
100
AcDbEntity
  8
Livello_1
 62
7
100
AcDbLine
 10
65.454269
 20
-28.836120
 30
0.0
 11
65.454269
 21
-18.836140
 31
0.0
  0
LINE
  5
5a2
100
AcDbEntity
  8
Livello_1
 62
7
100
AcDbLine
 10
65.454269
 20
-18.836140
 30
0.0
 11
70.454259
 21
-18.836140
 31
0.0
  0
LINE
  5
5a3
100
AcDbEntity
  8
Livello_1
 62
7
100
AcDbLine
 10
70.454259
 20
-18.836140
 30
0.0
 11
70.454259
 21
-8.836140
 31
0.0
  0
LINE
  5
5a4
100
AcDbEntity
  8
Livello_1
 62
7
100
AcDbLine
 10
70.454259
 20
-8.836140
 30
0.0
 11
65.454269
 21
-8.836140
 31
0.0
  0
LINE
  5
5a5
100
AcDbEntity
  8
Livello_1
 62
7
100
AcDbLine
 10
65.454269
 20
-8.836140
 30
0.0
 11
65.454269
 21
31.163860
 31
0.0
  0
LINE
  5
5a6
100
AcDbEntity
  8
Livello_1
 62
7
100
AcDbLine
 10
65.454269
 20
31.163860
 30
0.0
 11
70.454259
 21
31.163860
 31
0.0
  0
LINE
  5
5a7
100
AcDbEntity
  8
Livello_1
 62
7
100
AcDbLine
 10
70.454259
 20
31.163860
 30
0.0
 11
70.454259
 21
41.163870
 31
0.0
  0
LINE
  5
5a8
100
AcDbEntity
  8
Livello_1
 62
7
100
AcDbLine
 10
70.454259
 20
41.163870
 30
0.0
 11
65.454269
 21
41.163870
 31
0.0
  0
LINE
  5
5a9
100
AcDbEntity
  8
Livello_1
 62
7
100
AcDbLine
 10
65.454269
 20
41.163870
 30
0.0
 11
65.454269
 21
51.163880
 31
0.0
  0
LINE
  5
5aa
100
AcDbEntity
  8
Livello_1
 62
7
100
AcDbLine
 10
65.454269
 20
51.163880
 30
0.0
 11
70.454259
 21
51.163880
 31
0.0
  0
LINE
  5
5ab
100
AcDbEntity
  8
Livello_1
 62
7
100
AcDbLine
 10
70.454259
 20
51.163880
 30
0.0
 11
70.454259
 21
56.163870
 31
0.0
  0
LINE
  5
5ac
100
AcDbEntity
  8
Livello_1
 62
7
100
AcDbLine
 10
70.454259
 20
-28.836120
 30
0.0
 11
70.454259
 21
-33.836140
 31
0.0
  0
LINE
  5
5ad
100
AcDbEntity
  8
Livello_1
 62
7
100
AcDbLine
 10
85.454256
 20
-33.836140
 30
0.0
 11
135.454260
 21
-33.836140
 31
0.0
  0
ENDSEC
  0
SECTION
  2
OBJECTS
  0
DICTIONARY
  5
C
330
0
100
AcDbDictionary
  3
ACAD_GROUP
350
D
  3
ACAD_MLINESTYLE
350
17
  0
DICTIONARY
  5
D
330
C
100
AcDbDictionary
  0
DICTIONARY
  5
1A
330
C
100
AcDbDictionary
  0
DICTIONARY
  5
17
330
C
100
AcDbDictionary
  3
STANDARD
350
18
  0
DICTIONARY
  5
19
330
C
100
AcDbDictionary
  0
ENDSEC
  0
EOF
