  0
SECTION
  2
HEADER
  9
$ACADVER
  1
AC1014
  9
$HANDSEED
  5
FFFF
  9
$INSUNITS
 70
     4
  9
$MEASUREMENT
 70
     1
  0
ENDSEC
  0
SECTION
  2
TABLES
  0
TABLE
  2
VPORT
  5
8
330
0
100
AcDbSymbolTable
 70
     4
  0
VPORT
  5
2E
330
8
100
AcDbSymbolTableRecord
100
AcDbViewportTableRecord
  2
*ACTIVE
 70
     0
 10
0.0
 20
0.0
 11
1.0
 21
1.0
 12
210.0
 22
148.5
 13
0.0
 23
0.0
 14
10.0
 24
10.0
 15
10.0
 25
10.0
 16
0.0
 26
0.0
 36
1.0
 17
0.0
 27
0.0
 37
0.0
 40
341.0
 41
1.24
 42
50.0
 43
0.0
 44
0.0
 50
0.0
 51
0.0
 71
     0
 72
   100
 73
     1
 74
     3
 75
     0
 76
     0
 77
     0
 78
     0
  0
ENDTAB
  0
TABLE
  2
LTYPE
  5
5
330
0
100
AcDbSymbolTable
 70
     1
  0
LTYPE
  5
14
330
5
100
AcDbSymbolTableRecord
100
AcDbLinetypeTableRecord
  2
BYBLOCK
 70
     0
  3

 72
    65
 73
     0
 40
0.0
  0
LTYPE
  5
15
330
5
100
AcDbSymbolTableRecord
100
AcDbLinetypeTableRecord
  2
BYLAYER
 70
     0
  3

 72
    65
 73
     0
 40
0.0
  0
LTYPE
  5
16
330
5
100
AcDbSymbolTableRecord
100
AcDbLinetypeTableRecord
  2
CONTINUOUS
 70
     0
  3
Solid line
 72
    65
 73
     0
 40
0.0
  0
ENDTAB
  0
TABLE
  2
LAYER
  5
2
100
AcDbSymbolTable
 70
2
  0
LAYER
  5
50
100
AcDbSymbolTableRecord
100
AcDbLayerTableRecord
  2
0
 70
0
  6
CONTINUOUS
  0
LAYER
  5
51
100
AcDbSymbolTableRecord
100
AcDbLayerTableRecord
  2
Livello_1
 70
0
  6
CONTINUOUS
  0
ENDTAB
  0
TABLE
  2
STYLE
  5
3
330
0
100
AcDbSymbolTable
 70
     1
  0
STYLE
  5
11
330
3
100
AcDbSymbolTableRecord
100
AcDbTextStyleTableRecord
  2
STANDARD
 70
     0
 40
0.0
 41
1.0
 50
0.0
 71
     0
 42
2.5
  3
txt
  4

  0
ENDTAB
  0
TABLE
  2
VIEW
  5
6
330
0
100
AcDbSymbolTable
 70
     0
  0
ENDTAB
  0
TABLE
  2
UCS
  5
7
330
0
100
AcDbSymbolTable
 70
     0
  0
ENDTAB
  0
TABLE
  2
APPID
  5
9
330
0
100
AcDbSymbolTable
 70
     2
  0
APPID
  5
12
330
9
100
AcDbSymbolTableRecord
100
AcDbRegAppTableRecord
  2
ACAD
 70
     0
  0
ENDTAB
  0
TABLE
  2
DIMSTYLE
  5
A
330
0
100
AcDbSymbolTable
 70
     1
  0
DIMSTYLE
105
27
330
A
100
AcDbSymbolTableRecord
100
AcDbDimStyleTableRecord
  2
ISO-25
 70
     0
  3

  4

  5

  6

  7

 40
1.0
 41
2.5
 42
0.625
 43
3.75
 44
1.25
 45
0.0
 46
0.0
 47
0.0
 48
0.0
140
2.5
141
2.5
142
0.0
143
0.03937007874016
144
1.0
145
0.0
146
1.0
147
0.625
 71
     0
 72
     0
 73
     0
 74
     0
 75
     0
 76
     0
 77
     1
 78
     8
170
     0
171
     3
172
     1
173
     0
174
     0
175
     0
176
     0
177
     0
178
     0
270
     2
271
     2
272
     2
273
     2
274
     3
340
11
275
     0
280
     0
281
     0
282
     0
283
     0
284
     8
285
     0
286
     0
287
     3
288
     0
  0
ENDTAB
  0
TABLE
  2
BLOCK_RECORD
  5
1
330
0
100
AcDbSymbolTable
 70
     1
  0
BLOCK_RECORD
  5
1F
330
1
100
AcDbSymbolTableRecord
100
AcDbBlockTableRecord
  2
*MODEL_SPACE
  0
BLOCK_RECORD
  5
1B
330
1
100
AcDbSymbolTableRecord
100
AcDbBlockTableRecord
  2
*PAPER_SPACE
  0
ENDTAB
  0
ENDSEC
  0
SECTION
  2
BLOCKS
  0
BLOCK
  5
20
330
1F
100
AcDbEntity
  8
0
100
AcDbBlockBegin
  2
*MODEL_SPACE
 70
     0
 10
0.0
 20
0.0
 30
0.0
  3
*MODEL_SPACE
  1

  0
ENDBLK
  5
21
330
1F
100
AcDbEntity
  8
0
100
AcDbBlockEnd
  0
BLOCK
  5
1C
330
1B
100
AcDbEntity
 67
     1
  8
0
100
AcDbBlockBegin
  2
*PAPER_SPACE
  1

  0
ENDBLK
  5
1D
330
1B
100
AcDbEntity
 67
     1
  8
0
100
AcDbBlockEnd
  0
ENDSEC
  0
SECTION
  2
ENTITIES
  0
LINE
  5
100
100
AcDbEntity
  8
Livello_1
 62
7
100
AcDbLine
 10
214.697680
 20
243.856825
 30
0.0
 11
214.461340
 21
242.921135
 31
0.0
  0
SPLINE
  5
101
100
AcDbEntity
  8
Livello_1
 62
7
100
AcDbSpline
 70
8
 71
3
 72
8
 73
4
 74
0
 40
0
 40
0
 40
0
 40
0
 40
1
 40
1
 40
1
 40
1
 10
214.461340
 20
242.921135
 30
0.0
 10
213.692853
 20
243.117282
 30
0.0
 10
213.106040
 20
243.470978
 30
0.0
 10
212.700900
 20
243.982225
 30
0.0
  0
SPLINE
  5
102
100
AcDbEntity
  8
Livello_1
 62
7
100
AcDbSpline
 70
8
 71
3
 72
8
 73
4
 74
0
 40
0
 40
0
 40
0
 40
0
 40
1
 40
1
 40
1
 40
1
 10
212.700900
 20
243.982225
 30
0.0
 10
212.298973
 20
244.490265
 30
0.0
 10
212.098010
 20
245.112448
 30
0.0
 10
212.098010
 20
245.848775
 30
0.0
  0
SPLINE
  5
103
100
AcDbEntity
  8
Livello_1
 62
7
100
AcDbSpline
 70
8
 71
3
 72
8
 73
4
 74
0
 40
0
 40
0
 40
0
 40
0
 40
1
 40
1
 40
1
 40
1
 10
212.098010
 20
245.848775
 30
0.0
 10
212.098010
 20
246.610835
 30
0.0
 10
212.252350
 20
247.231412
 30
0.0
 10
212.561030
 20
247.710505
 30
0.0
  0
SPLINE
  5
104
100
AcDbEntity
  8
Livello_1
 62
7
100
AcDbSpline
 70
8
 71
3
 72
8
 73
4
 74
0
 40
0
 40
0
 40
0
 40
0
 40
1
 40
1
 40
1
 40
1
 10
212.561030
 20
247.710505
 30
0.0
 10
212.872923
 20
248.186392
 30
0.0
 10
213.323083
 20
248.549735
 30
0.0
 10
213.911510
 20
248.800535
 30
0.0
  0
SPLINE
  5
105
100
AcDbEntity
  8
Livello_1
 62
7
100
AcDbSpline
 70
8
 71
3
 72
8
 73
4
 74
0
 40
0
 40
0
 40
0
 40
0
 40
1
 40
1
 40
1
 40
1
 10
213.911510
 20
248.800535
 30
0.0
 10
214.499930
 20
249.048122
 30
0.0
 10
215.131760
 20
249.171915
 30
0.0
 10
215.807000
 20
249.171915
 30
0.0
  0
SPLINE
  5
106
100
AcDbEntity
  8
Livello_1
 62
7
100
AcDbSpline
 70
8
 71
3
 72
8
 73
4
 74
0
 40
0
 40
0
 40
0
 40
0
 40
1
 40
1
 40
1
 40
1
 10
215.807000
 20
249.171915
 30
0.0
 10
216.543327
 20
249.171915
 30
0.0
 10
217.184800
 20
249.032045
 30
0.0
 10
217.731420
 20
248.752305
 30
0.0
  0
SPLINE
  5
107
100
AcDbEntity
  8
Livello_1
 62
7
100
AcDbSpline
 70
8
 71
3
 72
8
 73
4
 74
0
 40
0
 40
0
 40
0
 40
0
 40
1
 40
1
 40
1
 40
1
 10
217.731420
 20
248.752305
 30
0.0
 10
218.281260
 20
248.469345
 30
0.0
 10
218.697660
 20
248.069025
 30
0.0
 10
218.980620
 20
247.551345
 30
0.0
  0
SPLINE
  5
108
100
AcDbEntity
  8
Livello_1
 62
7
100
AcDbSpline
 70
8
 71
3
 72
8
 73
4
 74
0
 40
0
 40
0
 40
0
 40
0
 40
1
 40
1
 40
1
 40
1
 10
218.980620
 20
247.551345
 30
0.0
 10
219.266787
 20
247.030445
 30
0.0
 10
219.409870
 20
246.458102
 30
0.0
 10
219.409870
 20
245.834315
 30
0.0
  0
SPLINE
  5
109
100
AcDbEntity
  8
Livello_1
 62
7
100
AcDbSpline
 70
8
 71
3
 72
8
 73
4
 74
0
 40
0
 40
0
 40
0
 40
0
 40
1
 40
1
 40
1
 40
1
 10
219.409870
 20
245.834315
 30
0.0
 10
219.409870
 20
245.126922
 30
0.0
 10
219.229807
 20
244.532068
 30
0.0
 10
218.869680
 20
244.049755
 30
0.0
  0
SPLINE
  5
10a
100
AcDbEntity
  8
Livello_1
 62
7
100
AcDbSpline
 70
8
 71
3
 72
8
 73
4
 74
0
 40
0
 40
0
 40
0
 40
0
 40
1
 40
1
 40
1
 40
1
 10
218.869680
 20
244.049755
 30
0.0
 10
218.509553
 20
243.567442
 30
0.0
 10
218.003127
 20
243.231428
 30
0.0
 10
217.350400
 20
243.041715
 30
0.0
  0
LINE
  5
10b
100
AcDbEntity
  8
Livello_1
 62
7
100
AcDbLine
 10
217.350400
 20
243.041715
 30
0.0
 11
217.133360
 21
243.962935
 31
0.0
  0
SPLINE
  5
10c
100
AcDbEntity
  8
Livello_1
 62
7
100
AcDbSpline
 70
8
 71
3
 72
8
 73
4
 74
0
 40
0
 40
0
 40
0
 40
0
 40
1
 40
1
 40
1
 40
1
 10
217.133360
 20
243.962935
 30
0.0
 10
217.647827
 20
244.126922
 30
0.0
 10
218.022423
 20
244.364862
 30
0.0
 10
218.257150
 20
244.676755
 30
0.0
  0
SPLINE
  5
10d
100
AcDbEntity
  8
Livello_1
 62
7
100
AcDbSpline
 70
8
 71
3
 72
8
 73
4
 74
0
 40
0
 40
0
 40
0
 40
0
 40
1
 40
1
 40
1
 40
1
 10
218.257150
 20
244.676755
 30
0.0
 10
218.491870
 20
244.988655
 30
0.0
 10
218.609230
 20
245.380938
 30
0.0
 10
218.609230
 20
245.853605
 30
0.0
  0
SPLINE
  5
10e
100
AcDbEntity
  8
Livello_1
 62
7
100
AcDbSpline
 70
8
 71
3
 72
8
 73
4
 74
0
 40
0
 40
0
 40
0
 40
0
 40
1
 40
1
 40
1
 40
1
 10
218.609230
 20
245.853605
 30
0.0
 10
218.609230
 20
246.397012
 30
0.0
 10
218.479007
 20
246.851992
 30
0.0
 10
218.218560
 20
247.218545
 30
0.0
  0
SPLINE
  5
10f
100
AcDbEntity
  8
Livello_1
 62
7
100
AcDbSpline
 70
8
 71
3
 72
8
 73
4
 74
0
 40
0
 40
0
 40
0
 40
0
 40
1
 40
1
 40
1
 40
1
 10
218.218560
 20
247.218545
 30
0.0
 10
217.958113
 20
247.581892
 30
0.0
 10
217.607633
 20
247.837518
 30
0.0
 10
217.167120
 20
247.985425
 30
0.0
  0
SPLINE
  5
110
100
AcDbEntity
  8
Livello_1
 62
7
100
AcDbSpline
 70
8
 71
3
 72
8
 73
4
 74
0
 40
0
 40
0
 40
0
 40
0
 40
1
 40
1
 40
1
 40
1
 10
217.167120
 20
247.985425
 30
0.0
 10
216.729820
 20
248.133338
 30
0.0
 10
216.278053
 20
248.207295
 30
0.0
 10
215.811820
 20
248.207295
 30
0.0
  0
SPLINE
  5
111
100
AcDbEntity
  8
Livello_1
 62
7
100
AcDbSpline
 70
8
 71
3
 72
8
 73
4
 74
0
 40
0
 40
0
 40
0
 40
0
 40
1
 40
1
 40
1
 40
1
 10
215.811820
 20
248.207295
 30
0.0
 10
215.210533
 20
248.207295
 30
0.0
 10
214.684813
 20
248.120478
 30
0.0
 10
214.234660
 20
247.946845
 30
0.0
  0
SPLINE
  5
112
100
AcDbEntity
  8
Livello_1
 62
7
100
AcDbSpline
 70
8
 71
3
 72
8
 73
4
 74
0
 40
0
 40
0
 40
0
 40
0
 40
1
 40
1
 40
1
 40
1
 10
214.234660
 20
247.946845
 30
0.0
 10
213.787713
 20
247.769992
 30
0.0
 10
213.453307
 20
247.496678
 30
0.0
 10
213.231440
 20
247.126905
 30
0.0
  0
SPLINE
  5
113
100
AcDbEntity
  8
Livello_1
 62
7
100
AcDbSpline
 70
8
 71
3
 72
8
 73
4
 74
0
 40
0
 40
0
 40
0
 40
0
 40
1
 40
1
 40
1
 40
1
 10
213.231440
 20
247.126905
 30
0.0
 10
213.009580
 20
246.757132
 30
0.0
 10
212.898650
 20
246.356812
 30
0.0
 10
212.898650
 20
245.925945
 30
0.0
  0
SPLINE
  5
114
100
AcDbEntity
  8
Livello_1
 62
7
100
AcDbSpline
 70
8
 71
3
 72
8
 73
4
 74
0
 40
0
 40
0
 40
0
 40
0
 40
1
 40
1
 40
1
 40
1
 10
212.898650
 20
245.925945
 30
0.0
 10
212.898650
 20
245.401832
 30
0.0
 10
213.049773
 20
244.958105
 30
0.0
 10
213.352020
 20
244.594765
 30
0.0
  0
SPLINE
  5
115
100
AcDbEntity
  8
Livello_1
 62
7
100
AcDbSpline
 70
8
 71
3
 72
8
 73
4
 74
0
 40
0
 40
0
 40
0
 40
0
 40
1
 40
1
 40
1
 40
1
 10
213.352020
 20
244.594765
 30
0.0
 10
213.654273
 20
244.231425
 30
0.0
 10
214.102827
 20
243.985445
 30
0.0
 10
214.697680
 20
243.856825
 30
0.0
  0
LINE
  5
116
100
AcDbEntity
  8
Livello_1
 62
7
100
AcDbLine
 10
214.697680
 20
243.856825
 30
0.0
 11
214.697680
 21
243.856825
 31
0.0
  0
LINE
  5
117
100
AcDbEntity
  8
Livello_1
 62
7
100
AcDbLine
 10
212.218590
 20
242.544935
 30
0.0
 11
219.289300
 21
239.829515
 31
0.0
  0
LINE
  5
118
100
AcDbEntity
  8
Livello_1
 62
7
100
AcDbLine
 10
219.289300
 20
239.829515
 30
0.0
 11
219.289300
 21
238.821475
 31
0.0
  0
LINE
  5
119
100
AcDbEntity
  8
Livello_1
 62
7
100
AcDbLine
 10
219.289300
 20
238.821475
 30
0.0
 11
212.218590
 21
235.927605
 31
0.0
  0
LINE
  5
11a
100
AcDbEntity
  8
Livello_1
 62
7
100
AcDbLine
 10
212.218590
 20
235.927605
 30
0.0
 11
212.218590
 21
236.993515
 31
0.0
  0
LINE
  5
11b
100
AcDbEntity
  8
Livello_1
 62
7
100
AcDbLine
 10
212.218590
 20
236.993515
 30
0.0
 11
214.360060
 21
237.818265
 31
0.0
  0
LINE
  5
11c
100
AcDbEntity
  8
Livello_1
 62
7
100
AcDbLine
 10
214.360060
 20
237.818265
 30
0.0
 11
214.360060
 21
240.774845
 31
0.0
  0
LINE
  5
11d
100
AcDbEntity
  8
Livello_1
 62
7
100
AcDbLine
 10
214.360060
 20
240.774845
 30
0.0
 11
212.218590
 21
241.551375
 31
0.0
  0
LINE
  5
11e
100
AcDbEntity
  8
Livello_1
 62
7
100
AcDbLine
 10
212.218590
 20
241.551375
 30
0.0
 11
212.218590
 21
242.544935
 31
0.0
  0
LINE
  5
11f
100
AcDbEntity
  8
Livello_1
 62
7
100
AcDbLine
 10
215.122110
 20
240.504755
 30
0.0
 11
215.122110
 21
238.107655
 31
0.0
  0
LINE
  5
120
100
AcDbEntity
  8
Livello_1
 62
7
100
AcDbLine
 10
215.122110
 20
238.107655
 30
0.0
 11
217.080300
 21
238.845595
 31
0.0
  0
SPLINE
  5
121
100
AcDbEntity
  8
Livello_1
 62
7
100
AcDbSpline
 70
8
 71
3
 72
8
 73
4
 74
0
 40
0
 40
0
 40
0
 40
0
 40
1
 40
1
 40
1
 40
1
 10
217.080300
 20
238.845595
 30
0.0
 10
217.675153
 20
239.070675
 30
0.0
 10
218.163897
 20
239.237878
 30
0.0
 10
218.546530
 20
239.347205
 30
0.0
  0
SPLINE
  5
122
100
AcDbEntity
  8
Livello_1
 62
7
100
AcDbSpline
 70
8
 71
3
 72
8
 73
4
 74
0
 40
0
 40
0
 40
0
 40
0
 40
1
 40
1
 40
1
 40
1
 10
218.546530
 20
239.347205
 30
0.0
 10
218.093157
 20
239.437232
 30
0.0
 10
217.643000
 20
239.564238
 30
0.0
 10
217.196060
 20
239.728225
 30
0.0
  0
LINE
  5
123
100
AcDbEntity
  8
Livello_1
 62
7
100
AcDbLine
 10
217.196060
 20
239.728225
 30
0.0
 11
215.122110
 21
240.504755
 31
0.0
  0
LINE
  5
124
100
AcDbEntity
  8
Livello_1
 62
7
100
AcDbLine
 10
212.218590
 20
235.218605
 30
0.0
 11
219.289300
 21
235.218605
 31
0.0
  0
LINE
  5
125
100
AcDbEntity
  8
Livello_1
 62
7
100
AcDbLine
 10
219.289300
 20
235.218605
 30
0.0
 11
219.289300
 21
232.565875
 31
0.0
  0
SPLINE
  5
126
100
AcDbEntity
  8
Livello_1
 62
7
100
AcDbSpline
 70
8
 71
3
 72
8
 73
4
 74
0
 40
0
 40
0
 40
0
 40
0
 40
1
 40
1
 40
1
 40
1
 10
219.289300
 20
232.565875
 30
0.0
 10
219.289300
 20
232.025688
 30
0.0
 10
219.216950
 20
231.593215
 30
0.0
 10
219.072250
 20
231.268455
 30
0.0
  0
SPLINE
  5
127
100
AcDbEntity
  8
Livello_1
 62
7
100
AcDbSpline
 70
8
 71
3
 72
8
 73
4
 74
0
 40
0
 40
0
 40
0
 40
0
 40
1
 40
1
 40
1
 40
1
 10
219.072250
 20
231.268455
 30
0.0
 10
218.930777
 20
230.940482
 30
0.0
 10
218.710523
 20
230.684855
 30
0.0
 10
218.411490
 20
230.501575
 30
0.0
  0
SPLINE
  5
128
100
AcDbEntity
  8
Livello_1
 62
7
100
AcDbSpline
 70
8
 71
3
 72
8
 73
4
 74
0
 40
0
 40
0
 40
0
 40
0
 40
1
 40
1
 40
1
 40
1
 10
218.411490
 20
230.501575
 30
0.0
 10
218.115670
 20
230.315082
 30
0.0
 10
217.805380
 20
230.221835
 30
0.0
 10
217.480620
 20
230.221835
 30
0.0
  0
SPLINE
  5
129
100
AcDbEntity
  8
Livello_1
 62
7
100
AcDbSpline
 70
8
 71
3
 72
8
 73
4
 74
0
 40
0
 40
0
 40
0
 40
0
 40
1
 40
1
 40
1
 40
1
 10
217.480620
 20
230.221835
 30
0.0
 10
217.178373
 20
230.221835
 30
0.0
 10
216.893810
 20
230.303828
 30
0.0
 10
216.626930
 20
230.467815
 30
0.0
  0
SPLINE
  5
12a
100
AcDbEntity
  8
Livello_1
 62
7
100
AcDbSpline
 70
8
 71
3
 72
8
 73
4
 74
0
 40
0
 40
0
 40
0
 40
0
 40
1
 40
1
 40
1
 40
1
 10
216.626930
 20
230.467815
 30
0.0
 10
216.360050
 20
230.631802
 30
0.0
 10
216.144617
 20
230.879388
 30
0.0
 10
215.980630
 20
231.210575
 30
0.0
  0
SPLINE
  5
12b
100
AcDbEntity
  8
Livello_1
 62
7
100
AcDbSpline
 70
8
 71
3
 72
8
 73
4
 74
0
 40
0
 40
0
 40
0
 40
0
 40
1
 40
1
 40
1
 40
1
 10
215.980630
 20
231.210575
 30
0.0
 10
215.855230
 20
230.782928
 30
0.0
 10
215.641403
 20
230.454958
 30
0.0
 10
215.339150
 20
230.226665
 30
0.0
  0
SPLINE
  5
12c
100
AcDbEntity
  8
Livello_1
 62
7
100
AcDbSpline
 70
8
 71
3
 72
8
 73
4
 74
0
 40
0
 40
0
 40
0
 40
0
 40
1
 40
1
 40
1
 40
1
 10
215.339150
 20
230.226665
 30
0.0
 10
215.036903
 20
229.995152
 30
0.0
 10
214.679993
 20
229.879395
 30
0.0
 10
214.268420
 20
229.879395
 30
0.0
  0
SPLINE
  5
12d
100
AcDbEntity
  8
Livello_1
 62
7
100
AcDbSpline
 70
8
 71
3
 72
8
 73
4
 74
0
 40
0
 40
0
 40
0
 40
0
 40
1
 40
1
 40
1
 40
1
 10
214.268420
 20
229.879395
 30
0.0
 10
213.937227
 20
229.879395
 30
0.0
 10
213.628547
 20
229.950135
 30
0.0
 10
213.342380
 20
230.091615
 30
0.0
  0
SPLINE
  5
12e
100
AcDbEntity
  8
Livello_1
 62
7
100
AcDbSpline
 70
8
 71
3
 72
8
 73
4
 74
0
 40
0
 40
0
 40
0
 40
0
 40
1
 40
1
 40
1
 40
1
 10
213.342380
 20
230.091615
 30
0.0
 10
213.059420
 20
230.229875
 30
0.0
 10
212.840770
 20
230.401898
 30
0.0
 10
212.686430
 20
230.607685
 30
0.0
  0
SPLINE
  5
12f
100
AcDbEntity
  8
Livello_1
 62
7
100
AcDbSpline
 70
8
 71
3
 72
8
 73
4
 74
0
 40
0
 40
0
 40
0
 40
0
 40
1
 40
1
 40
1
 40
1
 10
212.686430
 20
230.607685
 30
0.0
 10
212.532090
 20
230.813472
 30
0.0
 10
212.414727
 20
231.072315
 30
0.0
 10
212.334340
 20
231.384215
 30
0.0
  0
SPLINE
  5
130
100
AcDbEntity
  8
Livello_1
 62
7
100
AcDbSpline
 70
8
 71
3
 72
8
 73
4
 74
0
 40
0
 40
0
 40
0
 40
0
 40
1
 40
1
 40
1
 40
1
 10
212.334340
 20
231.384215
 30
0.0
 10
212.257173
 20
231.692895
 30
0.0
 10
212.218590
 20
232.072315
 30
0.0
 10
212.218590
 20
232.522475
 30
0.0
  0
LINE
  5
131
100
AcDbEntity
  8
Livello_1
 62
7
100
AcDbLine
 10
212.218590
 20
232.522475
 30
0.0
 11
212.218590
 21
235.218605
 31
0.0
  0
LINE
  5
132
100
AcDbEntity
  8
Livello_1
 62
7
100
AcDbLine
 10
216.318250
 20
234.282915
 30
0.0
 11
216.318250
 21
232.753985
 31
0.0
  0
SPLINE
  5
133
100
AcDbEntity
  8
Livello_1
 62
7
100
AcDbSpline
 70
8
 71
3
 72
8
 73
4
 74
0
 40
0
 40
0
 40
0
 40
0
 40
1
 40
1
 40
1
 40
1
 10
216.318250
 20
232.753985
 30
0.0
 10
216.318250
 20
232.339192
 30
0.0
 10
216.345583
 20
232.041765
 30
0.0
 10
216.400250
 20
231.861705
 30
0.0
  0
SPLINE
  5
134
100
AcDbEntity
  8
Livello_1
 62
7
100
AcDbSpline
 70
8
 71
3
 72
8
 73
4
 74
0
 40
0
 40
0
 40
0
 40
0
 40
1
 40
1
 40
1
 40
1
 10
216.400250
 20
231.861705
 30
0.0
 10
216.470990
 20
231.623765
 30
0.0
 10
216.588353
 20
231.445308
 30
0.0
 10
216.752340
 20
231.326335
 30
0.0
  0
SPLINE
  5
135
100
AcDbEntity
  8
Livello_1
 62
7
100
AcDbSpline
 70
8
 71
3
 72
8
 73
4
 74
0
 40
0
 40
0
 40
0
 40
0
 40
1
 40
1
 40
1
 40
1
 10
216.752340
 20
231.326335
 30
0.0
 10
216.916327
 20
231.204148
 30
0.0
 10
217.122113
 20
231.143055
 30
0.0
 10
217.369700
 20
231.143055
 30
0.0
  0
SPLINE
  5
136
100
AcDbEntity
  8
Livello_1
 62
7
100
AcDbSpline
 70
8
 71
3
 72
8
 73
4
 74
0
 40
0
 40
0
 40
0
 40
0
 40
1
 40
1
 40
1
 40
1
 10
217.369700
 20
231.143055
 30
0.0
 10
217.604427
 20
231.143055
 30
0.0
 10
217.810213
 20
231.199325
 30
0.0
 10
217.987060
 20
231.311865
 30
0.0
  0
SPLINE
  5
137
100
AcDbEntity
  8
Livello_1
 62
7
100
AcDbSpline
 70
8
 71
3
 72
8
 73
4
 74
0
 40
0
 40
0
 40
0
 40
0
 40
1
 40
1
 40
1
 40
1
 10
217.987060
 20
231.311865
 30
0.0
 10
218.167120
 20
231.424405
 30
0.0
 10
218.289307
 20
231.585175
 30
0.0
 10
218.353620
 20
231.794175
 30
0.0
  0
SPLINE
  5
138
100
AcDbEntity
  8
Livello_1
 62
7
100
AcDbSpline
 70
8
 71
3
 72
8
 73
4
 74
0
 40
0
 40
0
 40
0
 40
0
 40
1
 40
1
 40
1
 40
1
 10
218.353620
 20
231.794175
 30
0.0
 10
218.421140
 20
232.003182
 30
0.0
 10
218.454900
 20
232.361702
 30
0.0
 10
218.454900
 20
232.869735
 30
0.0
  0
LINE
  5
139
100
AcDbEntity
  8
Livello_1
 62
7
100
AcDbLine
 10
218.454900
 20
232.869735
 30
0.0
 11
218.454900
 21
234.282915
 31
0.0
  0
LINE
  5
13a
100
AcDbEntity
  8
Livello_1
 62
7
100
AcDbLine
 10
218.454900
 20
234.282915
 30
0.0
 11
216.318250
 21
234.282915
 31
0.0
  0
LINE
  5
13b
100
AcDbEntity
  8
Livello_1
 62
7
100
AcDbLine
 10
213.052990
 20
234.282915
 30
0.0
 11
213.052990
 21
232.522475
 31
0.0
  0
SPLINE
  5
13c
100
AcDbEntity
  8
Livello_1
 62
7
100
AcDbSpline
 70
8
 71
3
 72
8
 73
4
 74
0
 40
0
 40
0
 40
0
 40
0
 40
1
 40
1
 40
1
 40
1
 10
213.052990
 20
232.522475
 30
0.0
 10
213.052990
 20
232.220222
 30
0.0
 10
213.064257
 20
232.008002
 30
0.0
 10
213.086790
 20
231.885815
 30
0.0
  0
SPLINE
  5
13d
100
AcDbEntity
  8
Livello_1
 62
7
100
AcDbSpline
 70
8
 71
3
 72
8
 73
4
 74
0
 40
0
 40
0
 40
0
 40
0
 40
1
 40
1
 40
1
 40
1
 10
213.086790
 20
231.885815
 30
0.0
 10
213.125390
 20
231.670382
 30
0.0
 10
213.189697
 20
231.490318
 30
0.0
 10
213.279710
 20
231.345625
 30
0.0
  0
SPLINE
  5
13e
100
AcDbEntity
  8
Livello_1
 62
7
100
AcDbSpline
 70
8
 71
3
 72
8
 73
4
 74
0
 40
0
 40
0
 40
0
 40
0
 40
1
 40
1
 40
1
 40
1
 10
213.279710
 20
231.345625
 30
0.0
 10
213.369743
 20
231.200932
 30
0.0
 10
213.499970
 20
231.081962
 30
0.0
 10
213.670390
 20
230.988715
 30
0.0
  0
SPLINE
  5
13f
100
AcDbEntity
  8
Livello_1
 62
7
100
AcDbSpline
 70
8
 71
3
 72
8
 73
4
 74
0
 40
0
 40
0
 40
0
 40
0
 40
1
 40
1
 40
1
 40
1
 10
213.670390
 20
230.988715
 30
0.0
 10
213.844023
 20
230.895468
 30
0.0
 10
214.043377
 20
230.848845
 30
0.0
 10
214.268450
 20
230.848845
 30
0.0
  0
SPLINE
  5
140
100
AcDbEntity
  8
Livello_1
 62
7
100
AcDbSpline
 70
8
 71
3
 72
8
 73
4
 74
0
 40
0
 40
0
 40
0
 40
0
 40
1
 40
1
 40
1
 40
1
 10
214.268450
 20
230.848845
 30
0.0
 10
214.532117
 20
230.848845
 30
0.0
 10
214.760413
 20
230.916368
 30
0.0
 10
214.953340
 20
231.051415
 30
0.0
  0
SPLINE
  5
141
100
AcDbEntity
  8
Livello_1
 62
7
100
AcDbSpline
 70
8
 71
3
 72
8
 73
4
 74
0
 40
0
 40
0
 40
0
 40
0
 40
1
 40
1
 40
1
 40
1
 10
214.953340
 20
231.051415
 30
0.0
 10
215.149480
 20
231.186462
 30
0.0
 10
215.286137
 20
231.374565
 30
0.0
 10
215.363310
 20
231.615725
 30
0.0
  0
SPLINE
  5
142
100
AcDbEntity
  8
Livello_1
 62
7
100
AcDbSpline
 70
8
 71
3
 72
8
 73
4
 74
0
 40
0
 40
0
 40
0
 40
0
 40
1
 40
1
 40
1
 40
1
 10
215.363310
 20
231.615725
 30
0.0
 10
215.443690
 20
231.853665
 30
0.0
 10
215.483880
 20
232.197715
 30
0.0
 10
215.483880
 20
232.647875
 30
0.0
  0
LINE
  5
143
100
AcDbEntity
  8
Livello_1
 62
7
100
AcDbLine
 10
215.483880
 20
232.647875
 30
0.0
 11
215.483880
 21
234.282915
 31
0.0
  0
LINE
  5
144
100
AcDbEntity
  8
Livello_1
 62
7
100
AcDbLine
 10
215.483880
 20
234.282915
 30
0.0
 11
213.052990
 21
234.282915
 31
0.0
  0
LINE
  5
145
100
AcDbEntity
  8
Livello_1
 62
7
100
AcDbLine
 10
212.218590
 20
228.432455
 30
0.0
 11
219.289300
 21
228.432455
 31
0.0
  0
LINE
  5
146
100
AcDbEntity
  8
Livello_1
 62
7
100
AcDbLine
 10
219.289300
 20
228.432455
 30
0.0
 11
219.289300
 21
227.496775
 31
0.0
  0
LINE
  5
147
100
AcDbEntity
  8
Livello_1
 62
7
100
AcDbLine
 10
219.289300
 20
227.496775
 30
0.0
 11
212.218590
 21
227.496775
 31
0.0
  0
LINE
  5
148
100
AcDbEntity
  8
Livello_1
 62
7
100
AcDbLine
 10
212.218590
 20
227.496775
 30
0.0
 11
212.218590
 21
228.432455
 31
0.0
  0
LINE
  5
149
100
AcDbEntity
  8
Livello_1
 62
7
100
AcDbLine
 10
212.218590
 20
225.856905
 30
0.0
 11
219.289300
 21
225.856905
 31
0.0
  0
LINE
  5
14a
100
AcDbEntity
  8
Livello_1
 62
7
100
AcDbLine
 10
219.289300
 20
225.856905
 30
0.0
 11
219.289300
 21
224.897105
 31
0.0
  0
LINE
  5
14b
100
AcDbEntity
  8
Livello_1
 62
7
100
AcDbLine
 10
219.289300
 20
224.897105
 30
0.0
 11
213.737870
 21
221.183295
 31
0.0
  0
LINE
  5
14c
100
AcDbEntity
  8
Livello_1
 62
7
100
AcDbLine
 10
213.737870
 20
221.183295
 30
0.0
 11
219.289300
 21
221.183295
 31
0.0
  0
LINE
  5
14d
100
AcDbEntity
  8
Livello_1
 62
7
100
AcDbLine
 10
219.289300
 20
221.183295
 30
0.0
 11
219.289300
 21
220.286195
 31
0.0
  0
LINE
  5
14e
100
AcDbEntity
  8
Livello_1
 62
7
100
AcDbLine
 10
219.289300
 20
220.286195
 30
0.0
 11
212.218590
 21
220.286195
 31
0.0
  0
LINE
  5
14f
100
AcDbEntity
  8
Livello_1
 62
7
100
AcDbLine
 10
212.218590
 20
220.286195
 30
0.0
 11
212.218590
 21
221.245995
 31
0.0
  0
LINE
  5
150
100
AcDbEntity
  8
Livello_1
 62
7
100
AcDbLine
 10
212.218590
 20
221.245995
 30
0.0
 11
217.774830
 21
224.959805
 31
0.0
  0
LINE
  5
151
100
AcDbEntity
  8
Livello_1
 62
7
100
AcDbLine
 10
217.774830
 20
224.959805
 30
0.0
 11
212.218590
 21
224.959805
 31
0.0
  0
LINE
  5
152
100
AcDbEntity
  8
Livello_1
 62
7
100
AcDbLine
 10
212.218590
 20
224.959805
 30
0.0
 11
212.218590
 21
225.856905
 31
0.0
  0
LINE
  5
153
100
AcDbEntity
  8
Livello_1
 62
7
100
AcDbLine
 10
212.218590
 20
219.490375
 30
0.0
 11
219.289300
 21
216.774946
 31
0.0
  0
LINE
  5
154
100
AcDbEntity
  8
Livello_1
 62
7
100
AcDbLine
 10
219.289300
 20
216.774946
 30
0.0
 11
219.289300
 21
215.766906
 31
0.0
  0
LINE
  5
155
100
AcDbEntity
  8
Livello_1
 62
7
100
AcDbLine
 10
219.289300
 20
215.766906
 30
0.0
 11
212.218590
 21
212.873026
 31
0.0
  0
LINE
  5
156
100
AcDbEntity
  8
Livello_1
 62
7
100
AcDbLine
 10
212.218590
 20
212.873026
 30
0.0
 11
212.218590
 21
213.938946
 31
0.0
  0
LINE
  5
157
100
AcDbEntity
  8
Livello_1
 62
7
100
AcDbLine
 10
212.218590
 20
213.938946
 30
0.0
 11
214.360060
 21
214.763696
 31
0.0
  0
LINE
  5
158
100
AcDbEntity
  8
Livello_1
 62
7
100
AcDbLine
 10
214.360060
 20
214.763696
 30
0.0
 11
214.360060
 21
217.720276
 31
0.0
  0
LINE
  5
159
100
AcDbEntity
  8
Livello_1
 62
7
100
AcDbLine
 10
214.360060
 20
217.720276
 30
0.0
 11
212.218590
 21
218.496795
 31
0.0
  0
LINE
  5
15a
100
AcDbEntity
  8
Livello_1
 62
7
100
AcDbLine
 10
212.218590
 20
218.496795
 30
0.0
 11
212.218590
 21
219.490375
 31
0.0
  0
LINE
  5
15b
100
AcDbEntity
  8
Livello_1
 62
7
100
AcDbLine
 10
215.122110
 20
217.450176
 30
0.0
 11
215.122110
 21
215.053086
 31
0.0
  0
LINE
  5
15c
100
AcDbEntity
  8
Livello_1
 62
7
100
AcDbLine
 10
215.122110
 20
215.053086
 30
0.0
 11
217.080300
 21
215.791026
 31
0.0
  0
SPLINE
  5
15d
100
AcDbEntity
  8
Livello_1
 62
7
100
AcDbSpline
 70
8
 71
3
 72
8
 73
4
 74
0
 40
0
 40
0
 40
0
 40
0
 40
1
 40
1
 40
1
 40
1
 10
217.080300
 20
215.791026
 30
0.0
 10
217.675153
 20
216.016106
 30
0.0
 10
218.163897
 20
216.183306
 30
0.0
 10
218.546530
 20
216.292626
 30
0.0
  0
SPLINE
  5
15e
100
AcDbEntity
  8
Livello_1
 62
7
100
AcDbSpline
 70
8
 71
3
 72
8
 73
4
 74
0
 40
0
 40
0
 40
0
 40
0
 40
1
 40
1
 40
1
 40
1
 10
218.546530
 20
216.292626
 30
0.0
 10
218.093157
 20
216.382659
 30
0.0
 10
217.643000
 20
216.509669
 30
0.0
 10
217.196060
 20
216.673656
 30
0.0
  0
LINE
  5
15f
100
AcDbEntity
  8
Livello_1
 62
7
100
AcDbLine
 10
217.196060
 20
216.673656
 30
0.0
 11
215.122110
 21
217.450176
 31
0.0
  0
LINE
  5
160
100
AcDbEntity
  8
Livello_1
 62
7
100
AcDbLine
 10
-26.761394
 20
196.998430
 30
0.0
 11
-21.761404
 21
196.998430
 31
0.0
  0
LINE
  5
161
100
AcDbEntity
  8
Livello_1
 62
7
100
AcDbLine
 10
-21.761404
 20
196.998430
 30
0.0
 11
-21.761404
 21
191.998410
 31
0.0
  0
LINE
  5
162
100
AcDbEntity
  8
Livello_1
 62
7
100
AcDbLine
 10
-21.761404
 20
191.998410
 30
0.0
 11
40.238620
 21
191.998410
 31
0.0
  0
LINE
  5
163
100
AcDbEntity
  8
Livello_1
 62
7
100
AcDbLine
 10
40.238620
 20
191.998410
 30
0.0
 11
40.238620
 21
196.998430
 31
0.0
  0
LINE
  5
164
100
AcDbEntity
  8
Livello_1
 62
7
100
AcDbLine
 10
40.238620
 20
196.998430
 30
0.0
 11
45.238610
 21
196.998430
 31
0.0
  0
LINE
  5
165
100
AcDbEntity
  8
Livello_1
 62
7
100
AcDbLine
 10
45.238610
 20
196.998430
 30
0.0
 11
45.238610
 21
206.998407
 31
0.0
  0
LINE
  5
166
100
AcDbEntity
  8
Livello_1
 62
7
100
AcDbLine
 10
-26.761394
 20
258.998424
 30
0.0
 11
-21.761404
 21
258.998424
 31
0.0
  0
LINE
  5
167
100
AcDbEntity
  8
Livello_1
 62
7
100
AcDbLine
 10
-21.761404
 20
258.998424
 30
0.0
 11
-21.761404
 21
242.998408
 31
0.0
  0
LINE
  5
168
100
AcDbEntity
  8
Livello_1
 62
7
100
AcDbLine
 10
-21.761404
 20
242.998408
 30
0.0
 11
-26.761394
 21
242.998408
 31
0.0
  0
LINE
  5
169
100
AcDbEntity
  8
Livello_1
 62
7
100
AcDbLine
 10
-26.761394
 20
242.998408
 30
0.0
 11
-26.761394
 21
222.998422
 31
0.0
  0
LINE
  5
16a
100
AcDbEntity
  8
Livello_1
 62
7
100
AcDbLine
 10
-26.761394
 20
222.998422
 30
0.0
 11
-21.761404
 21
222.998422
 31
0.0
  0
LINE
  5
16b
100
AcDbEntity
  8
Livello_1
 62
7
100
AcDbLine
 10
-21.761404
 20
222.998422
 30
0.0
 11
-21.761404
 21
206.998407
 31
0.0
  0
LINE
  5
16c
100
AcDbEntity
  8
Livello_1
 62
7
100
AcDbLine
 10
-21.761404
 20
206.998407
 30
0.0
 11
-26.761394
 21
206.998407
 31
0.0
  0
LINE
  5
16d
100
AcDbEntity
  8
Livello_1
 62
7
100
AcDbLine
 10
-26.761394
 20
206.998407
 30
0.0
 11
-26.761394
 21
196.998430
 31
0.0
  0
LINE
  5
16e
100
AcDbEntity
  8
Livello_1
 62
7
100
AcDbLine
 10
45.238610
 20
196.998430
 30
0.0
 11
40.238620
 21
196.998430
 31
0.0
  0
LINE
  5
16f
100
AcDbEntity
  8
Livello_1
 62
7
100
AcDbLine
 10
45.238610
 20
258.998424
 30
0.0
 11
40.238620
 21
258.998424
 31
0.0
  0
LINE
  5
170
100
AcDbEntity
  8
Livello_1
 62
7
100
AcDbLine
 10
40.238620
 20
258.998424
 30
0.0
 11
40.238620
 21
242.998408
 31
0.0
  0
LINE
  5
171
100
AcDbEntity
  8
Livello_1
 62
7
100
AcDbLine
 10
40.238620
 20
242.998408
 30
0.0
 11
45.238610
 21
242.998408
 31
0.0
  0
LINE
  5
172
100
AcDbEntity
  8
Livello_1
 62
7
100
AcDbLine
 10
45.238610
 20
242.998408
 30
0.0
 11
45.238610
 21
222.998422
 31
0.0
  0
LINE
  5
173
100
AcDbEntity
  8
Livello_1
 62
7
100
AcDbLine
 10
45.238610
 20
222.998422
 30
0.0
 11
40.238620
 21
222.998422
 31
0.0
  0
LINE
  5
174
100
AcDbEntity
  8
Livello_1
 62
7
100
AcDbLine
 10
40.238620
 20
222.998422
 30
0.0
 11
40.238620
 21
206.998407
 31
0.0
  0
LINE
  5
175
100
AcDbEntity
  8
Livello_1
 62
7
100
AcDbLine
 10
40.238620
 20
206.998407
 30
0.0
 11
45.238610
 21
206.998407
 31
0.0
  0
LINE
  5
176
100
AcDbEntity
  8
Livello_1
 62
7
100
AcDbLine
 10
45.238610
 20
258.998424
 30
0.0
 11
45.238610
 21
268.998404
 31
0.0
  0
LINE
  5
177
100
AcDbEntity
  8
Livello_1
 62
7
100
AcDbLine
 10
45.238610
 20
268.998404
 30
0.0
 11
25.238597
 21
268.998404
 31
0.0
  0
LINE
  5
178
100
AcDbEntity
  8
Livello_1
 62
7
100
AcDbLine
 10
45.238610
 20
196.998430
 30
0.0
 11
80.238619
 21
196.998430
 31
0.0
  0
LINE
  5
179
100
AcDbEntity
  8
Livello_1
 62
7
100
AcDbLine
 10
45.238610
 20
268.998404
 30
0.0
 11
80.238619
 21
268.998404
 31
0.0
  0
LINE
  5
17a
100
AcDbEntity
  8
Livello_1
 62
7
100
AcDbLine
 10
80.238619
 20
206.998407
 30
0.0
 11
80.238619
 21
196.998430
 31
0.0
  0
LINE
  5
17b
100
AcDbEntity
  8
Livello_1
 62
7
100
AcDbLine
 10
80.238619
 20
258.998424
 30
0.0
 11
85.238609
 21
258.998424
 31
0.0
  0
LINE
  5
17c
100
AcDbEntity
  8
Livello_1
 62
7
100
AcDbLine
 10
85.238609
 20
258.998424
 30
0.0
 11
85.238609
 21
242.998408
 31
0.0
  0
LINE
  5
17d
100
AcDbEntity
  8
Livello_1
 62
7
100
AcDbLine
 10
85.238609
 20
242.998408
 30
0.0
 11
80.238619
 21
242.998408
 31
0.0
  0
LINE
  5
17e
100
AcDbEntity
  8
Livello_1
 62
7
100
AcDbLine
 10
80.238619
 20
242.998408
 30
0.0
 11
80.238619
 21
222.998422
 31
0.0
  0
LINE
  5
17f
100
AcDbEntity
  8
Livello_1
 62
7
100
AcDbLine
 10
80.238619
 20
222.998422
 30
0.0
 11
85.238609
 21
222.998422
 31
0.0
  0
LINE
  5
180
100
AcDbEntity
  8
Livello_1
 62
7
100
AcDbLine
 10
85.238609
 20
222.998422
 30
0.0
 11
85.238609
 21
206.998407
 31
0.0
  0
LINE
  5
181
100
AcDbEntity
  8
Livello_1
 62
7
100
AcDbLine
 10
85.238609
 20
206.998407
 30
0.0
 11
80.238619
 21
206.998407
 31
0.0
  0
LINE
  5
182
100
AcDbEntity
  8
Livello_1
 62
7
100
AcDbLine
 10
80.238619
 20
196.998430
 30
0.0
 11
85.238609
 21
196.998430
 31
0.0
  0
LINE
  5
183
100
AcDbEntity
  8
Livello_1
 62
7
100
AcDbLine
 10
152.238600
 20
258.998424
 30
0.0
 11
152.238600
 21
268.998404
 31
0.0
  0
LINE
  5
184
100
AcDbEntity
  8
Livello_1
 62
7
100
AcDbLine
 10
152.238600
 20
268.998404
 30
0.0
 11
132.238610
 21
268.998404
 31
0.0
  0
LINE
  5
185
100
AcDbEntity
  8
Livello_1
 62
7
100
AcDbLine
 10
85.238609
 20
196.998430
 30
0.0
 11
85.238609
 21
191.998410
 31
0.0
  0
LINE
  5
186
100
AcDbEntity
  8
Livello_1
 62
7
100
AcDbLine
 10
85.238609
 20
191.998410
 30
0.0
 11
147.238610
 21
191.998410
 31
0.0
  0
LINE
  5
187
100
AcDbEntity
  8
Livello_1
 62
7
100
AcDbLine
 10
147.238610
 20
191.998410
 30
0.0
 11
147.238610
 21
196.998430
 31
0.0
  0
LINE
  5
188
100
AcDbEntity
  8
Livello_1
 62
7
100
AcDbLine
 10
147.238610
 20
196.998430
 30
0.0
 11
152.238600
 21
196.998430
 31
0.0
  0
LINE
  5
189
100
AcDbEntity
  8
Livello_1
 62
7
100
AcDbLine
 10
152.238600
 20
196.998430
 30
0.0
 11
152.238600
 21
206.998407
 31
0.0
  0
LINE
  5
18a
100
AcDbEntity
  8
Livello_1
 62
7
100
AcDbLine
 10
152.238600
 20
258.998424
 30
0.0
 11
147.238610
 21
258.998424
 31
0.0
  0
LINE
  5
18b
100
AcDbEntity
  8
Livello_1
 62
7
100
AcDbLine
 10
147.238610
 20
258.998424
 30
0.0
 11
147.238610
 21
242.998408
 31
0.0
  0
LINE
  5
18c
100
AcDbEntity
  8
Livello_1
 62
7
100
AcDbLine
 10
147.238610
 20
242.998408
 30
0.0
 11
152.238600
 21
242.998408
 31
0.0
  0
LINE
  5
18d
100
AcDbEntity
  8
Livello_1
 62
7
100
AcDbLine
 10
152.238600
 20
242.998408
 30
0.0
 11
152.238600
 21
222.998422
 31
0.0
  0
LINE
  5
18e
100
AcDbEntity
  8
Livello_1
 62
7
100
AcDbLine
 10
152.238600
 20
222.998422
 30
0.0
 11
147.238610
 21
222.998422
 31
0.0
  0
LINE
  5
18f
100
AcDbEntity
  8
Livello_1
 62
7
100
AcDbLine
 10
147.238610
 20
222.998422
 30
0.0
 11
147.238610
 21
206.998407
 31
0.0
  0
LINE
  5
190
100
AcDbEntity
  8
Livello_1
 62
7
100
AcDbLine
 10
147.238610
 20
206.998407
 30
0.0
 11
152.238600
 21
206.998407
 31
0.0
  0
LINE
  5
191
100
AcDbEntity
  8
Livello_1
 62
7
100
AcDbLine
 10
152.238600
 20
196.998430
 30
0.0
 11
187.238600
 21
196.998430
 31
0.0
  0
LINE
  5
192
100
AcDbEntity
  8
Livello_1
 62
7
100
AcDbLine
 10
152.238600
 20
268.998404
 30
0.0
 11
187.238600
 21
268.998404
 31
0.0
  0
LINE
  5
193
100
AcDbEntity
  8
Livello_1
 62
7
100
AcDbLine
 10
187.238600
 20
206.998407
 30
0.0
 11
187.238600
 21
196.998430
 31
0.0
  0
LINE
  5
194
100
AcDbEntity
  8
Livello_1
 62
7
100
AcDbLine
 10
187.238600
 20
258.998424
 30
0.0
 11
192.238590
 21
258.998424
 31
0.0
  0
LINE
  5
195
100
AcDbEntity
  8
Livello_1
 62
7
100
AcDbLine
 10
192.238590
 20
258.998424
 30
0.0
 11
192.238590
 21
242.998408
 31
0.0
  0
LINE
  5
196
100
AcDbEntity
  8
Livello_1
 62
7
100
AcDbLine
 10
192.238590
 20
242.998408
 30
0.0
 11
187.238600
 21
242.998408
 31
0.0
  0
LINE
  5
197
100
AcDbEntity
  8
Livello_1
 62
7
100
AcDbLine
 10
187.238600
 20
242.998408
 30
0.0
 11
187.238600
 21
222.998422
 31
0.0
  0
LINE
  5
198
100
AcDbEntity
  8
Livello_1
 62
7
100
AcDbLine
 10
187.238600
 20
222.998422
 30
0.0
 11
192.238590
 21
222.998422
 31
0.0
  0
LINE
  5
199
100
AcDbEntity
  8
Livello_1
 62
7
100
AcDbLine
 10
192.238590
 20
222.998422
 30
0.0
 11
192.238590
 21
206.998407
 31
0.0
  0
LINE
  5
19a
100
AcDbEntity
  8
Livello_1
 62
7
100
AcDbLine
 10
192.238590
 20
206.998407
 30
0.0
 11
187.238600
 21
206.998407
 31
0.0
  0
LINE
  5
19b
100
AcDbEntity
  8
Livello_1
 62
7
100
AcDbLine
 10
187.238600
 20
268.998404
 30
0.0
 11
187.238600
 21
258.998424
 31
0.0
  0
LINE
  5
19c
100
AcDbEntity
  8
Livello_1
 62
7
100
AcDbLine
 10
-6.761381
 20
268.998404
 30
0.0
 11
-6.761381
 21
263.998414
 31
0.0
  0
LINE
  5
19d
100
AcDbEntity
  8
Livello_1
 62
7
100
AcDbLine
 10
-6.761381
 20
263.998414
 30
0.0
 11
25.238597
 21
263.998414
 31
0.0
  0
LINE
  5
19e
100
AcDbEntity
  8
Livello_1
 62
7
100
AcDbLine
 10
25.238597
 20
263.998414
 30
0.0
 11
25.238597
 21
268.998404
 31
0.0
  0
LINE
  5
19f
100
AcDbEntity
  8
Livello_1
 62
7
100
AcDbLine
 10
100.238600
 20
268.998404
 30
0.0
 11
100.238600
 21
263.998414
 31
0.0
  0
LINE
  5
1a0
100
AcDbEntity
  8
Livello_1
 62
7
100
AcDbLine
 10
100.238600
 20
263.998414
 30
0.0
 11
132.238610
 21
263.998414
 31
0.0
  0
LINE
  5
1a1
100
AcDbEntity
  8
Livello_1
 62
7
100
AcDbLine
 10
132.238610
 20
263.998414
 30
0.0
 11
132.238610
 21
268.998404
 31
0.0
  0
LINE
  5
1a2
100
AcDbEntity
  8
Livello_1
 62
7
100
AcDbLine
 10
-6.761381
 20
268.998404
 30
0.0
 11
-26.761394
 21
268.998404
 31
0.0
  0
LINE
  5
1a3
100
AcDbEntity
  8
Livello_1
 62
7
100
AcDbLine
 10
-26.761394
 20
268.998404
 30
0.0
 11
-26.761394
 21
258.998424
 31
0.0
  0
LINE
  5
1a4
100
AcDbEntity
  8
Livello_1
 62
7
100
AcDbLine
 10
100.238600
 20
268.998404
 30
0.0
 11
80.238619
 21
268.998404
 31
0.0
  0
LINE
  5
1a5
100
AcDbEntity
  8
Livello_1
 62
7
100
AcDbLine
 10
80.238619
 20
268.998404
 30
0.0
 11
80.238619
 21
258.998424
 31
0.0
  0
LINE
  5
1a6
100
AcDbEntity
  8
Livello_1
 62
7
100
AcDbLine
 10
198.253942
 20
262.022473
 30
0.0
 11
198.253942
 21
247.022450
 31
0.0
  0
LINE
  5
1a7
100
AcDbEntity
  8
Livello_1
 62
7
100
AcDbLine
 10
198.253942
 20
247.022450
 30
0.0
 11
193.253952
 21
247.022450
 31
0.0
  0
LINE
  5
1a8
100
AcDbEntity
  8
Livello_1
 62
7
100
AcDbLine
 10
193.253952
 20
247.022450
 30
0.0
 11
193.253952
 21
215.022472
 31
0.0
  0
LINE
  5
1a9
100
AcDbEntity
  8
Livello_1
 62
7
100
AcDbLine
 10
193.253952
 20
215.022472
 30
0.0
 11
198.253942
 21
215.022472
 31
0.0
  0
LINE
  5
1aa
100
AcDbEntity
  8
Livello_1
 62
7
100
AcDbLine
 10
233.253952
 20
247.022450
 30
0.0
 11
238.253942
 21
247.022450
 31
0.0
  0
LINE
  5
1ab
100
AcDbEntity
  8
Livello_1
 62
7
100
AcDbLine
 10
238.253942
 20
247.022450
 30
0.0
 11
238.253942
 21
215.022472
 31
0.0
  0
LINE
  5
1ac
100
AcDbEntity
  8
Livello_1
 62
7
100
AcDbLine
 10
238.253942
 20
215.022472
 30
0.0
 11
233.253952
 21
215.022472
 31
0.0
  0
LINE
  5
1ad
100
AcDbEntity
  8
Livello_1
 62
7
100
AcDbLine
 10
233.253952
 20
247.022450
 30
0.0
 11
233.253952
 21
262.022473
 31
0.0
  0
LINE
  5
1ae
100
AcDbEntity
  8
Livello_1
 62
7
100
AcDbLine
 10
233.253952
 20
262.022473
 30
0.0
 11
198.253942
 21
262.022473
 31
0.0
  0
LINE
  5
1af
100
AcDbEntity
  8
Livello_1
 62
7
100
AcDbLine
 10
198.253942
 20
215.022472
 30
0.0
 11
198.253942
 21
200.022476
 31
0.0
  0
LINE
  5
1b0
100
AcDbEntity
  8
Livello_1
 62
7
100
AcDbLine
 10
198.253942
 20
200.022476
 30
0.0
 11
233.253952
 21
200.022476
 31
0.0
  0
LINE
  5
1b1
100
AcDbEntity
  8
Livello_1
 62
7
100
AcDbLine
 10
233.253952
 20
200.022476
 30
0.0
 11
233.253952
 21
215.022472
 31
0.0
  0
LINE
  5
1b2
100
AcDbEntity
  8
Livello_1
 62
7
100
AcDbLine
 10
6.738613
 20
253.998407
 30
0.0
 11
6.738613
 21
206.998407
 31
0.0
  0
LINE
  5
1b3
100
AcDbEntity
  8
Livello_1
 62
7
100
AcDbLine
 10
11.738603
 20
253.998407
 30
0.0
 11
11.738603
 21
206.998407
 31
0.0
  0
LINE
  5
1b4
100
AcDbEntity
  8
Livello_1
 62
7
100
AcDbLine
 10
6.738613
 20
206.998407
 30
0.0
 11
11.738603
 21
206.998407
 31
0.0
  0
LINE
  5
1b5
100
AcDbEntity
  8
Livello_1
 62
7
100
AcDbLine
 10
6.738613
 20
253.998407
 30
0.0
 11
11.738603
 21
253.998407
 31
0.0
  0
LINE
  5
1b6
100
AcDbEntity
  8
Livello_1
 62
7
100
AcDbLine
 10
-0.761398
 20
253.998407
 30
0.0
 11
-0.761398
 21
206.998407
 31
0.0
  0
LINE
  5
1b7
100
AcDbEntity
  8
Livello_1
 62
7
100
AcDbLine
 10
4.238618
 20
253.998407
 30
0.0
 11
4.238618
 21
206.998407
 31
0.0
  0
LINE
  5
1b8
100
AcDbEntity
  8
Livello_1
 62
7
100
AcDbLine
 10
-0.761398
 20
253.998407
 30
0.0
 11
4.238618
 21
253.998407
 31
0.0
  0
LINE
  5
1b9
100
AcDbEntity
  8
Livello_1
 62
7
100
AcDbLine
 10
-0.761398
 20
206.998407
 30
0.0
 11
4.238618
 21
206.998407
 31
0.0
  0
LINE
  5
1ba
100
AcDbEntity
  8
Livello_1
 62
7
100
AcDbLine
 10
21.738609
 20
253.998407
 30
0.0
 11
21.738609
 21
206.998407
 31
0.0
  0
LINE
  5
1bb
100
AcDbEntity
  8
Livello_1
 62
7
100
AcDbLine
 10
26.738599
 20
253.998407
 30
0.0
 11
26.738599
 21
206.998407
 31
0.0
  0
LINE
  5
1bc
100
AcDbEntity
  8
Livello_1
 62
7
100
AcDbLine
 10
21.738609
 20
206.998407
 30
0.0
 11
26.738599
 21
206.998407
 31
0.0
  0
LINE
  5
1bd
100
AcDbEntity
  8
Livello_1
 62
7
100
AcDbLine
 10
21.738609
 20
253.998407
 30
0.0
 11
26.738599
 21
253.998407
 31
0.0
  0
LINE
  5
1be
100
AcDbEntity
  8
Livello_1
 62
7
100
AcDbLine
 10
14.238598
 20
253.998407
 30
0.0
 11
14.238598
 21
206.998407
 31
0.0
  0
LINE
  5
1bf
100
AcDbEntity
  8
Livello_1
 62
7
100
AcDbLine
 10
19.238614
 20
253.998407
 30
0.0
 11
19.238614
 21
206.998407
 31
0.0
  0
LINE
  5
1c0
100
AcDbEntity
  8
Livello_1
 62
7
100
AcDbLine
 10
14.238598
 20
253.998407
 30
0.0
 11
19.238614
 21
253.998407
 31
0.0
  0
LINE
  5
1c1
100
AcDbEntity
  8
Livello_1
 62
7
100
AcDbLine
 10
14.238598
 20
206.998407
 30
0.0
 11
19.238614
 21
206.998407
 31
0.0
  0
LINE
  5
1c2
100
AcDbEntity
  8
Livello_1
 62
7
100
AcDbLine
 10
29.238621
 20
253.998407
 30
0.0
 11
29.238621
 21
206.998407
 31
0.0
  0
LINE
  5
1c3
100
AcDbEntity
  8
Livello_1
 62
7
100
AcDbLine
 10
34.238611
 20
253.998407
 30
0.0
 11
34.238611
 21
206.998407
 31
0.0
  0
LINE
  5
1c4
100
AcDbEntity
  8
Livello_1
 62
7
100
AcDbLine
 10
29.238621
 20
253.998407
 30
0.0
 11
34.238611
 21
253.998407
 31
0.0
  0
LINE
  5
1c5
100
AcDbEntity
  8
Livello_1
 62
7
100
AcDbLine
 10
29.238621
 20
206.998407
 30
0.0
 11
34.238611
 21
206.998407
 31
0.0
  0
LINE
  5
1c6
100
AcDbEntity
  8
Livello_1
 62
7
100
AcDbLine
 10
-8.261383
 20
253.998407
 30
0.0
 11
-8.261383
 21
206.998407
 31
0.0
  0
LINE
  5
1c7
100
AcDbEntity
  8
Livello_1
 62
7
100
AcDbLine
 10
-3.261393
 20
253.998407
 30
0.0
 11
-3.261393
 21
206.998407
 31
0.0
  0
LINE
  5
1c8
100
AcDbEntity
  8
Livello_1
 62
7
100
AcDbLine
 10
-8.261383
 20
206.998407
 30
0.0
 11
-3.261393
 21
206.998407
 31
0.0
  0
LINE
  5
1c9
100
AcDbEntity
  8
Livello_1
 62
7
100
AcDbLine
 10
-8.261383
 20
253.998407
 30
0.0
 11
-3.261393
 21
253.998407
 31
0.0
  0
LINE
  5
1ca
100
AcDbEntity
  8
Livello_1
 62
7
100
AcDbLine
 10
-15.761395
 20
253.998407
 30
0.0
 11
-15.761395
 21
206.998407
 31
0.0
  0
LINE
  5
1cb
100
AcDbEntity
  8
Livello_1
 62
7
100
AcDbLine
 10
-10.761378
 20
253.998407
 30
0.0
 11
-10.761378
 21
206.998407
 31
0.0
  0
LINE
  5
1cc
100
AcDbEntity
  8
Livello_1
 62
7
100
AcDbLine
 10
-15.761395
 20
253.998407
 30
0.0
 11
-10.761378
 21
253.998407
 31
0.0
  0
LINE
  5
1cd
100
AcDbEntity
  8
Livello_1
 62
7
100
AcDbLine
 10
-15.761395
 20
206.998407
 30
0.0
 11
-10.761378
 21
206.998407
 31
0.0
  0
LINE
  5
1ce
100
AcDbEntity
  8
Livello_1
 62
7
100
AcDbLine
 10
113.738600
 20
253.998407
 30
0.0
 11
113.738600
 21
206.998407
 31
0.0
  0
LINE
  5
1cf
100
AcDbEntity
  8
Livello_1
 62
7
100
AcDbLine
 10
118.738620
 20
253.998407
 30
0.0
 11
118.738620
 21
206.998407
 31
0.0
  0
LINE
  5
1d0
100
AcDbEntity
  8
Livello_1
 62
7
100
AcDbLine
 10
113.738600
 20
206.998407
 30
0.0
 11
118.738620
 21
206.998407
 31
0.0
  0
LINE
  5
1d1
100
AcDbEntity
  8
Livello_1
 62
7
100
AcDbLine
 10
113.738600
 20
253.998407
 30
0.0
 11
118.738620
 21
253.998407
 31
0.0
  0
LINE
  5
1d2
100
AcDbEntity
  8
Livello_1
 62
7
100
AcDbLine
 10
106.238610
 20
253.998407
 30
0.0
 11
106.238610
 21
206.998407
 31
0.0
  0
LINE
  5
1d3
100
AcDbEntity
  8
Livello_1
 62
7
100
AcDbLine
 10
111.238600
 20
253.998407
 30
0.0
 11
111.238600
 21
206.998407
 31
0.0
  0
LINE
  5
1d4
100
AcDbEntity
  8
Livello_1
 62
7
100
AcDbLine
 10
106.238610
 20
253.998407
 30
0.0
 11
111.238600
 21
253.998407
 31
0.0
  0
LINE
  5
1d5
100
AcDbEntity
  8
Livello_1
 62
7
100
AcDbLine
 10
106.238610
 20
206.998407
 30
0.0
 11
111.238600
 21
206.998407
 31
0.0
  0
LINE
  5
1d6
100
AcDbEntity
  8
Livello_1
 62
7
100
AcDbLine
 10
128.738600
 20
253.998407
 30
0.0
 11
128.738600
 21
206.998407
 31
0.0
  0
LINE
  5
1d7
100
AcDbEntity
  8
Livello_1
 62
7
100
AcDbLine
 10
133.738610
 20
253.998407
 30
0.0
 11
133.738610
 21
206.998407
 31
0.0
  0
LINE
  5
1d8
100
AcDbEntity
  8
Livello_1
 62
7
100
AcDbLine
 10
128.738600
 20
206.998407
 30
0.0
 11
133.738610
 21
206.998407
 31
0.0
  0
LINE
  5
1d9
100
AcDbEntity
  8
Livello_1
 62
7
100
AcDbLine
 10
128.738600
 20
253.998407
 30
0.0
 11
133.738610
 21
253.998407
 31
0.0
  0
LINE
  5
1da
100
AcDbEntity
  8
Livello_1
 62
7
100
AcDbLine
 10
121.238610
 20
253.998407
 30
0.0
 11
121.238610
 21
206.998407
 31
0.0
  0
LINE
  5
1db
100
AcDbEntity
  8
Livello_1
 62
7
100
AcDbLine
 10
126.238600
 20
253.998407
 30
0.0
 11
126.238600
 21
206.998407
 31
0.0
  0
LINE
  5
1dc
100
AcDbEntity
  8
Livello_1
 62
7
100
AcDbLine
 10
121.238610
 20
253.998407
 30
0.0
 11
126.238600
 21
253.998407
 31
0.0
  0
LINE
  5
1dd
100
AcDbEntity
  8
Livello_1
 62
7
100
AcDbLine
 10
121.238610
 20
206.998407
 30
0.0
 11
126.238600
 21
206.998407
 31
0.0
  0
LINE
  5
1de
100
AcDbEntity
  8
Livello_1
 62
7
100
AcDbLine
 10
136.238610
 20
253.998407
 30
0.0
 11
136.238610
 21
206.998407
 31
0.0
  0
LINE
  5
1df
100
AcDbEntity
  8
Livello_1
 62
7
100
AcDbLine
 10
141.238600
 20
253.998407
 30
0.0
 11
141.238600
 21
206.998407
 31
0.0
  0
LINE
  5
1e0
100
AcDbEntity
  8
Livello_1
 62
7
100
AcDbLine
 10
136.238610
 20
253.998407
 30
0.0
 11
141.238600
 21
253.998407
 31
0.0
  0
LINE
  5
1e1
100
AcDbEntity
  8
Livello_1
 62
7
100
AcDbLine
 10
136.238610
 20
206.998407
 30
0.0
 11
141.238600
 21
206.998407
 31
0.0
  0
LINE
  5
1e2
100
AcDbEntity
  8
Livello_1
 62
7
100
AcDbLine
 10
98.738603
 20
253.998407
 30
0.0
 11
98.738603
 21
206.998407
 31
0.0
  0
LINE
  5
1e3
100
AcDbEntity
  8
Livello_1
 62
7
100
AcDbLine
 10
103.738620
 20
253.998407
 30
0.0
 11
103.738620
 21
206.998407
 31
0.0
  0
LINE
  5
1e4
100
AcDbEntity
  8
Livello_1
 62
7
100
AcDbLine
 10
98.738603
 20
206.998407
 30
0.0
 11
103.738620
 21
206.998407
 31
0.0
  0
LINE
  5
1e5
100
AcDbEntity
  8
Livello_1
 62
7
100
AcDbLine
 10
98.738603
 20
253.998407
 30
0.0
 11
103.738620
 21
253.998407
 31
0.0
  0
LINE
  5
1e6
100
AcDbEntity
  8
Livello_1
 62
7
100
AcDbLine
 10
91.238618
 20
253.998407
 30
0.0
 11
91.238618
 21
206.998407
 31
0.0
  0
LINE
  5
1e7
100
AcDbEntity
  8
Livello_1
 62
7
100
AcDbLine
 10
96.238608
 20
253.998407
 30
0.0
 11
96.238608
 21
206.998407
 31
0.0
  0
LINE
  5
1e8
100
AcDbEntity
  8
Livello_1
 62
7
100
AcDbLine
 10
91.238618
 20
253.998407
 30
0.0
 11
96.238608
 21
253.998407
 31
0.0
  0
LINE
  5
1e9
100
AcDbEntity
  8
Livello_1
 62
7
100
AcDbLine
 10
91.238618
 20
206.998407
 30
0.0
 11
96.238608
 21
206.998407
 31
0.0
  0
ENDSEC
  0
SECTION
  2
OBJECTS
  0
DICTIONARY
  5
C
330
0
100
AcDbDictionary
  3
ACAD_GROUP
350
D
  3
ACAD_MLINESTYLE
350
17
  0
DICTIONARY
  5
D
330
C
100
AcDbDictionary
  0
DICTIONARY
  5
1A
330
C
100
AcDbDictionary
  0
DICTIONARY
  5
17
330
C
100
AcDbDictionary
  3
STANDARD
350
18
  0
DICTIONARY
  5
19
330
C
100
AcDbDictionary
  0
ENDSEC
  0
EOF
